<?xml version="1.0" standalone="no"?>
<!DOCTYPE svg PUBLIC "-//W3C//DTD SVG 1.1//EN" "http://www.w3.org/Graphics/SVG/1.1/DTD/svg11.dtd" >
<svg xmlns="http://www.w3.org/2000/svg" xmlns:xlink="http://www.w3.org/1999/xlink" version="1.1">
<metadata>
Created by FontForge 20190801 at Tue Oct 31 15:54:06 2017
 By Unknown
Copyright 2011 The Montserrat Project Authors \(https://github.com/JulietaUla/Montserrat\)
</metadata>
<defs>
<font id="Montserrat-Bold" horiz-adv-x="0" >
  <font-face 
    font-family="Montserrat"
    font-weight="700"
    font-stretch="normal"
    units-per-em="1000"
    panose-1="0 0 8 0 0 0 0 0 0 0"
    ascent="800"
    descent="-200"
    x-height="538"
    cap-height="700"
    bbox="-882 -266 1679 1076"
    underline-thickness="50"
    underline-position="-100"
    stemh="137"
    stemv="162"
    unicode-range="U+000D-FB02"
  />
<missing-glyph horiz-adv-x="587" 
d="M40 0v700h507v-700h-507zM120 70h347v560h-347v-560z" />
    <glyph glyph-name="fi" unicode="fi" horiz-adv-x="768" 
d="M617 613c-58 0 -97 38 -97 87s39 87 97 87s97 -36 97 -84c0 -52 -39 -90 -97 -90zM314 627c-46 0 -71 -25 -71 -78v-23h138v-120h-134v-406h-156v406h-83v120h83v24c0 121 74 200 208 200c44 0 90 -9 119 -29l-41 -113c-17 12 -39 19 -63 19zM539 0v538h156v-538h-156z
" />
    <glyph glyph-name="fl" unicode="fl" horiz-adv-x="688" 
d="M314 627c-46 0 -71 -25 -71 -78v-23h138v-120h-134v-406h-156v406h-83v120h83v24c0 121 74 200 208 200c44 0 90 -9 119 -29l-41 -113c-17 12 -39 19 -63 19zM459 742h156v-742h-156v742z" />
    <glyph glyph-name=".notdef" horiz-adv-x="587" 
d="M40 0v700h507v-700h-507zM120 70h347v560h-347v-560z" />
    <glyph glyph-name="A" unicode="A" horiz-adv-x="766" 
d="M606 0l-62 150h-325l-62 -150h-166l312 700h160l313 -700h-170zM271 273h222l-111 268z" />
    <glyph glyph-name="Aacute" unicode="&#xc1;" horiz-adv-x="766" 
d="M595 901l-181 -144h-122l135 144h168zM606 0l-62 150h-325l-62 -150h-166l312 700h160l313 -700h-170zM271 273h222l-111 268z" />
    <glyph glyph-name="Abreve" unicode="&#x102;" horiz-adv-x="766" 
d="M383 749c-104 0 -180 58 -184 152h98c2 -43 39 -71 86 -71s84 28 86 71h98c-4 -94 -80 -152 -184 -152zM606 0l-62 150h-325l-62 -150h-166l312 700h160l313 -700h-170zM271 273h222l-111 268z" />
    <glyph glyph-name="uni1EAE" unicode="&#x1eae;" horiz-adv-x="766" 
d="M567 1022l-157 -121h-113l111 121h159zM383 749c-103 0 -177 47 -184 122h94c4 -28 40 -47 90 -47s86 19 90 47h94c-7 -75 -81 -122 -184 -122zM606 0l-62 150h-325l-62 -150h-166l312 700h160l313 -700h-170zM271 273h222l-111 268z" />
    <glyph glyph-name="uni1EB6" unicode="&#x1eb6;" horiz-adv-x="766" 
d="M383 749c-104 0 -180 58 -184 152h98c2 -43 39 -71 86 -71s84 28 86 71h98c-4 -94 -80 -152 -184 -152zM776 0h-170l-62 150h-325l-62 -150h-166l312 700h160zM271 273h222l-111 268zM383 -73c39 0 69 -29 69 -70s-30 -67 -69 -67s-69 26 -69 67s30 70 69 70z" />
    <glyph glyph-name="uni1EB0" unicode="&#x1eb0;" horiz-adv-x="766" 
d="M469 901h-112l-157 121h159zM383 749c-103 0 -177 47 -184 122h94c4 -28 40 -47 90 -47s86 19 90 47h94c-7 -75 -81 -122 -184 -122zM606 0l-62 150h-325l-62 -150h-166l312 700h160l313 -700h-170zM271 273h222l-111 268z" />
    <glyph glyph-name="uni1EB2" unicode="&#x1eb2;" horiz-adv-x="766" 
d="M373 981c-16 0 -29 -4 -44 -12l-26 48c23 15 53 22 83 22c56 0 92 -31 92 -79c0 -40 -31 -72 -70 -87l-38 37c27 13 37 29 37 42c0 18 -14 29 -34 29zM383 749c-103 0 -177 47 -184 122h94c4 -28 40 -47 90 -47s86 19 90 47h94c-7 -75 -81 -122 -184 -122zM606 0l-62 150
h-325l-62 -150h-166l312 700h160l313 -700h-170zM271 273h222l-111 268z" />
    <glyph glyph-name="uni1EB4" unicode="&#x1eb4;" horiz-adv-x="766" 
d="M319 951c-27 0 -42 -17 -44 -46h-80c1 80 45 125 116 125c67 0 103 -52 138 -52c27 0 42 19 44 45h78c-1 -77 -43 -124 -114 -124c-69 0 -105 52 -138 52zM383 824c50 0 86 19 90 47h94c-7 -75 -81 -122 -184 -122s-177 47 -184 122h94c4 -28 40 -47 90 -47zM606 0
l-62 150h-325l-62 -150h-166l312 700h160l313 -700h-170zM271 273h222l-111 268z" />
    <glyph glyph-name="uni01CD" unicode="&#x1cd;" horiz-adv-x="766" 
d="M452 757h-138l-132 144h114l87 -75l87 75h114zM606 0l-62 150h-325l-62 -150h-166l312 700h160l313 -700h-170zM271 273h222l-111 268z" />
    <glyph glyph-name="Acircumflex" unicode="&#xc2;" horiz-adv-x="766" 
d="M383 833l-87 -76h-114l132 144h138l132 -144h-114zM606 0l-62 150h-325l-62 -150h-166l312 700h160l313 -700h-170zM271 273h222l-111 268z" />
    <glyph glyph-name="uni1EA4" unicode="&#x1ea4;" horiz-adv-x="766" 
d="M773 974l-157 -121h-113l111 121h159zM383 814l-86 -57h-115l133 114h136l133 -114h-115zM606 0l-62 150h-325l-62 -150h-166l312 700h160l313 -700h-170zM271 273h222l-111 268z" />
    <glyph glyph-name="uni1EAC" unicode="&#x1eac;" horiz-adv-x="766" 
d="M383 833l-87 -76h-114l132 144h138l132 -144h-114zM776 0h-170l-62 150h-325l-62 -150h-166l312 700h160zM271 273h222l-111 268zM383 -73c39 0 69 -29 69 -70s-30 -67 -69 -67s-69 26 -69 67s30 70 69 70z" />
    <glyph glyph-name="uni1EA6" unicode="&#x1ea6;" horiz-adv-x="766" 
d="M675 853h-112l-157 121h159zM383 814l-86 -57h-115l133 114h136l133 -114h-115zM606 0l-62 150h-325l-62 -150h-166l312 700h160l313 -700h-170zM271 273h222l-111 268z" />
    <glyph glyph-name="uni1EA8" unicode="&#x1ea8;" horiz-adv-x="766" 
d="M526 942c-16 0 -29 -4 -44 -12l-26 48c23 15 53 22 83 22c56 0 92 -31 92 -79c0 -40 -31 -72 -70 -87l-38 37c27 13 37 29 37 42c0 18 -14 29 -34 29zM383 814l-86 -57h-115l133 114h136l133 -114h-115zM606 0l-62 150h-325l-62 -150h-166l312 700h160l313 -700h-170z
M271 273h222l-111 268z" />
    <glyph glyph-name="uni1EAA" unicode="&#x1eaa;" horiz-adv-x="766" 
d="M319 958c-27 0 -42 -17 -44 -46h-80c1 80 45 125 116 125c67 0 103 -52 138 -52c27 0 42 19 44 45h78c-1 -77 -43 -124 -114 -124c-69 0 -105 52 -138 52zM383 814l-86 -57h-115l133 114h136l133 -114h-115zM606 0l-62 150h-325l-62 -150h-166l312 700h160l313 -700h-170
zM271 273h222l-111 268z" />
    <glyph glyph-name="uni0200" unicode="&#x200;" horiz-adv-x="766" 
d="M339 757h-114l-104 144h146zM541 757h-114l-104 144h146zM606 0l-62 150h-325l-62 -150h-166l312 700h160l313 -700h-170zM271 273h222l-111 268z" />
    <glyph glyph-name="Adieresis" unicode="&#xc4;" horiz-adv-x="766" 
d="M282 762c-39 0 -70 28 -70 69s31 69 70 69s69 -28 69 -69s-30 -69 -69 -69zM484 762c-39 0 -69 28 -69 69s30 69 69 69s70 -28 70 -69s-31 -69 -70 -69zM606 0l-62 150h-325l-62 -150h-166l312 700h160l313 -700h-170zM271 273h222l-111 268z" />
    <glyph glyph-name="uni1EA0" unicode="&#x1ea0;" horiz-adv-x="766" 
d="M776 0h-170l-62 150h-325l-62 -150h-166l312 700h160zM271 273h222l-111 268zM383 -73c39 0 69 -29 69 -70s-30 -67 -69 -67s-69 26 -69 67s30 70 69 70z" />
    <glyph glyph-name="Agrave" unicode="&#xc0;" horiz-adv-x="766" 
d="M474 757h-122l-181 144h168zM606 0l-62 150h-325l-62 -150h-166l312 700h160l313 -700h-170zM271 273h222l-111 268z" />
    <glyph glyph-name="uni1EA2" unicode="&#x1ea2;" horiz-adv-x="766" 
d="M368 902c-20 0 -39 -6 -59 -19l-32 63c29 23 68 34 108 34c71 0 120 -43 120 -107c0 -57 -31 -98 -92 -126l-49 52c39 18 51 38 51 61c0 25 -19 42 -47 42zM606 0l-62 150h-325l-62 -150h-166l312 700h160l313 -700h-170zM271 273h222l-111 268z" />
    <glyph glyph-name="uni0202" unicode="&#x202;" horiz-adv-x="766" 
d="M383 828c-47 0 -84 -27 -86 -71h-98c4 94 80 152 184 152s180 -58 184 -152h-98c-2 44 -39 71 -86 71zM606 0l-62 150h-325l-62 -150h-166l312 700h160l313 -700h-170zM271 273h222l-111 268z" />
    <glyph glyph-name="Amacron" unicode="&#x100;" horiz-adv-x="766" 
d="M568 873v-88h-370v88h370zM606 0l-62 150h-325l-62 -150h-166l312 700h160l313 -700h-170zM271 273h222l-111 268z" />
    <glyph glyph-name="Aogonek" unicode="&#x104;" horiz-adv-x="766" 
d="M777 -138l22 -71c-24 -13 -63 -23 -101 -23c-87 0 -138 45 -138 112c0 44 23 85 73 120h-27l-62 150h-325l-62 -150h-166l312 700h160l313 -700c-86 -38 -117 -70 -117 -107c0 -28 22 -46 57 -46c22 0 45 6 61 15zM271 273h222l-111 268z" />
    <glyph glyph-name="Aring" unicode="&#xc5;" horiz-adv-x="766" 
d="M382 754c-70 0 -123 53 -123 121c0 67 53 121 123 121c71 0 125 -54 125 -121c0 -68 -54 -121 -125 -121zM382 936c-33 0 -60 -26 -60 -61s26 -61 60 -61c35 0 61 26 61 61s-26 61 -61 61zM606 0l-62 150h-325l-62 -150h-166l312 700h160l313 -700h-170zM271 273h222
l-111 268z" />
    <glyph glyph-name="Aringacute" unicode="&#x1fa;" horiz-adv-x="766" 
d="M382 754c-70 0 -123 53 -123 121c0 67 53 121 123 121c19 0 36 -4 52 -10l87 90l77 -60l-108 -78c11 -19 17 -40 17 -63c0 -68 -54 -121 -125 -121zM382 936c-33 0 -60 -26 -60 -61s26 -61 60 -61c35 0 61 26 61 61s-26 61 -61 61zM606 0l-62 150h-325l-62 -150h-166
l312 700h160l313 -700h-170zM271 273h222l-111 268z" />
    <glyph glyph-name="Atilde" unicode="&#xc3;" horiz-adv-x="766" 
d="M318 817c-27 0 -46 -20 -48 -56h-79c2 89 47 146 117 146c69 0 104 -64 140 -64c27 0 46 21 48 54h79c-2 -86 -47 -143 -117 -143c-69 0 -104 63 -140 63zM606 0l-62 150h-325l-62 -150h-166l312 700h160l313 -700h-170zM271 273h222l-111 268z" />
    <glyph glyph-name="AE" unicode="&#xc6;" horiz-adv-x="1080" 
d="M653 130h381v-130h-542v150h-253l-82 -150h-166l395 700h635v-130h-368v-152h326v-126h-326v-162zM306 273h186v297h-23z" />
    <glyph glyph-name="AEacute" unicode="&#x1fc;" horiz-adv-x="1080" 
d="M784 901l-181 -144h-122l135 144h168zM653 130h381v-130h-542v150h-253l-82 -150h-166l395 700h635v-130h-368v-152h326v-126h-326v-162zM306 273h186v297h-23z" />
    <glyph glyph-name="B" unicode="B" horiz-adv-x="765" 
d="M597 364c78 -25 128 -85 128 -173c0 -121 -96 -191 -280 -191h-362v700h342c175 0 265 -73 265 -182c0 -70 -36 -124 -93 -154zM405 578h-161v-165h161c79 0 122 28 122 83s-43 82 -122 82zM433 122c84 0 129 26 129 86c0 59 -45 87 -129 87h-189v-173h189z" />
    <glyph glyph-name="C" unicode="C" horiz-adv-x="733" 
d="M418 -12c-217 0 -379 151 -379 362s162 362 380 362c121 0 222 -44 288 -124l-104 -96c-47 54 -106 82 -176 82c-131 0 -224 -92 -224 -224s93 -224 224 -224c70 0 129 28 176 83l104 -96c-66 -81 -167 -125 -289 -125z" />
    <glyph glyph-name="Cacute" unicode="&#x106;" horiz-adv-x="733" 
d="M323 757l135 144h168l-181 -144h-122zM418 -12c-217 0 -379 151 -379 362s162 362 380 362c121 0 222 -44 288 -124l-104 -96c-47 54 -106 82 -176 82c-131 0 -224 -92 -224 -224s93 -224 224 -224c70 0 129 28 176 83l104 -96c-66 -81 -167 -125 -289 -125z" />
    <glyph glyph-name="Ccaron" unicode="&#x10c;" horiz-adv-x="733" 
d="M483 757h-138l-132 144h114l87 -75l87 75h114zM427 126c70 0 129 28 176 83l104 -96c-66 -81 -167 -125 -289 -125c-217 0 -379 151 -379 362s162 362 380 362c121 0 222 -44 288 -124l-104 -96c-47 54 -106 82 -176 82c-131 0 -224 -92 -224 -224s93 -224 224 -224z" />
    <glyph glyph-name="Ccedilla" unicode="&#xc7;" horiz-adv-x="733" 
d="M427 126c70 0 129 28 176 83l104 -96c-63 -78 -159 -121 -274 -125l-9 -38c61 -7 87 -42 87 -83c0 -61 -58 -99 -147 -99c-35 0 -70 8 -93 21l24 67c19 -9 41 -15 65 -15c37 0 52 13 52 32c0 17 -14 29 -49 29h-34l22 91c-182 28 -312 168 -312 357
c0 211 162 362 380 362c121 0 222 -44 288 -124l-104 -96c-47 54 -106 82 -176 82c-131 0 -224 -92 -224 -224s93 -224 224 -224z" />
    <glyph glyph-name="uni1E08" unicode="&#x1e08;" horiz-adv-x="733" 
d="M626 901l-181 -144h-122l135 144h168zM427 126c70 0 129 28 176 83l104 -96c-63 -78 -159 -121 -274 -125l-9 -38c61 -7 87 -42 87 -83c0 -61 -58 -99 -147 -99c-35 0 -70 8 -93 21l24 67c19 -9 41 -15 65 -15c37 0 52 13 52 32c0 17 -14 29 -49 29h-34l22 91
c-182 28 -312 168 -312 357c0 211 162 362 380 362c121 0 222 -44 288 -124l-104 -96c-47 54 -106 82 -176 82c-131 0 -224 -92 -224 -224s93 -224 224 -224z" />
    <glyph glyph-name="Ccircumflex" unicode="&#x108;" horiz-adv-x="733" 
d="M414 833l-87 -76h-114l132 144h138l132 -144h-114zM427 126c70 0 129 28 176 83l104 -96c-66 -81 -167 -125 -289 -125c-217 0 -379 151 -379 362s162 362 380 362c121 0 222 -44 288 -124l-104 -96c-47 54 -106 82 -176 82c-131 0 -224 -92 -224 -224s93 -224 224 -224z
" />
    <glyph glyph-name="Cdotaccent" unicode="&#x10a;" horiz-adv-x="733" 
d="M414 762c-49 0 -84 36 -84 85c0 48 35 84 84 84s84 -36 84 -84c0 -49 -35 -85 -84 -85zM418 -12c-217 0 -379 151 -379 362s162 362 380 362c121 0 222 -44 288 -124l-104 -96c-47 54 -106 82 -176 82c-131 0 -224 -92 -224 -224s93 -224 224 -224c70 0 129 28 176 83
l104 -96c-66 -81 -167 -125 -289 -125z" />
    <glyph glyph-name="D" unicode="D" horiz-adv-x="826" 
d="M83 0v700h318c229 0 386 -138 386 -350s-157 -350 -386 -350h-318zM245 133h148c139 0 230 83 230 217s-91 217 -230 217h-148v-434z" />
    <glyph glyph-name="uni01C4" unicode="&#x1c4;" horiz-adv-x="1449" 
d="M1190 757h-138l-132 144h114l87 -75l87 75h114zM401 700c229 0 386 -138 386 -350s-157 -350 -386 -350h-318v700h318zM1029 132h398v-132h-612v105l384 463h-376v132h589v-105zM393 133c139 0 230 83 230 217s-91 217 -230 217h-148v-434h148z" />
    <glyph glyph-name="Eth" unicode="&#xd0;" horiz-adv-x="839" 
d="M414 700c229 0 386 -138 386 -350s-157 -350 -386 -350h-318v302h-95v108h95v290h318zM406 133c139 0 230 83 230 217s-91 217 -230 217h-148v-157h175v-108h-175v-169h148z" />
    <glyph glyph-name="Dcaron" unicode="&#x10e;" horiz-adv-x="826" 
d="M439 756h-138l-132 144h114l87 -75l87 75h114zM401 700c229 0 386 -138 386 -350s-157 -350 -386 -350h-318v700h318zM393 133c139 0 230 83 230 217s-91 217 -230 217h-148v-434h148z" />
    <glyph glyph-name="Dcroat" unicode="&#x110;" horiz-adv-x="839" 
d="M414 700c229 0 386 -138 386 -350s-157 -350 -386 -350h-318v302h-95v108h95v290h318zM406 133c139 0 230 83 230 217s-91 217 -230 217h-148v-157h175v-108h-175v-169h148z" />
    <glyph glyph-name="uni1E0C" unicode="&#x1e0c;" horiz-adv-x="826" 
d="M83 0v700h318c229 0 386 -138 386 -350s-157 -350 -386 -350h-318zM245 133h148c139 0 230 83 230 217s-91 217 -230 217h-148v-434zM373 -210c-39 0 -69 26 -69 67s30 70 69 70s69 -29 69 -70s-30 -67 -69 -67z" />
    <glyph glyph-name="uni1E0E" unicode="&#x1e0e;" horiz-adv-x="826" 
d="M83 0v700h318c229 0 386 -138 386 -350s-157 -350 -386 -350h-318zM245 133h148c139 0 230 83 230 217s-91 217 -230 217h-148v-434zM188 -182v87h370v-87h-370z" />
    <glyph glyph-name="uni01C5" unicode="&#x1c5;" horiz-adv-x="1369" 
d="M1170 607h-138l-132 144h114l87 -75l87 75h114zM401 700c229 0 386 -138 386 -350s-157 -350 -386 -350h-318v700h318zM393 133c139 0 230 83 230 217s-91 217 -230 217h-148v-434h148zM1058 120h283v-120h-480v94l274 324h-267v120h464v-94z" />
    <glyph glyph-name="E" unicode="E" horiz-adv-x="671" 
d="M244 130h381v-130h-542v700h529v-130h-368v-152h325v-126h-325v-162z" />
    <glyph glyph-name="Eacute" unicode="&#xc9;" horiz-adv-x="671" 
d="M560 901l-181 -144h-122l135 144h168zM244 130h381v-130h-542v700h529v-130h-368v-152h325v-126h-325v-162z" />
    <glyph glyph-name="Ebreve" unicode="&#x114;" horiz-adv-x="671" 
d="M348 749c-104 0 -180 58 -184 152h98c2 -43 39 -71 86 -71s84 28 86 71h98c-4 -94 -80 -152 -184 -152zM244 130h381v-130h-542v700h529v-130h-368v-152h325v-126h-325v-162z" />
    <glyph glyph-name="Ecaron" unicode="&#x11a;" horiz-adv-x="671" 
d="M417 757h-138l-132 144h114l87 -75l87 75h114zM244 130h381v-130h-542v700h529v-130h-368v-152h325v-126h-325v-162z" />
    <glyph glyph-name="uni1E1C" unicode="&#x1e1c;" horiz-adv-x="671" 
d="M348 749c-104 0 -180 58 -184 152h98c2 -43 39 -71 86 -71s84 28 86 71h98c-4 -94 -80 -152 -184 -152zM625 0h-233l-12 -50c61 -7 87 -42 87 -83c0 -61 -58 -99 -147 -99c-35 0 -70 8 -93 21l24 67c19 -9 41 -15 65 -15c37 0 52 13 52 32c0 17 -14 29 -49 29h-34l24 98
h-226v700h529v-130h-368v-152h325v-126h-325v-162h381v-130z" />
    <glyph glyph-name="Ecircumflex" unicode="&#xca;" horiz-adv-x="671" 
d="M348 833l-87 -76h-114l132 144h138l132 -144h-114zM244 130h381v-130h-542v700h529v-130h-368v-152h325v-126h-325v-162z" />
    <glyph glyph-name="uni1EBE" unicode="&#x1ebe;" horiz-adv-x="671" 
d="M738 974l-157 -121h-113l111 121h159zM348 814l-86 -57h-115l133 114h136l133 -114h-115zM244 292v-162h381v-130h-542v700h529v-130h-368v-152h325v-126h-325z" />
    <glyph glyph-name="uni1EC6" unicode="&#x1ec6;" horiz-adv-x="671" 
d="M348 833l-87 -76h-114l132 144h138l132 -144h-114zM244 130h381v-130h-542v700h529v-130h-368v-152h325v-126h-325v-162zM353 -73c39 0 69 -29 69 -70s-30 -67 -69 -67s-69 26 -69 67s30 70 69 70z" />
    <glyph glyph-name="uni1EC0" unicode="&#x1ec0;" horiz-adv-x="671" 
d="M640 853h-112l-157 121h159zM348 814l-86 -57h-115l133 114h136l133 -114h-115zM244 292v-162h381v-130h-542v700h529v-130h-368v-152h325v-126h-325z" />
    <glyph glyph-name="uni1EC2" unicode="&#x1ec2;" horiz-adv-x="671" 
d="M491 942c-16 0 -29 -4 -44 -12l-26 48c23 15 53 22 83 22c56 0 92 -31 92 -79c0 -40 -31 -72 -70 -87l-38 37c27 13 37 29 37 42c0 18 -14 29 -34 29zM348 814l-86 -57h-115l133 114h136l133 -114h-115zM244 130h381v-130h-542v700h529v-130h-368v-152h325v-126h-325
v-162z" />
    <glyph glyph-name="uni1EC4" unicode="&#x1ec4;" horiz-adv-x="671" 
d="M284 958c-27 0 -42 -17 -44 -46h-80c1 80 45 125 116 125c67 0 103 -52 138 -52c27 0 42 19 44 45h78c-1 -77 -43 -124 -114 -124c-69 0 -105 52 -138 52zM348 814l-86 -57h-115l133 114h136l133 -114h-115zM244 130h381v-130h-542v700h529v-130h-368v-152h325v-126h-325
v-162z" />
    <glyph glyph-name="uni0204" unicode="&#x204;" horiz-adv-x="671" 
d="M304 757h-114l-104 144h146zM506 757h-114l-104 144h146zM244 130h381v-130h-542v700h529v-130h-368v-152h325v-126h-325v-162z" />
    <glyph glyph-name="Edieresis" unicode="&#xcb;" horiz-adv-x="671" 
d="M247 762c-39 0 -70 28 -70 69s31 69 70 69s69 -28 69 -69s-30 -69 -69 -69zM449 762c-39 0 -69 28 -69 69s30 69 69 69s70 -28 70 -69s-31 -69 -70 -69zM244 130h381v-130h-542v700h529v-130h-368v-152h325v-126h-325v-162z" />
    <glyph glyph-name="Edotaccent" unicode="&#x116;" horiz-adv-x="671" 
d="M348 762c-49 0 -84 36 -84 85c0 48 35 84 84 84s84 -36 84 -84c0 -49 -35 -85 -84 -85zM244 130h381v-130h-542v700h529v-130h-368v-152h325v-126h-325v-162z" />
    <glyph glyph-name="uni1EB8" unicode="&#x1eb8;" horiz-adv-x="671" 
d="M244 130h381v-130h-542v700h529v-130h-368v-152h325v-126h-325v-162zM353 -73c39 0 69 -29 69 -70s-30 -67 -69 -67s-69 26 -69 67s30 70 69 70z" />
    <glyph glyph-name="Egrave" unicode="&#xc8;" horiz-adv-x="671" 
d="M439 757h-122l-181 144h168zM244 130h381v-130h-542v700h529v-130h-368v-152h325v-126h-325v-162z" />
    <glyph glyph-name="uni1EBA" unicode="&#x1eba;" horiz-adv-x="671" 
d="M333 902c-20 0 -39 -6 -59 -19l-32 63c29 23 68 34 108 34c71 0 120 -43 120 -107c0 -57 -31 -98 -92 -126l-49 52c39 18 51 38 51 61c0 25 -19 42 -47 42zM244 130h381v-130h-542v700h529v-130h-368v-152h325v-126h-325v-162z" />
    <glyph glyph-name="uni0206" unicode="&#x206;" horiz-adv-x="671" 
d="M348 828c-47 0 -84 -27 -86 -71h-98c4 94 80 152 184 152s180 -58 184 -152h-98c-2 44 -39 71 -86 71zM244 130h381v-130h-542v700h529v-130h-368v-152h325v-126h-325v-162z" />
    <glyph glyph-name="Emacron" unicode="&#x112;" horiz-adv-x="671" 
d="M533 873v-88h-370v88h370zM244 130h381v-130h-542v700h529v-130h-368v-152h325v-126h-325v-162z" />
    <glyph glyph-name="uni1E16" unicode="&#x1e16;" horiz-adv-x="671" 
d="M532 1039l-157 -121h-113l111 121h159zM533 856v-83h-370v83h370zM244 130h381v-130h-542v700h529v-130h-368v-152h325v-126h-325v-162z" />
    <glyph glyph-name="uni1E14" unicode="&#x1e14;" horiz-adv-x="671" 
d="M434 918h-112l-157 121h159zM533 856v-83h-370v83h370zM244 130h381v-130h-542v700h529v-130h-368v-152h325v-126h-325v-162z" />
    <glyph glyph-name="Eogonek" unicode="&#x118;" horiz-adv-x="671" 
d="M626 -138l22 -71c-24 -13 -63 -23 -101 -23c-87 0 -138 45 -138 112c0 44 23 85 73 120h-399v700h529v-130h-368v-152h325v-126h-325v-162h381v-130c-86 -38 -117 -70 -117 -107c0 -28 22 -46 57 -46c22 0 45 6 61 15z" />
    <glyph glyph-name="uni1EBC" unicode="&#x1ebc;" horiz-adv-x="671" 
d="M283 817c-27 0 -46 -20 -48 -56h-79c2 89 47 146 117 146c69 0 104 -64 140 -64c27 0 46 21 48 54h79c-2 -86 -47 -143 -117 -143c-69 0 -104 63 -140 63zM244 130h381v-130h-542v700h529v-130h-368v-152h325v-126h-325v-162z" />
    <glyph glyph-name="uni01B7" unicode="&#x1b7;" horiz-adv-x="638" 
d="M395 416c136 -20 206 -97 206 -201c0 -120 -94 -227 -302 -227c-103 0 -209 27 -274 74l55 125c56 -41 136 -65 214 -65c89 0 143 34 143 92c0 54 -44 88 -142 88h-75v105l156 164h-322v129h511v-105z" />
    <glyph glyph-name="uni01EE" unicode="&#x1ee;" horiz-adv-x="638" 
d="M379 757h-138l-132 144h114l87 -75l87 75h114zM395 416c136 -20 206 -97 206 -201c0 -120 -94 -227 -302 -227c-103 0 -209 27 -274 74l55 125c56 -41 136 -65 214 -65c89 0 143 34 143 92c0 54 -44 88 -142 88h-75v105l156 164h-322v129h511v-105z" />
    <glyph glyph-name="F" unicode="F" horiz-adv-x="639" 
d="M612 570h-367v-185h324v-130h-324v-255h-162v700h529v-130z" />
    <glyph glyph-name="G" unicode="G" horiz-adv-x="771" 
d="M556 156v205h148v-284c-77 -58 -183 -89 -283 -89c-220 0 -382 151 -382 362s162 362 385 362c123 0 225 -42 293 -121l-104 -96c-51 54 -110 79 -181 79c-136 0 -229 -91 -229 -224c0 -131 93 -224 227 -224c44 0 85 8 126 30z" />
    <glyph glyph-name="Gbreve" unicode="&#x11e;" horiz-adv-x="771" 
d="M417 749c-104 0 -180 58 -184 152h98c2 -43 39 -71 86 -71s84 28 86 71h98c-4 -94 -80 -152 -184 -152zM556 156v205h148v-284c-77 -58 -183 -89 -283 -89c-220 0 -382 151 -382 362s162 362 385 362c123 0 225 -42 293 -121l-104 -96c-51 54 -110 79 -181 79
c-136 0 -229 -91 -229 -224c0 -131 93 -224 227 -224c44 0 85 8 126 30z" />
    <glyph glyph-name="Gcaron" unicode="&#x1e6;" horiz-adv-x="771" 
d="M486 757h-138l-132 144h114l87 -75l87 75h114zM556 156v205h148v-284c-77 -58 -183 -89 -283 -89c-220 0 -382 151 -382 362s162 362 385 362c123 0 225 -42 293 -121l-104 -96c-51 54 -110 79 -181 79c-136 0 -229 -91 -229 -224c0 -131 93 -224 227 -224
c44 0 85 8 126 30z" />
    <glyph glyph-name="Gcircumflex" unicode="&#x11c;" horiz-adv-x="771" 
d="M417 833l-87 -76h-114l132 144h138l132 -144h-114zM556 156v205h148v-284c-77 -58 -183 -89 -283 -89c-220 0 -382 151 -382 362s162 362 385 362c123 0 225 -42 293 -121l-104 -96c-51 54 -110 79 -181 79c-136 0 -229 -91 -229 -224c0 -131 93 -224 227 -224
c44 0 85 8 126 30z" />
    <glyph glyph-name="Gcommaaccent" unicode="&#x122;" horiz-adv-x="771" 
d="M556 156v205h148v-284c-77 -58 -183 -89 -283 -89c-220 0 -382 151 -382 362s162 362 385 362c123 0 225 -42 293 -121l-104 -96c-51 54 -110 79 -181 79c-136 0 -229 -91 -229 -224c0 -131 93 -224 227 -224c44 0 85 8 126 30zM407 -73c43 0 69 -25 69 -60
c0 -16 -3 -37 -18 -65l-35 -68h-73l25 80c-24 8 -37 27 -37 53c0 35 26 60 69 60z" />
    <glyph glyph-name="Gdotaccent" unicode="&#x120;" horiz-adv-x="771" 
d="M417 762c-49 0 -84 36 -84 85c0 48 35 84 84 84s84 -36 84 -84c0 -49 -35 -85 -84 -85zM556 156v205h148v-284c-77 -58 -183 -89 -283 -89c-220 0 -382 151 -382 362s162 362 385 362c123 0 225 -42 293 -121l-104 -96c-51 54 -110 79 -181 79c-136 0 -229 -91 -229 -224
c0 -131 93 -224 227 -224c44 0 85 8 126 30z" />
    <glyph glyph-name="uni1E20" unicode="&#x1e20;" horiz-adv-x="771" 
d="M602 873v-88h-370v88h370zM556 156v205h148v-284c-77 -58 -183 -89 -283 -89c-220 0 -382 151 -382 362s162 362 385 362c123 0 225 -42 293 -121l-104 -96c-51 54 -110 79 -181 79c-136 0 -229 -91 -229 -224c0 -131 93 -224 227 -224c44 0 85 8 126 30z" />
    <glyph glyph-name="uni01E4" unicode="&#x1e4;" horiz-adv-x="811" 
d="M792 305v-107h-88v-121c-77 -58 -183 -89 -283 -89c-220 0 -382 151 -382 362s162 362 385 362c123 0 225 -42 293 -121l-104 -96c-51 54 -110 79 -181 79c-136 0 -229 -91 -229 -224c0 -131 93 -224 227 -224c44 0 85 8 126 30v42h-163v107h163v56h148v-56h88z" />
    <glyph glyph-name="H" unicode="H" horiz-adv-x="808" 
d="M563 700h162v-700h-162v287h-318v-287h-162v700h162v-276h318v276z" />
    <glyph glyph-name="Hbar" unicode="&#x126;" horiz-adv-x="834" 
d="M833 618v-108h-95v-510h-162v287h-318v-287h-162v510h-95v108h95v82h162v-82h318v82h162v-82h95zM576 424v86h-318v-86h318z" />
    <glyph glyph-name="uni1E2A" unicode="&#x1e2a;" horiz-adv-x="808" 
d="M563 700h162v-700h-162v287h-318v-287h-162v700h162v-276h318v276zM404 -141c51 0 89 26 91 67h93c-5 -86 -80 -143 -184 -143s-179 57 -184 143h93c2 -41 40 -67 91 -67z" />
    <glyph glyph-name="uni021E" unicode="&#x21e;" horiz-adv-x="808" 
d="M473 757h-138l-132 144h114l87 -75l87 75h114zM563 700h162v-700h-162v287h-318v-287h-162v700h162v-276h318v276z" />
    <glyph glyph-name="Hcircumflex" unicode="&#x124;" horiz-adv-x="808" 
d="M404 833l-87 -76h-114l132 144h138l132 -144h-114zM563 700h162v-700h-162v287h-318v-287h-162v700h162v-276h318v276z" />
    <glyph glyph-name="uni1E24" unicode="&#x1e24;" horiz-adv-x="808" 
d="M563 700h162v-700h-162v287h-318v-287h-162v700h162v-276h318v276zM404 -73c39 0 69 -29 69 -70s-30 -67 -69 -67s-69 26 -69 67s30 70 69 70z" />
    <glyph glyph-name="I" unicode="I" horiz-adv-x="328" 
d="M83 0v700h162v-700h-162z" />
    <glyph glyph-name="IJ" unicode="&#x132;" horiz-adv-x="724" 
d="M327 -12c-106 0 -199 31 -266 77l61 122c62 -41 134 -63 202 -63c106 0 161 58 161 183v393h162v-385c0 -213 -127 -327 -320 -327zM77 322v378h162v-378h-162z" />
    <glyph glyph-name="Iacute" unicode="&#xcd;" horiz-adv-x="328" 
d="M73 757l135 144h168l-181 -144h-122zM83 0v700h162v-700h-162z" />
    <glyph glyph-name="Ibreve" unicode="&#x12c;" horiz-adv-x="328" 
d="M164 749c-104 0 -180 58 -184 152h98c2 -43 39 -71 86 -71s84 28 86 71h98c-4 -94 -80 -152 -184 -152zM83 0v700h162v-700h-162z" />
    <glyph glyph-name="Icircumflex" unicode="&#xce;" horiz-adv-x="328" 
d="M233 901l132 -144h-114l-87 76l-87 -76h-114l132 144h138zM83 0v700h162v-700h-162z" />
    <glyph glyph-name="uni0208" unicode="&#x208;" horiz-adv-x="328" 
d="M6 757l-104 144h146l72 -144h-114zM208 757l-104 144h146l72 -144h-114zM83 0v700h162v-700h-162z" />
    <glyph glyph-name="Idieresis" unicode="&#xcf;" horiz-adv-x="328" 
d="M63 762c-39 0 -70 28 -70 69s31 69 70 69s69 -28 69 -69s-30 -69 -69 -69zM265 762c-39 0 -69 28 -69 69s30 69 69 69s70 -28 70 -69s-31 -69 -70 -69zM83 0v700h162v-700h-162z" />
    <glyph glyph-name="uni1E2E" unicode="&#x1e2e;" horiz-adv-x="328" 
d="M78 918l111 121h159l-157 -121h-113zM66 762c-37 0 -66 27 -66 66c0 38 29 66 66 66c38 0 67 -28 67 -66c0 -39 -29 -66 -67 -66zM262 762c-36 0 -66 27 -66 66c0 38 30 66 66 66c37 0 66 -28 66 -66c0 -39 -29 -66 -66 -66zM83 0v700h162v-700h-162z" />
    <glyph glyph-name="Idotaccent" unicode="&#x130;" horiz-adv-x="328" 
d="M164 762c-49 0 -84 36 -84 85c0 48 35 84 84 84s84 -36 84 -84c0 -49 -35 -85 -84 -85zM83 0v700h162v-700h-162z" />
    <glyph glyph-name="uni1ECA" unicode="&#x1eca;" horiz-adv-x="328" 
d="M83 0v700h162v-700h-162zM164 -210c-39 0 -69 26 -69 67s30 70 69 70s69 -29 69 -70s-30 -67 -69 -67z" />
    <glyph glyph-name="Igrave" unicode="&#xcc;" horiz-adv-x="328" 
d="M133 757l-181 144h168l135 -144h-122zM83 0v700h162v-700h-162z" />
    <glyph glyph-name="uni1EC8" unicode="&#x1ec8;" horiz-adv-x="328" 
d="M194 747l-49 52c39 18 51 38 51 61c0 25 -19 42 -47 42c-20 0 -39 -6 -59 -19l-32 63c29 23 68 34 108 34c71 0 120 -43 120 -107c0 -57 -31 -98 -92 -126zM83 0v700h162v-700h-162z" />
    <glyph glyph-name="uni020A" unicode="&#x20a;" horiz-adv-x="328" 
d="M-20 757c4 94 80 152 184 152s180 -58 184 -152h-98c-2 44 -39 71 -86 71s-84 -27 -86 -71h-98zM83 0v700h162v-700h-162z" />
    <glyph glyph-name="Imacron" unicode="&#x12a;" horiz-adv-x="328" 
d="M14 785v88h300v-88h-300zM83 0v700h162v-700h-162z" />
    <glyph glyph-name="Iogonek" unicode="&#x12e;" horiz-adv-x="328" 
d="M254 -143l22 -68c-18 -13 -45 -21 -74 -21c-72 0 -120 44 -120 111c0 44 19 85 58 121h-57v700h162v-700c-51 -41 -65 -74 -65 -106c0 -29 19 -47 42 -47c11 0 22 3 32 10z" />
    <glyph glyph-name="Itilde" unicode="&#x128;" horiz-adv-x="328" 
d="M239 754c-69 0 -104 63 -140 63c-27 0 -46 -20 -48 -56h-79c2 89 47 146 117 146c69 0 104 -64 140 -64c27 0 46 21 48 54h79c-2 -86 -47 -143 -117 -143zM83 0v700h162v-700h-162z" />
    <glyph glyph-name="J" unicode="J" horiz-adv-x="541" 
d="M212 -12c-94 0 -177 36 -228 102l90 108c38 -51 80 -77 130 -77c65 0 99 39 99 116v333h-246v130h407v-454c0 -173 -87 -258 -252 -258z" />
    <glyph glyph-name="uni00A40301" horiz-adv-x="541" 
d="M170 757l135 144h168l-181 -144h-122zM212 -12c-94 0 -177 36 -228 102l90 108c38 -51 80 -77 130 -77c65 0 99 39 99 116v333h-246v130h407v-454c0 -173 -87 -258 -252 -258z" />
    <glyph glyph-name="Jcircumflex" unicode="&#x134;" horiz-adv-x="541" 
d="M261 833l-87 -76h-114l132 144h138l132 -144h-114zM57 700h407v-454c0 -173 -87 -258 -252 -258c-94 0 -177 36 -228 102l90 108c38 -51 80 -77 130 -77c65 0 99 39 99 116v333h-246v130z" />
    <glyph glyph-name="K" unicode="K" horiz-adv-x="740" 
d="M562 0l-224 275l-94 -98v-177h-161v700h161v-327l310 327h180l-290 -312l307 -388h-189z" />
    <glyph glyph-name="uni01E8" unicode="&#x1e8;" horiz-adv-x="740" 
d="M448 757h-138l-132 144h114l87 -75l87 75h114zM562 0l-224 275l-94 -98v-177h-161v700h161v-327l310 327h180l-290 -312l307 -388h-189z" />
    <glyph glyph-name="Kcommaaccent" unicode="&#x136;" horiz-adv-x="740" 
d="M444 388l307 -388h-189l-224 275l-94 -98v-177h-161v700h161v-327l310 327h180zM379 -73c43 0 69 -25 69 -60c0 -16 -3 -37 -18 -65l-35 -68h-73l25 80c-24 8 -37 27 -37 53c0 35 26 60 69 60z" />
    <glyph glyph-name="L" unicode="L" horiz-adv-x="604" 
d="M83 0v700h162v-568h351v-132h-513z" />
    <glyph glyph-name="uni01C7" unicode="&#x1c7;" horiz-adv-x="1145" 
d="M661 700h407v-454c0 -173 -87 -258 -252 -258c-89 0 -169 32 -220 92v-80h-513v700h162v-568h351v-32l82 98c38 -51 80 -77 130 -77c65 0 99 39 99 116v333h-246v130z" />
    <glyph glyph-name="Lacute" unicode="&#x139;" horiz-adv-x="604" 
d="M73 757l135 144h168l-181 -144h-122zM83 0v700h162v-568h351v-132h-513z" />
    <glyph glyph-name="Lcaron" unicode="&#x13d;" horiz-adv-x="604" 
d="M431 540v201h117l-20 -201h-97zM83 0v700h162v-568h351v-132h-513z" />
    <glyph glyph-name="Lcommaaccent" unicode="&#x13b;" horiz-adv-x="604" 
d="M245 132h351v-132h-513v700h162v-568zM351 -73c43 0 69 -25 69 -60c0 -16 -3 -37 -18 -65l-35 -68h-73l25 80c-24 8 -37 27 -37 53c0 35 26 60 69 60z" />
    <glyph glyph-name="Ldot" unicode="&#x13f;" horiz-adv-x="604" 
d="M83 0v700h162v-568h351v-132h-513zM467 329c-49 0 -85 36 -85 87c0 50 36 87 85 87s85 -37 85 -87c0 -51 -36 -87 -85 -87z" />
    <glyph glyph-name="uni1E36" unicode="&#x1e36;" horiz-adv-x="604" 
d="M83 0v700h162v-568h351v-132h-513zM351 -210c-39 0 -69 26 -69 67s30 70 69 70s69 -29 69 -70s-30 -67 -69 -67z" />
    <glyph glyph-name="uni01C8" unicode="&#x1c8;" horiz-adv-x="911" 
d="M761 613c-58 0 -97 38 -97 87s39 87 97 87s97 -36 97 -84c0 -52 -39 -90 -97 -90zM83 0v700h162v-568h351v-132h-513zM636 -202c-48 0 -95 9 -125 30l42 113c17 -12 40 -19 66 -19c39 0 64 25 64 78v538h156v-537c0 -124 -73 -203 -203 -203z" />
    <glyph glyph-name="uni1E3A" unicode="&#x1e3a;" horiz-adv-x="604" 
d="M83 0v700h162v-568h351v-132h-513zM166 -182v87h370v-87h-370z" />
    <glyph glyph-name="Lslash" unicode="&#x141;" horiz-adv-x="617" 
d="M258 132h351v-132h-513v265l-52 -39l-58 78l110 83v313h162v-192l104 78l58 -78l-162 -121v-255z" />
    <glyph glyph-name="M" unicode="M" horiz-adv-x="955" 
d="M872 0h-152l-1 420l-206 -346h-73l-205 337v-411h-152v700h134l262 -435l258 435h133z" />
    <glyph glyph-name="uni1E42" unicode="&#x1e42;" horiz-adv-x="955" 
d="M872 0h-152l-1 420l-206 -346h-73l-205 337v-411h-152v700h134l262 -435l258 435h133zM477 -73c39 0 69 -29 69 -70s-30 -67 -69 -67s-69 26 -69 67s30 70 69 70z" />
    <glyph glyph-name="N" unicode="N" horiz-adv-x="808" 
d="M565 700h160v-700h-133l-349 425v-425h-160v700h134l348 -425v425z" />
    <glyph glyph-name="uni01CA" unicode="&#x1ca;" horiz-adv-x="1349" 
d="M565 275v425h160v-700h-133l-349 425v-425h-160v700h134zM865 700h407v-454c0 -173 -87 -258 -252 -258c-94 0 -177 36 -228 102l90 108c38 -51 80 -77 130 -77c65 0 99 39 99 116v333h-246v130z" />
    <glyph glyph-name="Nacute" unicode="&#x143;" horiz-adv-x="808" 
d="M616 901l-181 -144h-122l135 144h168zM565 700h160v-700h-133l-349 425v-425h-160v700h134l348 -425v425z" />
    <glyph glyph-name="Ncaron" unicode="&#x147;" horiz-adv-x="808" 
d="M473 757h-138l-132 144h114l87 -75l87 75h114zM565 700h160v-700h-133l-349 425v-425h-160v700h134l348 -425v425z" />
    <glyph glyph-name="Ncommaaccent" unicode="&#x145;" horiz-adv-x="808" 
d="M565 700h160v-700h-133l-349 425v-425h-160v700h134l348 -425v425zM404 -73c43 0 69 -25 69 -60c0 -16 -3 -37 -18 -65l-35 -68h-73l25 80c-24 8 -37 27 -37 53c0 35 26 60 69 60z" />
    <glyph glyph-name="uni1E44" unicode="&#x1e44;" horiz-adv-x="808" 
d="M404 762c-49 0 -84 36 -84 85c0 48 35 84 84 84s84 -36 84 -84c0 -49 -35 -85 -84 -85zM565 700h160v-700h-133l-349 425v-425h-160v700h134l348 -425v425z" />
    <glyph glyph-name="uni1E46" unicode="&#x1e46;" horiz-adv-x="808" 
d="M565 700h160v-700h-133l-349 425v-425h-160v700h134l348 -425v425zM404 -73c39 0 69 -29 69 -70s-30 -67 -69 -67s-69 26 -69 67s30 70 69 70z" />
    <glyph glyph-name="Eng" unicode="&#x14a;" horiz-adv-x="808" 
d="M565 700h160v-629c0 -188 -85 -273 -249 -273c-73 0 -139 22 -187 66l76 113c28 -30 62 -46 103 -46c61 0 93 34 97 102l-322 392v-425h-160v700h134l348 -425v425z" />
    <glyph glyph-name="uni01CB" unicode="&#x1cb;" horiz-adv-x="1115" 
d="M965 613c-58 0 -97 38 -97 87s39 87 97 87s97 -36 97 -84c0 -52 -39 -90 -97 -90zM725 0h-133l-349 425v-425h-160v700h134l348 -425v425h160v-700zM887 0v538h156v-537c0 -124 -73 -203 -203 -203c-48 0 -95 9 -125 30l42 113c17 -12 40 -19 66 -19c39 0 64 25 64 78z
" />
    <glyph glyph-name="uni1E48" unicode="&#x1e48;" horiz-adv-x="808" 
d="M565 700h160v-700h-133l-349 425v-425h-160v700h134l348 -425v425zM219 -182v87h370v-87h-370z" />
    <glyph glyph-name="Ntilde" unicode="&#xd1;" horiz-adv-x="808" 
d="M339 817c-27 0 -46 -20 -48 -56h-79c2 89 47 146 117 146c69 0 104 -64 140 -64c27 0 46 21 48 54h79c-2 -86 -47 -143 -117 -143c-69 0 -104 63 -140 63zM565 700h160v-700h-133l-349 425v-425h-160v700h134l348 -425v425z" />
    <glyph glyph-name="O" unicode="O" horiz-adv-x="844" 
d="M422 -12c-221 0 -383 154 -383 362s162 362 383 362c220 0 383 -153 383 -362s-163 -362 -383 -362zM422 126c125 0 219 91 219 224s-94 224 -219 224s-219 -91 -219 -224s94 -224 219 -224z" />
    <glyph glyph-name="Oacute" unicode="&#xd3;" horiz-adv-x="844" 
d="M331 757l135 144h168l-181 -144h-122zM422 -12c-221 0 -383 154 -383 362s162 362 383 362c220 0 383 -153 383 -362s-163 -362 -383 -362zM422 126c125 0 219 91 219 224s-94 224 -219 224s-219 -91 -219 -224s94 -224 219 -224z" />
    <glyph glyph-name="Obreve" unicode="&#x14e;" horiz-adv-x="844" 
d="M422 749c-104 0 -180 58 -184 152h98c2 -43 39 -71 86 -71s84 28 86 71h98c-4 -94 -80 -152 -184 -152zM422 -12c-221 0 -383 154 -383 362s162 362 383 362c220 0 383 -153 383 -362s-163 -362 -383 -362zM422 126c125 0 219 91 219 224s-94 224 -219 224
s-219 -91 -219 -224s94 -224 219 -224z" />
    <glyph glyph-name="Ocircumflex" unicode="&#xd4;" horiz-adv-x="844" 
d="M422 833l-87 -76h-114l132 144h138l132 -144h-114zM422 712c220 0 383 -153 383 -362s-163 -362 -383 -362c-221 0 -383 154 -383 362s162 362 383 362zM422 126c125 0 219 91 219 224s-94 224 -219 224s-219 -91 -219 -224s94 -224 219 -224z" />
    <glyph glyph-name="uni1ED0" unicode="&#x1ed0;" horiz-adv-x="844" 
d="M812 974l-157 -121h-113l111 121h159zM422 814l-86 -57h-115l133 114h136l133 -114h-115zM422 712c220 0 383 -153 383 -362s-163 -362 -383 -362c-221 0 -383 154 -383 362s162 362 383 362zM422 126c125 0 219 91 219 224s-94 224 -219 224s-219 -91 -219 -224
s94 -224 219 -224z" />
    <glyph glyph-name="uni1ED8" unicode="&#x1ed8;" horiz-adv-x="844" 
d="M422 833l-87 -76h-114l132 144h138l132 -144h-114zM422 712c220 0 383 -153 383 -362s-163 -362 -383 -362c-221 0 -383 154 -383 362s162 362 383 362zM422 126c125 0 219 91 219 224s-94 224 -219 224s-219 -91 -219 -224s94 -224 219 -224zM422 -73
c39 0 69 -29 69 -70s-30 -67 -69 -67s-69 26 -69 67s30 70 69 70z" />
    <glyph glyph-name="uni1ED2" unicode="&#x1ed2;" horiz-adv-x="844" 
d="M714 853h-112l-157 121h159zM422 814l-86 -57h-115l133 114h136l133 -114h-115zM422 712c220 0 383 -153 383 -362s-163 -362 -383 -362c-221 0 -383 154 -383 362s162 362 383 362zM422 126c125 0 219 91 219 224s-94 224 -219 224s-219 -91 -219 -224s94 -224 219 -224
z" />
    <glyph glyph-name="uni1ED4" unicode="&#x1ed4;" horiz-adv-x="844" 
d="M565 942c-16 0 -29 -4 -44 -12l-26 48c23 15 53 22 83 22c56 0 92 -31 92 -79c0 -40 -31 -72 -70 -87l-38 37c27 13 37 29 37 42c0 18 -14 29 -34 29zM422 814l-86 -57h-115l133 114h136l133 -114h-115zM422 712c220 0 383 -153 383 -362s-163 -362 -383 -362
c-221 0 -383 154 -383 362s162 362 383 362zM422 126c125 0 219 91 219 224s-94 224 -219 224s-219 -91 -219 -224s94 -224 219 -224z" />
    <glyph glyph-name="uni1ED6" unicode="&#x1ed6;" horiz-adv-x="844" 
d="M358 958c-27 0 -42 -17 -44 -46h-80c1 80 45 125 116 125c67 0 103 -52 138 -52c27 0 42 19 44 45h78c-1 -77 -43 -124 -114 -124c-69 0 -105 52 -138 52zM422 814l-86 -57h-115l133 114h136l133 -114h-115zM422 712c220 0 383 -153 383 -362s-163 -362 -383 -362
c-221 0 -383 154 -383 362s162 362 383 362zM422 126c125 0 219 91 219 224s-94 224 -219 224s-219 -91 -219 -224s94 -224 219 -224z" />
    <glyph glyph-name="uni020C" unicode="&#x20c;" horiz-adv-x="844" 
d="M264 757l-104 144h146l72 -144h-114zM466 757l-104 144h146l72 -144h-114zM422 -12c-221 0 -383 154 -383 362s162 362 383 362c220 0 383 -153 383 -362s-163 -362 -383 -362zM422 126c125 0 219 91 219 224s-94 224 -219 224s-219 -91 -219 -224s94 -224 219 -224z" />
    <glyph glyph-name="Odieresis" unicode="&#xd6;" horiz-adv-x="844" 
d="M321 762c-39 0 -70 28 -70 69s31 69 70 69s69 -28 69 -69s-30 -69 -69 -69zM523 762c-39 0 -69 28 -69 69s30 69 69 69s70 -28 70 -69s-31 -69 -70 -69zM422 -12c-221 0 -383 154 -383 362s162 362 383 362c220 0 383 -153 383 -362s-163 -362 -383 -362zM422 126
c125 0 219 91 219 224s-94 224 -219 224s-219 -91 -219 -224s94 -224 219 -224z" />
    <glyph glyph-name="uni022A" unicode="&#x22a;" horiz-adv-x="844" 
d="M237 934v83h370v-83h-370zM324 762c-37 0 -66 27 -66 66c0 38 29 66 66 66c38 0 67 -28 67 -66c0 -39 -29 -66 -67 -66zM520 762c-36 0 -66 27 -66 66c0 38 30 66 66 66c37 0 66 -28 66 -66c0 -39 -29 -66 -66 -66zM422 -12c-221 0 -383 154 -383 362s162 362 383 362
c220 0 383 -153 383 -362s-163 -362 -383 -362zM422 126c125 0 219 91 219 224s-94 224 -219 224s-219 -91 -219 -224s94 -224 219 -224z" />
    <glyph glyph-name="uni0230" unicode="&#x230;" horiz-adv-x="844" 
d="M237 941v83h370v-83h-370zM422 761c-39 0 -69 27 -69 68s30 69 69 69s69 -28 69 -69s-30 -68 -69 -68zM422 -12c-221 0 -383 154 -383 362s162 362 383 362c220 0 383 -153 383 -362s-163 -362 -383 -362zM422 126c125 0 219 91 219 224s-94 224 -219 224
s-219 -91 -219 -224s94 -224 219 -224z" />
    <glyph glyph-name="uni1ECC" unicode="&#x1ecc;" horiz-adv-x="844" 
d="M422 -12c-221 0 -383 154 -383 362s162 362 383 362c220 0 383 -153 383 -362s-163 -362 -383 -362zM422 126c125 0 219 91 219 224s-94 224 -219 224s-219 -91 -219 -224s94 -224 219 -224zM422 -210c-39 0 -69 26 -69 67s30 70 69 70s69 -29 69 -70s-30 -67 -69 -67z
" />
    <glyph glyph-name="Ograve" unicode="&#xd2;" horiz-adv-x="844" 
d="M391 757l-181 144h168l135 -144h-122zM422 -12c-221 0 -383 154 -383 362s162 362 383 362c220 0 383 -153 383 -362s-163 -362 -383 -362zM422 126c125 0 219 91 219 224s-94 224 -219 224s-219 -91 -219 -224s94 -224 219 -224z" />
    <glyph glyph-name="uni1ECE" unicode="&#x1ece;" horiz-adv-x="844" 
d="M452 747l-49 52c39 18 51 38 51 61c0 25 -19 42 -47 42c-20 0 -39 -6 -59 -19l-32 63c29 23 68 34 108 34c71 0 120 -43 120 -107c0 -57 -31 -98 -92 -126zM422 -12c-221 0 -383 154 -383 362s162 362 383 362c220 0 383 -153 383 -362s-163 -362 -383 -362zM422 126
c125 0 219 91 219 224s-94 224 -219 224s-219 -91 -219 -224s94 -224 219 -224z" />
    <glyph glyph-name="Ohorn" unicode="&#x1a0;" horiz-adv-x="844" 
d="M687 614c72 -61 118 -155 118 -264c0 -209 -163 -362 -383 -362c-221 0 -383 154 -383 362c0 209 163 362 390 362c75 0 133 -14 183 -14c51 0 82 23 82 66c0 23 -9 44 -20 60l92 34c19 -27 32 -61 32 -100c0 -75 -41 -124 -111 -144zM422 126c125 0 219 92 219 224
s-94 224 -219 224c-124 0 -219 -91 -219 -224s95 -224 219 -224z" />
    <glyph glyph-name="uni1EDA" unicode="&#x1eda;" horiz-adv-x="844" 
d="M634 901l-181 -144h-122l135 144h168zM687 614c72 -61 118 -155 118 -264c0 -209 -163 -362 -383 -362c-221 0 -383 154 -383 362c0 209 163 362 390 362c75 0 133 -14 183 -14c51 0 82 23 82 66c0 23 -9 44 -20 60l92 34c19 -27 32 -61 32 -100
c0 -75 -41 -124 -111 -144zM422 126c125 0 219 92 219 224s-94 224 -219 224c-124 0 -219 -91 -219 -224s95 -224 219 -224z" />
    <glyph glyph-name="uni1EE2" unicode="&#x1ee2;" horiz-adv-x="844" 
d="M687 614c72 -61 118 -155 118 -264c0 -209 -163 -362 -383 -362c-221 0 -383 154 -383 362c0 209 163 362 390 362c75 0 133 -14 183 -14c51 0 82 23 82 66c0 23 -9 44 -20 60l92 34c19 -27 32 -61 32 -100c0 -75 -41 -124 -111 -144zM422 126c125 0 219 92 219 224
s-94 224 -219 224c-124 0 -219 -91 -219 -224s95 -224 219 -224zM422 -73c39 0 69 -29 69 -70s-30 -67 -69 -67s-69 26 -69 67s30 70 69 70z" />
    <glyph glyph-name="uni1EDC" unicode="&#x1edc;" horiz-adv-x="844" 
d="M513 757h-122l-181 144h168zM687 614c72 -61 118 -155 118 -264c0 -209 -163 -362 -383 -362c-221 0 -383 154 -383 362c0 209 163 362 390 362c75 0 133 -14 183 -14c51 0 82 23 82 66c0 23 -9 44 -20 60l92 34c19 -27 32 -61 32 -100c0 -75 -41 -124 -111 -144z
M422 126c125 0 219 92 219 224s-94 224 -219 224c-124 0 -219 -91 -219 -224s95 -224 219 -224z" />
    <glyph glyph-name="uni1EDE" unicode="&#x1ede;" horiz-adv-x="844" 
d="M407 902c-20 0 -39 -6 -59 -19l-32 63c29 23 68 34 108 34c71 0 120 -43 120 -107c0 -57 -31 -98 -92 -126l-49 52c39 18 51 38 51 61c0 25 -19 42 -47 42zM687 614c72 -61 118 -155 118 -264c0 -209 -163 -362 -383 -362c-221 0 -383 154 -383 362
c0 209 163 362 390 362c75 0 133 -14 183 -14c51 0 82 23 82 66c0 23 -9 44 -20 60l92 34c19 -27 32 -61 32 -100c0 -75 -41 -124 -111 -144zM422 126c125 0 219 92 219 224s-94 224 -219 224c-124 0 -219 -91 -219 -224s95 -224 219 -224z" />
    <glyph glyph-name="uni1EE0" unicode="&#x1ee0;" horiz-adv-x="844" 
d="M357 817c-27 0 -46 -20 -48 -56h-79c2 89 47 146 117 146c69 0 104 -64 140 -64c27 0 46 21 48 54h79c-2 -86 -47 -143 -117 -143c-69 0 -104 63 -140 63zM687 614c72 -61 118 -155 118 -264c0 -209 -163 -362 -383 -362c-221 0 -383 154 -383 362c0 209 163 362 390 362
c75 0 133 -14 183 -14c51 0 82 23 82 66c0 23 -9 44 -20 60l92 34c19 -27 32 -61 32 -100c0 -75 -41 -124 -111 -144zM422 126c125 0 219 92 219 224s-94 224 -219 224c-124 0 -219 -91 -219 -224s95 -224 219 -224z" />
    <glyph glyph-name="Ohungarumlaut" unicode="&#x150;" horiz-adv-x="844" 
d="M264 757l72 144h146l-104 -144h-114zM466 757l72 144h146l-104 -144h-114zM422 -12c-221 0 -383 154 -383 362s162 362 383 362c220 0 383 -153 383 -362s-163 -362 -383 -362zM422 126c125 0 219 91 219 224s-94 224 -219 224s-219 -91 -219 -224s94 -224 219 -224z" />
    <glyph glyph-name="uni020E" unicode="&#x20e;" horiz-adv-x="844" 
d="M238 757c4 94 80 152 184 152s180 -58 184 -152h-98c-2 44 -39 71 -86 71s-84 -27 -86 -71h-98zM422 -12c-221 0 -383 154 -383 362s162 362 383 362c220 0 383 -153 383 -362s-163 -362 -383 -362zM422 126c125 0 219 91 219 224s-94 224 -219 224s-219 -91 -219 -224
s94 -224 219 -224z" />
    <glyph glyph-name="Omacron" unicode="&#x14c;" horiz-adv-x="844" 
d="M237 785v88h370v-88h-370zM422 -12c-221 0 -383 154 -383 362s162 362 383 362c220 0 383 -153 383 -362s-163 -362 -383 -362zM422 126c125 0 219 91 219 224s-94 224 -219 224s-219 -91 -219 -224s94 -224 219 -224z" />
    <glyph glyph-name="uni1E52" unicode="&#x1e52;" horiz-adv-x="844" 
d="M336 918l111 121h159l-157 -121h-113zM237 773v83h370v-83h-370zM422 -12c-221 0 -383 154 -383 362s162 362 383 362c220 0 383 -153 383 -362s-163 -362 -383 -362zM422 126c125 0 219 91 219 224s-94 224 -219 224s-219 -91 -219 -224s94 -224 219 -224z" />
    <glyph glyph-name="uni1E50" unicode="&#x1e50;" horiz-adv-x="844" 
d="M396 918l-157 121h159l110 -121h-112zM237 773v83h370v-83h-370zM422 -12c-221 0 -383 154 -383 362s162 362 383 362c220 0 383 -153 383 -362s-163 -362 -383 -362zM422 126c125 0 219 91 219 224s-94 224 -219 224s-219 -91 -219 -224s94 -224 219 -224z" />
    <glyph glyph-name="uni01EA" unicode="&#x1ea;" horiz-adv-x="844" 
d="M542 6c-94 -29 -139 -70 -139 -113c0 -28 22 -46 58 -46c21 0 44 6 60 15l23 -71c-25 -13 -64 -23 -101 -23c-88 0 -138 45 -138 112c0 40 19 79 60 112c-191 24 -326 168 -326 358c0 209 163 362 383 362s383 -153 383 -362c0 -176 -115 -301 -263 -344zM203 350
c0 -133 94 -224 219 -224s219 91 219 224s-94 224 -219 224s-219 -91 -219 -224z" />
    <glyph glyph-name="Oslash" unicode="&#xd8;" horiz-adv-x="844" 
d="M674 629c81 -65 131 -163 131 -279c0 -209 -163 -362 -383 -362c-65 0 -125 13 -178 38l-68 -96h-105l100 141c-82 65 -132 164 -132 279c0 208 162 362 383 362c66 0 126 -14 179 -38l68 96h105zM203 350c0 -63 21 -116 56 -155l257 360c-28 12 -60 19 -94 19
c-125 0 -219 -91 -219 -224zM422 126c125 0 219 91 219 224c0 63 -21 116 -56 155l-256 -360c28 -12 59 -19 93 -19z" />
    <glyph glyph-name="Oslashacute" unicode="&#x1fe;" horiz-adv-x="844" 
d="M634 901l-181 -144h-122l135 144h168zM674 629c81 -65 131 -163 131 -279c0 -209 -163 -362 -383 -362c-65 0 -125 13 -178 38l-68 -96h-105l100 141c-82 65 -132 164 -132 279c0 208 162 362 383 362c66 0 126 -14 179 -38l68 96h105zM203 350c0 -63 21 -116 56 -155
l257 360c-28 12 -60 19 -94 19c-125 0 -219 -91 -219 -224zM422 126c125 0 219 91 219 224c0 63 -21 116 -56 155l-256 -360c28 -12 59 -19 93 -19z" />
    <glyph glyph-name="Otilde" unicode="&#xd5;" horiz-adv-x="844" 
d="M497 754c-69 0 -104 63 -140 63c-27 0 -46 -20 -48 -56h-79c2 89 47 146 117 146c69 0 104 -64 140 -64c27 0 46 21 48 54h79c-2 -86 -47 -143 -117 -143zM422 -12c-221 0 -383 154 -383 362s162 362 383 362c220 0 383 -153 383 -362s-163 -362 -383 -362zM422 126
c125 0 219 91 219 224s-94 224 -219 224s-219 -91 -219 -224s94 -224 219 -224z" />
    <glyph glyph-name="uni1E4C" unicode="&#x1e4c;" horiz-adv-x="844" 
d="M336 918l111 121h159l-157 -121h-113zM496 755c-69 0 -105 52 -138 52c-27 0 -42 -17 -44 -46h-80c1 80 45 125 116 125c67 0 103 -52 138 -52c27 0 42 19 44 45h78c-1 -77 -43 -124 -114 -124zM422 -12c-221 0 -383 154 -383 362s162 362 383 362
c220 0 383 -153 383 -362s-163 -362 -383 -362zM422 126c125 0 219 91 219 224s-94 224 -219 224s-219 -91 -219 -224s94 -224 219 -224z" />
    <glyph glyph-name="uni1E4E" unicode="&#x1e4e;" horiz-adv-x="844" 
d="M324 923c-37 0 -66 27 -66 66c0 38 29 66 66 66c38 0 67 -28 67 -66c0 -39 -29 -66 -67 -66zM520 923c-36 0 -66 27 -66 66c0 38 30 66 66 66c37 0 66 -28 66 -66c0 -39 -29 -66 -66 -66zM496 755c-69 0 -105 52 -138 52c-27 0 -42 -17 -44 -46h-80c1 80 45 125 116 125
c67 0 103 -52 138 -52c27 0 42 19 44 45h78c-1 -77 -43 -124 -114 -124zM422 -12c-221 0 -383 154 -383 362s162 362 383 362c220 0 383 -153 383 -362s-163 -362 -383 -362zM422 126c125 0 219 91 219 224s-94 224 -219 224s-219 -91 -219 -224s94 -224 219 -224z" />
    <glyph glyph-name="uni022C" unicode="&#x22c;" horiz-adv-x="844" 
d="M237 934v83h370v-83h-370zM496 755c-69 0 -105 52 -138 52c-27 0 -42 -17 -44 -46h-80c1 80 45 125 116 125c67 0 103 -52 138 -52c27 0 42 19 44 45h78c-1 -77 -43 -124 -114 -124zM422 -12c-221 0 -383 154 -383 362s162 362 383 362c220 0 383 -153 383 -362
s-163 -362 -383 -362zM422 126c125 0 219 91 219 224s-94 224 -219 224s-219 -91 -219 -224s94 -224 219 -224z" />
    <glyph glyph-name="OE" unicode="&#x152;" horiz-adv-x="1136" 
d="M709 130h381v-130h-665c-229 0 -386 138 -386 349c0 213 157 351 386 351h652v-130h-368v-152h325v-126h-325v-162zM433 133h115v434h-115c-139 0 -230 -83 -230 -218c0 -133 91 -216 230 -216z" />
    <glyph glyph-name="P" unicode="P" horiz-adv-x="732" 
d="M386 700c187 0 304 -97 304 -254c0 -156 -117 -253 -304 -253h-141v-193h-162v700h303zM377 325c99 0 149 45 149 121c0 77 -50 122 -149 122h-132v-243h132z" />
    <glyph glyph-name="Thorn" unicode="&#xde;" horiz-adv-x="732" 
d="M386 623c187 0 304 -97 304 -254s-117 -254 -304 -254h-141v-115h-162v700h162v-77h141zM377 247c99 0 149 45 149 122s-50 122 -149 122h-132v-244h132z" />
    <glyph glyph-name="Q" unicode="Q" horiz-adv-x="844" 
d="M768 11l72 -86c-46 -56 -112 -86 -189 -86c-104 0 -177 38 -285 152c-192 24 -327 169 -327 359c0 208 162 362 383 362c220 0 383 -153 383 -362c0 -164 -101 -294 -250 -342c34 -36 64 -49 99 -49c43 0 81 17 114 52zM203 350c0 -133 94 -224 219 -224s219 91 219 224
s-94 224 -219 224s-219 -91 -219 -224z" />
    <glyph glyph-name="R" unicode="R" horiz-adv-x="735" 
d="M703 0h-174l-135 195h-8h-141v-195h-162v700h303c187 0 304 -97 304 -254c0 -105 -53 -182 -144 -221zM526 446c0 77 -50 122 -149 122h-132v-244h132c99 0 149 46 149 122z" />
    <glyph glyph-name="Racute" unicode="&#x154;" horiz-adv-x="735" 
d="M587 901l-181 -144h-122l135 144h168zM703 0h-174l-135 195h-8h-141v-195h-162v700h303c187 0 304 -97 304 -254c0 -105 -53 -182 -144 -221zM526 446c0 77 -50 122 -149 122h-132v-244h132c99 0 149 46 149 122z" />
    <glyph glyph-name="Rcaron" unicode="&#x158;" horiz-adv-x="735" 
d="M444 757h-138l-132 144h114l87 -75l87 75h114zM703 0h-174l-135 195h-8h-141v-195h-162v700h303c187 0 304 -97 304 -254c0 -105 -53 -182 -144 -221zM526 446c0 77 -50 122 -149 122h-132v-244h132c99 0 149 46 149 122z" />
    <glyph glyph-name="Rcommaaccent" unicode="&#x156;" horiz-adv-x="735" 
d="M546 225l157 -225h-174l-135 195h-8h-141v-195h-162v700h303c187 0 304 -97 304 -254c0 -105 -53 -182 -144 -221zM526 446c0 77 -50 122 -149 122h-132v-244h132c99 0 149 46 149 122zM375 -73c43 0 69 -25 69 -60c0 -16 -3 -37 -18 -65l-35 -68h-73l25 80
c-24 8 -37 27 -37 53c0 35 26 60 69 60z" />
    <glyph glyph-name="uni0210" unicode="&#x210;" horiz-adv-x="735" 
d="M331 757h-114l-104 144h146zM533 757h-114l-104 144h146zM703 0h-174l-135 195h-8h-141v-195h-162v700h303c187 0 304 -97 304 -254c0 -105 -53 -182 -144 -221zM526 446c0 77 -50 122 -149 122h-132v-244h132c99 0 149 46 149 122z" />
    <glyph glyph-name="uni1E5A" unicode="&#x1e5a;" horiz-adv-x="735" 
d="M546 225l157 -225h-174l-135 195h-8h-141v-195h-162v700h303c187 0 304 -97 304 -254c0 -105 -53 -182 -144 -221zM526 446c0 77 -50 122 -149 122h-132v-244h132c99 0 149 46 149 122zM375 -73c39 0 69 -29 69 -70s-30 -67 -69 -67s-69 26 -69 67s30 70 69 70z" />
    <glyph glyph-name="uni0212" unicode="&#x212;" horiz-adv-x="735" 
d="M375 828c-47 0 -84 -27 -86 -71h-98c4 94 80 152 184 152s180 -58 184 -152h-98c-2 44 -39 71 -86 71zM703 0h-174l-135 195h-8h-141v-195h-162v700h303c187 0 304 -97 304 -254c0 -105 -53 -182 -144 -221zM526 446c0 77 -50 122 -149 122h-132v-244h132
c99 0 149 46 149 122z" />
    <glyph glyph-name="uni1E5E" unicode="&#x1e5e;" horiz-adv-x="735" 
d="M245 195v-195h-162v700h303c187 0 304 -97 304 -254c0 -105 -53 -182 -144 -221l157 -225h-174l-135 195h-8h-141zM526 446c0 77 -50 122 -149 122h-132v-244h132c99 0 149 46 149 122zM190 -182v87h370v-87h-370z" />
    <glyph glyph-name="S" unicode="S" horiz-adv-x="638" 
d="M313 -12c-111 0 -223 33 -285 81l55 122c59 -43 147 -73 231 -73c96 0 135 32 135 75c0 131 -407 41 -407 301c0 119 96 218 295 218c88 0 178 -21 243 -62l-50 -123c-65 37 -132 55 -194 55c-96 0 -133 -36 -133 -80c0 -129 407 -40 407 -297c0 -117 -97 -217 -297 -217
z" />
    <glyph glyph-name="Sacute" unicode="&#x15a;" horiz-adv-x="638" 
d="M234 757l135 144h168l-181 -144h-122zM313 -12c-111 0 -223 33 -285 81l55 122c59 -43 147 -73 231 -73c96 0 135 32 135 75c0 131 -407 41 -407 301c0 119 96 218 295 218c88 0 178 -21 243 -62l-50 -123c-65 37 -132 55 -194 55c-96 0 -133 -36 -133 -80
c0 -129 407 -40 407 -297c0 -117 -97 -217 -297 -217z" />
    <glyph glyph-name="uni1E64" unicode="&#x1e64;" horiz-adv-x="638" 
d="M325 922c-39 0 -69 27 -69 68s30 69 69 69s69 -28 69 -69s-30 -68 -69 -68zM239 757l111 121h159l-157 -121h-113zM313 -12c-111 0 -223 33 -285 81l55 122c59 -43 147 -73 231 -73c96 0 135 32 135 75c0 131 -407 41 -407 301c0 119 96 218 295 218
c88 0 178 -21 243 -62l-50 -123c-65 37 -132 55 -194 55c-96 0 -133 -36 -133 -80c0 -129 407 -40 407 -297c0 -117 -97 -217 -297 -217z" />
    <glyph glyph-name="uniA78B" unicode="&#xa78b;" horiz-adv-x="297" 
d="M68 297v403h160l-20 -403h-140z" />
    <glyph glyph-name="Scaron" unicode="&#x160;" horiz-adv-x="638" 
d="M394 757h-138l-132 144h114l87 -75l87 75h114zM203 502c0 -129 407 -40 407 -297c0 -117 -97 -217 -297 -217c-111 0 -223 33 -285 81l55 122c59 -43 147 -73 231 -73c96 0 135 32 135 75c0 131 -407 41 -407 301c0 119 96 218 295 218c88 0 178 -21 243 -62l-50 -123
c-65 37 -132 55 -194 55c-96 0 -133 -36 -133 -80z" />
    <glyph glyph-name="uni1E66" unicode="&#x1e66;" horiz-adv-x="638" 
d="M325 899c-39 0 -69 27 -69 68s30 69 69 69s69 -28 69 -69s-30 -68 -69 -68zM393 757h-136l-133 114h115l86 -57l86 57h115zM203 502c0 -129 407 -40 407 -297c0 -117 -97 -217 -297 -217c-111 0 -223 33 -285 81l55 122c59 -43 147 -73 231 -73c96 0 135 32 135 75
c0 131 -407 41 -407 301c0 119 96 218 295 218c88 0 178 -21 243 -62l-50 -123c-65 37 -132 55 -194 55c-96 0 -133 -36 -133 -80z" />
    <glyph glyph-name="Scedilla" unicode="&#x15e;" horiz-adv-x="638" 
d="M610 205c0 -107 -81 -200 -248 -215l-10 -40c61 -7 87 -42 87 -83c0 -61 -58 -99 -147 -99c-35 0 -70 8 -93 21l24 67c19 -9 41 -15 65 -15c37 0 52 13 52 32c0 17 -14 29 -49 29h-34l21 87c-99 6 -194 37 -250 80l55 122c59 -43 147 -73 231 -73c96 0 135 32 135 75
c0 131 -407 41 -407 301c0 119 96 218 295 218c88 0 178 -21 243 -62l-50 -123c-65 37 -132 55 -194 55c-96 0 -133 -36 -133 -80c0 -129 407 -40 407 -297z" />
    <glyph glyph-name="Scircumflex" unicode="&#x15c;" horiz-adv-x="638" 
d="M325 833l-87 -76h-114l132 144h138l132 -144h-114zM203 502c0 -129 407 -40 407 -297c0 -117 -97 -217 -297 -217c-111 0 -223 33 -285 81l55 122c59 -43 147 -73 231 -73c96 0 135 32 135 75c0 131 -407 41 -407 301c0 119 96 218 295 218c88 0 178 -21 243 -62
l-50 -123c-65 37 -132 55 -194 55c-96 0 -133 -36 -133 -80z" />
    <glyph glyph-name="Scommaaccent" unicode="&#x218;" horiz-adv-x="638" 
d="M203 502c0 -129 407 -40 407 -297c0 -117 -97 -217 -297 -217c-111 0 -223 33 -285 81l55 122c59 -43 147 -73 231 -73c96 0 135 32 135 75c0 131 -407 41 -407 301c0 119 96 218 295 218c88 0 178 -21 243 -62l-50 -123c-65 37 -132 55 -194 55c-96 0 -133 -36 -133 -80
zM325 -73c43 0 69 -25 69 -60c0 -16 -3 -37 -18 -65l-35 -68h-73l25 80c-24 8 -37 27 -37 53c0 35 26 60 69 60z" />
    <glyph glyph-name="uni1E60" unicode="&#x1e60;" horiz-adv-x="638" 
d="M325 762c-49 0 -84 36 -84 85c0 48 35 84 84 84s84 -36 84 -84c0 -49 -35 -85 -84 -85zM313 -12c-111 0 -223 33 -285 81l55 122c59 -43 147 -73 231 -73c96 0 135 32 135 75c0 131 -407 41 -407 301c0 119 96 218 295 218c88 0 178 -21 243 -62l-50 -123
c-65 37 -132 55 -194 55c-96 0 -133 -36 -133 -80c0 -129 407 -40 407 -297c0 -117 -97 -217 -297 -217z" />
    <glyph glyph-name="uni1E62" unicode="&#x1e62;" horiz-adv-x="638" 
d="M313 -12c-111 0 -223 33 -285 81l55 122c59 -43 147 -73 231 -73c96 0 135 32 135 75c0 131 -407 41 -407 301c0 119 96 218 295 218c88 0 178 -21 243 -62l-50 -123c-65 37 -132 55 -194 55c-96 0 -133 -36 -133 -80c0 -129 407 -40 407 -297c0 -117 -97 -217 -297 -217
zM325 -210c-39 0 -69 26 -69 67s30 70 69 70s69 -29 69 -70s-30 -67 -69 -67z" />
    <glyph glyph-name="uni1E68" unicode="&#x1e68;" horiz-adv-x="638" 
d="M325 762c-49 0 -84 36 -84 85c0 48 35 84 84 84s84 -36 84 -84c0 -49 -35 -85 -84 -85zM313 -12c-111 0 -223 33 -285 81l55 122c59 -43 147 -73 231 -73c96 0 135 32 135 75c0 131 -407 41 -407 301c0 119 96 218 295 218c88 0 178 -21 243 -62l-50 -123
c-65 37 -132 55 -194 55c-96 0 -133 -36 -133 -80c0 -129 407 -40 407 -297c0 -117 -97 -217 -297 -217zM325 -210c-39 0 -69 26 -69 67s30 70 69 70s69 -29 69 -70s-30 -67 -69 -67z" />
    <glyph glyph-name="uni1E9E" unicode="&#x1e9e;" horiz-adv-x="779" 
d="M557 418c105 -22 183 -96 183 -212c0 -139 -113 -218 -258 -218c-63 0 -110 8 -151 24l24 128c28 -14 65 -22 102 -22c76 0 119 32 119 95c0 62 -44 95 -118 95c-26 0 -54 -4 -74 -11l-28 70l172 199c-32 11 -67 17 -106 17c-119 0 -183 -70 -183 -195v-388h-162v392
c0 198 124 321 343 321c88 0 187 -23 250 -67v-98z" />
    <glyph glyph-name="uni018F" unicode="&#x18f;" horiz-adv-x="817" 
d="M398 712c222 0 380 -152 380 -361c0 -212 -157 -363 -369 -363c-215 0 -370 152 -370 369v34h573c-16 107 -103 183 -215 183c-72 0 -152 -28 -203 -82l-97 105c66 68 179 115 301 115zM409 117c110 0 183 63 201 164h-403c18 -102 93 -164 202 -164z" />
    <glyph glyph-name="T" unicode="T" horiz-adv-x="618" 
d="M228 0v568h-224v132h610v-132h-224v-568h-162z" />
    <glyph glyph-name="Tbar" unicode="&#x166;" horiz-adv-x="618" 
d="M614 568h-224v-186h135v-108h-135v-274h-162v274h-135v108h135v186h-224v132h610v-132z" />
    <glyph glyph-name="Tcaron" unicode="&#x164;" horiz-adv-x="618" 
d="M378 757h-138l-132 144h114l87 -75l87 75h114zM4 700h610v-132h-224v-568h-162v568h-224v132z" />
    <glyph glyph-name="uni0162" unicode="&#x162;" horiz-adv-x="618" 
d="M390 0h-42l-12 -50c61 -7 87 -42 87 -83c0 -61 -58 -99 -147 -99c-35 0 -70 8 -93 21l24 67c19 -9 41 -15 65 -15c37 0 52 13 52 32c0 17 -14 29 -49 29h-34l24 98h-37v568h-224v132h610v-132h-224v-568z" />
    <glyph glyph-name="uni021A" unicode="&#x21a;" horiz-adv-x="618" 
d="M4 700h610v-132h-224v-568h-162v568h-224v132zM309 -73c43 0 69 -25 69 -60c0 -16 -3 -37 -18 -65l-35 -68h-73l25 80c-24 8 -37 27 -37 53c0 35 26 60 69 60z" />
    <glyph glyph-name="uni1E6C" unicode="&#x1e6c;" horiz-adv-x="618" 
d="M228 0v568h-224v132h610v-132h-224v-568h-162zM309 -210c-39 0 -69 26 -69 67s30 70 69 70s69 -29 69 -70s-30 -67 -69 -67z" />
    <glyph glyph-name="uni1E6E" unicode="&#x1e6e;" horiz-adv-x="618" 
d="M228 0v568h-224v132h610v-132h-224v-568h-162zM124 -182v87h370v-87h-370z" />
    <glyph glyph-name="U" unicode="U" horiz-adv-x="788" 
d="M394 -12c-199 0 -317 114 -317 320v392h162v-386c0 -133 58 -188 156 -188c99 0 156 55 156 188v386h160v-392c0 -206 -118 -320 -317 -320z" />
    <glyph glyph-name="Uacute" unicode="&#xda;" horiz-adv-x="788" 
d="M304 757l135 144h168l-181 -144h-122zM394 -12c-199 0 -317 114 -317 320v392h162v-386c0 -133 58 -188 156 -188c99 0 156 55 156 188v386h160v-392c0 -206 -118 -320 -317 -320z" />
    <glyph glyph-name="Ubreve" unicode="&#x16c;" horiz-adv-x="788" 
d="M395 749c-104 0 -180 58 -184 152h98c2 -43 39 -71 86 -71s84 28 86 71h98c-4 -94 -80 -152 -184 -152zM394 -12c-199 0 -317 114 -317 320v392h162v-386c0 -133 58 -188 156 -188c99 0 156 55 156 188v386h160v-392c0 -206 -118 -320 -317 -320z" />
    <glyph glyph-name="uni01D3" unicode="&#x1d3;" horiz-adv-x="788" 
d="M464 757h-138l-132 144h114l87 -75l87 75h114zM551 700h160v-392c0 -206 -118 -320 -317 -320s-317 114 -317 320v392h162v-386c0 -133 58 -188 156 -188c99 0 156 55 156 188v386z" />
    <glyph glyph-name="Ucircumflex" unicode="&#xdb;" horiz-adv-x="788" 
d="M395 833l-87 -76h-114l132 144h138l132 -144h-114zM551 700h160v-392c0 -206 -118 -320 -317 -320s-317 114 -317 320v392h162v-386c0 -133 58 -188 156 -188c99 0 156 55 156 188v386z" />
    <glyph glyph-name="uni0214" unicode="&#x214;" horiz-adv-x="788" 
d="M237 757l-104 144h146l72 -144h-114zM439 757l-104 144h146l72 -144h-114zM394 -12c-199 0 -317 114 -317 320v392h162v-386c0 -133 58 -188 156 -188c99 0 156 55 156 188v386h160v-392c0 -206 -118 -320 -317 -320z" />
    <glyph glyph-name="Udieresis" unicode="&#xdc;" horiz-adv-x="788" 
d="M294 762c-39 0 -70 28 -70 69s31 69 70 69s69 -28 69 -69s-30 -69 -69 -69zM496 762c-39 0 -69 28 -69 69s30 69 69 69s70 -28 70 -69s-31 -69 -70 -69zM394 -12c-199 0 -317 114 -317 320v392h162v-386c0 -133 58 -188 156 -188c99 0 156 55 156 188v386h160v-392
c0 -206 -118 -320 -317 -320z" />
    <glyph glyph-name="uni1EE4" unicode="&#x1ee4;" horiz-adv-x="788" 
d="M394 -12c-199 0 -317 114 -317 320v392h162v-386c0 -133 58 -188 156 -188c99 0 156 55 156 188v386h160v-392c0 -206 -118 -320 -317 -320zM395 -210c-39 0 -69 26 -69 67s30 70 69 70s69 -29 69 -70s-30 -67 -69 -67z" />
    <glyph glyph-name="Ugrave" unicode="&#xd9;" horiz-adv-x="788" 
d="M364 757l-181 144h168l135 -144h-122zM394 -12c-199 0 -317 114 -317 320v392h162v-386c0 -133 58 -188 156 -188c99 0 156 55 156 188v386h160v-392c0 -206 -118 -320 -317 -320z" />
    <glyph glyph-name="uni1EE6" unicode="&#x1ee6;" horiz-adv-x="788" 
d="M425 747l-49 52c39 18 51 38 51 61c0 25 -19 42 -47 42c-20 0 -39 -6 -59 -19l-32 63c29 23 68 34 108 34c71 0 120 -43 120 -107c0 -57 -31 -98 -92 -126zM394 -12c-199 0 -317 114 -317 320v392h162v-386c0 -133 58 -188 156 -188c99 0 156 55 156 188v386h160v-392
c0 -206 -118 -320 -317 -320z" />
    <glyph glyph-name="Uhorn" unicode="&#x1af;" horiz-adv-x="801" 
d="M819 757c0 -79 -39 -134 -108 -153v-296c0 -206 -118 -320 -317 -320s-317 114 -317 320v392h162v-386c0 -133 58 -188 156 -188c99 0 156 55 156 188v386h104c36 0 60 26 60 63c0 24 -8 45 -20 60l92 34c20 -26 32 -60 32 -100z" />
    <glyph glyph-name="uni1EE8" unicode="&#x1ee8;" horiz-adv-x="801" 
d="M607 901l-181 -144h-122l135 144h168zM819 757c0 -79 -39 -134 -108 -153v-296c0 -206 -118 -320 -317 -320s-317 114 -317 320v392h162v-386c0 -133 58 -188 156 -188c99 0 156 55 156 188v386h104c36 0 60 26 60 63c0 24 -8 45 -20 60l92 34c20 -26 32 -60 32 -100z
" />
    <glyph glyph-name="uni1EF0" unicode="&#x1ef0;" horiz-adv-x="801" 
d="M819 757c0 -79 -39 -134 -108 -153v-296c0 -206 -118 -320 -317 -320s-317 114 -317 320v392h162v-386c0 -133 58 -188 156 -188c99 0 156 55 156 188v386h104c36 0 60 26 60 63c0 24 -8 45 -20 60l92 34c20 -26 32 -60 32 -100zM395 -73c39 0 69 -29 69 -70
s-30 -67 -69 -67s-69 26 -69 67s30 70 69 70z" />
    <glyph glyph-name="uni1EEA" unicode="&#x1eea;" horiz-adv-x="801" 
d="M486 757h-122l-181 144h168zM819 757c0 -79 -39 -134 -108 -153v-296c0 -206 -118 -320 -317 -320s-317 114 -317 320v392h162v-386c0 -133 58 -188 156 -188c99 0 156 55 156 188v386h104c36 0 60 26 60 63c0 24 -8 45 -20 60l92 34c20 -26 32 -60 32 -100z" />
    <glyph glyph-name="uni1EEC" unicode="&#x1eec;" horiz-adv-x="801" 
d="M380 902c-20 0 -39 -6 -59 -19l-32 63c29 23 68 34 108 34c71 0 120 -43 120 -107c0 -57 -31 -98 -92 -126l-49 52c39 18 51 38 51 61c0 25 -19 42 -47 42zM819 757c0 -79 -39 -134 -108 -153v-296c0 -206 -118 -320 -317 -320s-317 114 -317 320v392h162v-386
c0 -133 58 -188 156 -188c99 0 156 55 156 188v386h104c36 0 60 26 60 63c0 24 -8 45 -20 60l92 34c20 -26 32 -60 32 -100z" />
    <glyph glyph-name="uni1EEE" unicode="&#x1eee;" horiz-adv-x="801" 
d="M330 817c-27 0 -46 -20 -48 -56h-79c2 89 47 146 117 146c69 0 104 -64 140 -64c27 0 46 21 48 54h79c-2 -86 -47 -143 -117 -143c-69 0 -104 63 -140 63zM819 757c0 -79 -39 -134 -108 -153v-296c0 -206 -118 -320 -317 -320s-317 114 -317 320v392h162v-386
c0 -133 58 -188 156 -188c99 0 156 55 156 188v386h104c36 0 60 26 60 63c0 24 -8 45 -20 60l92 34c20 -26 32 -60 32 -100z" />
    <glyph glyph-name="Uhungarumlaut" unicode="&#x170;" horiz-adv-x="788" 
d="M237 757l72 144h146l-104 -144h-114zM439 757l72 144h146l-104 -144h-114zM394 -12c-199 0 -317 114 -317 320v392h162v-386c0 -133 58 -188 156 -188c99 0 156 55 156 188v386h160v-392c0 -206 -118 -320 -317 -320z" />
    <glyph glyph-name="uni0216" unicode="&#x216;" horiz-adv-x="788" 
d="M211 757c4 94 80 152 184 152s180 -58 184 -152h-98c-2 44 -39 71 -86 71s-84 -27 -86 -71h-98zM394 -12c-199 0 -317 114 -317 320v392h162v-386c0 -133 58 -188 156 -188c99 0 156 55 156 188v386h160v-392c0 -206 -118 -320 -317 -320z" />
    <glyph glyph-name="Umacron" unicode="&#x16a;" horiz-adv-x="788" 
d="M210 785v88h370v-88h-370zM394 -12c-199 0 -317 114 -317 320v392h162v-386c0 -133 58 -188 156 -188c99 0 156 55 156 188v386h160v-392c0 -206 -118 -320 -317 -320z" />
    <glyph glyph-name="uni1E7A" unicode="&#x1e7a;" horiz-adv-x="788" 
d="M297 924c-37 0 -66 27 -66 66c0 38 29 66 66 66c38 0 67 -28 67 -66c0 -39 -29 -66 -67 -66zM493 924c-36 0 -66 27 -66 66c0 38 30 66 66 66c37 0 66 -28 66 -66c0 -39 -29 -66 -66 -66zM210 774v83h370v-83h-370zM394 -12c-199 0 -317 114 -317 320v392h162v-386
c0 -133 58 -188 156 -188c99 0 156 55 156 188v386h160v-392c0 -206 -118 -320 -317 -320z" />
    <glyph glyph-name="Uogonek" unicode="&#x172;" horiz-adv-x="788" 
d="M551 700h160v-392c0 -164 -74 -258 -187 -300c-112 -42 -140 -81 -140 -115c0 -28 21 -46 57 -46c22 0 45 6 60 15l23 -71c-24 -13 -63 -23 -101 -23c-87 0 -138 45 -138 112c0 40 19 78 59 111c-169 17 -267 129 -267 317v392h162v-386c0 -133 58 -188 156 -188
c99 0 156 55 156 188v386z" />
    <glyph glyph-name="Uring" unicode="&#x16e;" horiz-adv-x="788" 
d="M394 754c-70 0 -123 53 -123 121c0 67 53 121 123 121c71 0 125 -54 125 -121c0 -68 -54 -121 -125 -121zM394 814c35 0 61 26 61 61s-26 61 -61 61c-33 0 -60 -26 -60 -61s26 -61 60 -61zM394 -12c-199 0 -317 114 -317 320v392h162v-386c0 -133 58 -188 156 -188
c99 0 156 55 156 188v386h160v-392c0 -206 -118 -320 -317 -320z" />
    <glyph glyph-name="Utilde" unicode="&#x168;" horiz-adv-x="788" 
d="M470 754c-69 0 -104 63 -140 63c-27 0 -46 -20 -48 -56h-79c2 89 47 146 117 146c69 0 104 -64 140 -64c27 0 46 21 48 54h79c-2 -86 -47 -143 -117 -143zM394 -12c-199 0 -317 114 -317 320v392h162v-386c0 -133 58 -188 156 -188c99 0 156 55 156 188v386h160v-392
c0 -206 -118 -320 -317 -320z" />
    <glyph glyph-name="uni1E78" unicode="&#x1e78;" horiz-adv-x="788" 
d="M309 918l111 121h159l-157 -121h-113zM469 755c-69 0 -105 52 -138 52c-27 0 -42 -17 -44 -46h-80c1 80 45 125 116 125c67 0 103 -52 138 -52c27 0 42 19 44 45h78c-1 -77 -43 -124 -114 -124zM394 -12c-199 0 -317 114 -317 320v392h162v-386c0 -133 58 -188 156 -188
c99 0 156 55 156 188v386h160v-392c0 -206 -118 -320 -317 -320z" />
    <glyph glyph-name="V" unicode="V" horiz-adv-x="746" 
d="M595 700h161l-303 -700h-160l-302 700h175l213 -500z" />
    <glyph glyph-name="W" unicode="W" horiz-adv-x="1163" 
d="M986 700h155l-229 -700h-174l-154 474l-159 -474h-173l-230 700h168l158 -492l165 492h150l160 -496z" />
    <glyph glyph-name="Wacute" unicode="&#x1e82;" horiz-adv-x="1163" 
d="M794 901l-181 -144h-122l135 144h168zM986 700h155l-229 -700h-174l-154 474l-159 -474h-173l-230 700h168l158 -492l165 492h150l160 -496z" />
    <glyph glyph-name="Wcircumflex" unicode="&#x174;" horiz-adv-x="1163" 
d="M582 833l-87 -76h-114l132 144h138l132 -144h-114zM986 700h155l-229 -700h-174l-154 474l-159 -474h-173l-230 700h168l158 -492l165 492h150l160 -496z" />
    <glyph glyph-name="Wdieresis" unicode="&#x1e84;" horiz-adv-x="1163" 
d="M481 762c-39 0 -70 28 -70 69s31 69 70 69s69 -28 69 -69s-30 -69 -69 -69zM683 762c-39 0 -69 28 -69 69s30 69 69 69s70 -28 70 -69s-31 -69 -70 -69zM986 700h155l-229 -700h-174l-154 474l-159 -474h-173l-230 700h168l158 -492l165 492h150l160 -496z" />
    <glyph glyph-name="Wgrave" unicode="&#x1e80;" horiz-adv-x="1163" 
d="M673 757h-122l-181 144h168zM986 700h155l-229 -700h-174l-154 474l-159 -474h-173l-230 700h168l158 -492l165 492h150l160 -496z" />
    <glyph glyph-name="X" unicode="X" horiz-adv-x="714" 
d="M711 0h-187l-169 243l-166 -243h-186l259 356l-246 344h184l161 -227l158 227h175l-244 -338z" />
    <glyph glyph-name="Y" unicode="Y" horiz-adv-x="676" 
d="M691 700l-272 -452v-248h-162v250l-271 450h172l187 -311l187 311h159z" />
    <glyph glyph-name="Yacute" unicode="&#xdd;" horiz-adv-x="676" 
d="M550 901l-181 -144h-122l135 144h168zM691 700l-272 -452v-248h-162v250l-271 450h172l187 -311l187 311h159z" />
    <glyph glyph-name="Ycircumflex" unicode="&#x176;" horiz-adv-x="676" 
d="M338 833l-87 -76h-114l132 144h138l132 -144h-114zM691 700l-272 -452v-248h-162v250l-271 450h172l187 -311l187 311h159z" />
    <glyph glyph-name="Ydieresis" unicode="&#x178;" horiz-adv-x="676" 
d="M237 762c-39 0 -70 28 -70 69s31 69 70 69s69 -28 69 -69s-30 -69 -69 -69zM439 762c-39 0 -69 28 -69 69s30 69 69 69s70 -28 70 -69s-31 -69 -70 -69zM691 700l-272 -452v-248h-162v250l-271 450h172l187 -311l187 311h159z" />
    <glyph glyph-name="uni1E8E" unicode="&#x1e8e;" horiz-adv-x="676" 
d="M338 762c-49 0 -84 36 -84 85c0 48 35 84 84 84s84 -36 84 -84c0 -49 -35 -85 -84 -85zM691 700l-272 -452v-248h-162v250l-271 450h172l187 -311l187 311h159z" />
    <glyph glyph-name="uni1EF4" unicode="&#x1ef4;" horiz-adv-x="676" 
d="M691 700l-272 -452v-248h-162v250l-271 450h172l187 -311l187 311h159zM338 -73c39 0 69 -29 69 -70s-30 -67 -69 -67s-69 26 -69 67s30 70 69 70z" />
    <glyph glyph-name="Ygrave" unicode="&#x1ef2;" horiz-adv-x="676" 
d="M429 757h-122l-181 144h168zM691 700l-272 -452v-248h-162v250l-271 450h172l187 -311l187 311h159z" />
    <glyph glyph-name="uni1EF6" unicode="&#x1ef6;" horiz-adv-x="676" 
d="M323 902c-20 0 -39 -6 -59 -19l-32 63c29 23 68 34 108 34c71 0 120 -43 120 -107c0 -57 -31 -98 -92 -126l-49 52c39 18 51 38 51 61c0 25 -19 42 -47 42zM691 700l-272 -452v-248h-162v250l-271 450h172l187 -311l187 311h159z" />
    <glyph glyph-name="uni0232" unicode="&#x232;" horiz-adv-x="676" 
d="M523 873v-88h-370v88h370zM691 700l-272 -452v-248h-162v250l-271 450h172l187 -311l187 311h159z" />
    <glyph glyph-name="uni1EF8" unicode="&#x1ef8;" horiz-adv-x="676" 
d="M273 817c-27 0 -46 -20 -48 -56h-79c2 89 47 146 117 146c69 0 104 -64 140 -64c27 0 46 21 48 54h79c-2 -86 -47 -143 -117 -143c-69 0 -104 63 -140 63zM691 700l-272 -452v-248h-162v250l-271 450h172l187 -311l187 311h159z" />
    <glyph glyph-name="Z" unicode="Z" horiz-adv-x="671" 
d="M252 132h398v-132h-612v105l384 463h-376v132h589v-105z" />
    <glyph glyph-name="Zacute" unicode="&#x179;" horiz-adv-x="671" 
d="M556 901l-181 -144h-122l135 144h168zM252 132h398v-132h-612v105l384 463h-376v132h589v-105z" />
    <glyph glyph-name="Zcaron" unicode="&#x17d;" horiz-adv-x="671" 
d="M413 757h-138l-132 144h114l87 -75l87 75h114zM252 132h398v-132h-612v105l384 463h-376v132h589v-105z" />
    <glyph glyph-name="Zdotaccent" unicode="&#x17b;" horiz-adv-x="671" 
d="M344 762c-49 0 -84 36 -84 85c0 48 35 84 84 84s84 -36 84 -84c0 -49 -35 -85 -84 -85zM252 132h398v-132h-612v105l384 463h-376v132h589v-105z" />
    <glyph glyph-name="uni1E92" unicode="&#x1e92;" horiz-adv-x="671" 
d="M252 132h398v-132h-612v105l384 463h-376v132h589v-105zM347 -73c39 0 69 -29 69 -70s-30 -67 -69 -67s-69 26 -69 67s30 70 69 70z" />
    <glyph glyph-name="Iacute_J.loclNLD" horiz-adv-x="724" 
d="M84 757l134 144h156l-181 -144h-109zM491 757l135 144h156l-182 -144h-109zM327 -8c-106 0 -199 32 -266 79l61 120c62 -41 134 -63 199 -63c108 0 163 57 163 183v389h163v-381c0 -213 -127 -327 -320 -327zM77 322v378h162v-378h-162z" />
    <glyph glyph-name="Adieresis.alt" horiz-adv-x="766" 
d="M146 563c-39 0 -70 28 -70 69s31 69 70 69s69 -28 69 -69s-30 -69 -69 -69zM620 563c-39 0 -70 28 -70 69s31 69 70 69s69 -28 69 -69s-30 -69 -69 -69zM606 0l-59 142h-331l-59 -142h-166l312 700h160l313 -700h-170zM267 265h229l-114 276z" />
    <glyph glyph-name="Udieresis.alt" horiz-adv-x="788" 
d="M395 574c-39 0 -67 29 -67 67s28 67 67 67s68 -29 68 -67s-29 -67 -68 -67zM394 -12c-199 0 -317 114 -317 320v392h162v-386c0 -133 58 -188 156 -188c99 0 156 55 156 188v386h160v-392c0 -206 -118 -320 -317 -320zM395 422c-39 0 -67 29 -67 67s28 67 67 67
s68 -29 68 -67s-29 -67 -68 -67z" />
    <glyph glyph-name="Udieresis.ss01.alt" horiz-adv-x="792" 
d="M393 574c-39 0 -67 29 -67 67s28 67 67 67s68 -29 68 -67s-29 -67 -68 -67zM547 700h162v-700h-157v85c-48 -65 -120 -97 -212 -97c-163 0 -263 107 -263 302v410h162v-405c0 -115 59 -169 147 -169c93 0 161 57 161 180v394zM393 422c-39 0 -67 29 -67 66
c0 38 28 67 67 67s68 -29 68 -67c0 -37 -29 -66 -68 -66z" />
    <glyph glyph-name="A.ss01" horiz-adv-x="796" 
d="M398 712c192 0 321 -116 321 -329v-383h-162v168h-320v-168h-160v383c0 213 129 329 321 329zM237 298h320v100c0 119 -64 176 -160 176c-97 0 -160 -57 -160 -176v-100z" />
    <glyph glyph-name="Aacute.ss01" horiz-adv-x="796" 
d="M610 901l-181 -144h-122l135 144h168zM398 712c192 0 321 -116 321 -329v-383h-162v168h-320v-168h-160v383c0 213 129 329 321 329zM237 298h320v100c0 119 -64 176 -160 176c-97 0 -160 -57 -160 -176v-100z" />
    <glyph glyph-name="Abreve.ss01" horiz-adv-x="796" 
d="M398 749c-104 0 -180 58 -184 152h98c2 -43 39 -71 86 -71s84 28 86 71h98c-4 -94 -80 -152 -184 -152zM398 712c192 0 321 -116 321 -329v-383h-162v168h-320v-168h-160v383c0 213 129 329 321 329zM237 298h320v100c0 119 -64 176 -160 176c-97 0 -160 -57 -160 -176
v-100z" />
    <glyph glyph-name="uni1EAE.ss01" horiz-adv-x="796" 
d="M582 1022l-157 -121h-113l111 121h159zM398 749c-103 0 -177 47 -184 122h94c4 -28 40 -47 90 -47s86 19 90 47h94c-7 -75 -81 -122 -184 -122zM398 712c192 0 321 -116 321 -329v-383h-162v168h-320v-168h-160v383c0 213 129 329 321 329zM237 298h320v100
c0 119 -64 176 -160 176c-97 0 -160 -57 -160 -176v-100z" />
    <glyph glyph-name="uni1EB6.ss01" horiz-adv-x="796" 
d="M398 749c-104 0 -180 58 -184 152h98c2 -43 39 -71 86 -71s84 28 86 71h98c-4 -94 -80 -152 -184 -152zM398 712c192 0 321 -116 321 -329v-383h-162v168h-320v-168h-160v383c0 213 129 329 321 329zM237 298h320v100c0 119 -64 176 -160 176c-97 0 -160 -57 -160 -176
v-100zM398 -73c39 0 69 -29 69 -70s-30 -67 -69 -67s-69 26 -69 67s30 70 69 70z" />
    <glyph glyph-name="uni1EB0.ss01" horiz-adv-x="796" 
d="M484 901h-112l-157 121h159zM398 749c-103 0 -177 47 -184 122h94c4 -28 40 -47 90 -47s86 19 90 47h94c-7 -75 -81 -122 -184 -122zM398 712c192 0 321 -116 321 -329v-383h-162v168h-320v-168h-160v383c0 213 129 329 321 329zM237 298h320v100c0 119 -64 176 -160 176
c-97 0 -160 -57 -160 -176v-100z" />
    <glyph glyph-name="uni1EB2.ss01" horiz-adv-x="796" 
d="M388 981c-16 0 -29 -4 -44 -12l-26 48c23 15 53 22 83 22c56 0 92 -31 92 -79c0 -40 -31 -72 -70 -87l-38 37c27 13 37 29 37 42c0 18 -14 29 -34 29zM398 749c-103 0 -177 47 -184 122h94c4 -28 40 -47 90 -47s86 19 90 47h94c-7 -75 -81 -122 -184 -122zM398 712
c192 0 321 -116 321 -329v-383h-162v168h-320v-168h-160v383c0 213 129 329 321 329zM237 298h320v100c0 119 -64 176 -160 176c-97 0 -160 -57 -160 -176v-100z" />
    <glyph glyph-name="uni1EB4.ss01" horiz-adv-x="796" 
d="M334 951c-27 0 -42 -17 -44 -46h-80c1 80 45 125 116 125c67 0 103 -52 138 -52c27 0 42 19 44 45h78c-1 -77 -43 -124 -114 -124c-69 0 -105 52 -138 52zM398 824c50 0 86 19 90 47h94c-7 -75 -81 -122 -184 -122s-177 47 -184 122h94c4 -28 40 -47 90 -47zM398 712
c192 0 321 -116 321 -329v-383h-162v168h-320v-168h-160v383c0 213 129 329 321 329zM237 298h320v100c0 119 -64 176 -160 176c-97 0 -160 -57 -160 -176v-100z" />
    <glyph glyph-name="uni01CD.ss01" horiz-adv-x="796" 
d="M467 757h-138l-132 144h114l87 -75l87 75h114zM398 712c192 0 321 -116 321 -329v-383h-162v168h-320v-168h-160v383c0 213 129 329 321 329zM237 298h320v100c0 119 -64 176 -160 176c-97 0 -160 -57 -160 -176v-100z" />
    <glyph glyph-name="Acircumflex.ss01" horiz-adv-x="796" 
d="M398 833l-87 -76h-114l132 144h138l132 -144h-114zM398 712c192 0 321 -116 321 -329v-383h-162v168h-320v-168h-160v383c0 213 129 329 321 329zM237 298h320v100c0 119 -64 176 -160 176c-97 0 -160 -57 -160 -176v-100z" />
    <glyph glyph-name="uni1EA4.ss01" horiz-adv-x="796" 
d="M788 974l-157 -121h-113l111 121h159zM398 814l-86 -57h-115l133 114h136l133 -114h-115zM398 712c192 0 321 -116 321 -329v-383h-162v168h-320v-168h-160v383c0 213 129 329 321 329zM237 298h320v100c0 119 -64 176 -160 176c-97 0 -160 -57 -160 -176v-100z" />
    <glyph glyph-name="uni1EAC.ss01" horiz-adv-x="796" 
d="M398 833l-87 -76h-114l132 144h138l132 -144h-114zM398 712c192 0 321 -116 321 -329v-383h-162v168h-320v-168h-160v383c0 213 129 329 321 329zM237 298h320v100c0 119 -64 176 -160 176c-97 0 -160 -57 -160 -176v-100zM398 -73c39 0 69 -29 69 -70s-30 -67 -69 -67
s-69 26 -69 67s30 70 69 70z" />
    <glyph glyph-name="uni1EA6.ss01" horiz-adv-x="796" 
d="M690 853h-112l-157 121h159zM398 814l-86 -57h-115l133 114h136l133 -114h-115zM398 712c192 0 321 -116 321 -329v-383h-162v168h-320v-168h-160v383c0 213 129 329 321 329zM237 298h320v100c0 119 -64 176 -160 176c-97 0 -160 -57 -160 -176v-100z" />
    <glyph glyph-name="uni1EA8.ss01" horiz-adv-x="796" 
d="M541 942c-16 0 -29 -4 -44 -12l-26 48c23 15 53 22 83 22c56 0 92 -31 92 -79c0 -40 -31 -72 -70 -87l-38 37c27 13 37 29 37 42c0 18 -14 29 -34 29zM398 814l-86 -57h-115l133 114h136l133 -114h-115zM398 712c192 0 321 -116 321 -329v-383h-162v168h-320v-168h-160
v383c0 213 129 329 321 329zM237 298h320v100c0 119 -64 176 -160 176c-97 0 -160 -57 -160 -176v-100z" />
    <glyph glyph-name="uni1EAA.ss01" horiz-adv-x="796" 
d="M334 958c-27 0 -42 -17 -44 -46h-80c1 80 45 125 116 125c67 0 103 -52 138 -52c27 0 42 19 44 45h78c-1 -77 -43 -124 -114 -124c-69 0 -105 52 -138 52zM398 814l-86 -57h-115l133 114h136l133 -114h-115zM398 712c192 0 321 -116 321 -329v-383h-162v168h-320v-168
h-160v383c0 213 129 329 321 329zM237 298h320v100c0 119 -64 176 -160 176c-97 0 -160 -57 -160 -176v-100z" />
    <glyph glyph-name="uni0200.ss01" horiz-adv-x="796" 
d="M354 757h-114l-104 144h146zM556 757h-114l-104 144h146zM398 712c192 0 321 -116 321 -329v-383h-162v168h-320v-168h-160v383c0 213 129 329 321 329zM237 298h320v100c0 119 -64 176 -160 176c-97 0 -160 -57 -160 -176v-100z" />
    <glyph glyph-name="Adieresis.ss01" horiz-adv-x="796" 
d="M297 762c-39 0 -70 28 -70 69s31 69 70 69s69 -28 69 -69s-30 -69 -69 -69zM499 762c-39 0 -69 28 -69 69s30 69 69 69s70 -28 70 -69s-31 -69 -70 -69zM398 712c192 0 321 -116 321 -329v-383h-162v168h-320v-168h-160v383c0 213 129 329 321 329zM237 298h320v100
c0 119 -64 176 -160 176c-97 0 -160 -57 -160 -176v-100z" />
    <glyph glyph-name="uni1EA0.ss01" horiz-adv-x="796" 
d="M398 712c192 0 321 -116 321 -329v-383h-162v168h-320v-168h-160v383c0 213 129 329 321 329zM237 298h320v100c0 119 -64 176 -160 176c-97 0 -160 -57 -160 -176v-100zM398 -73c39 0 69 -29 69 -70s-30 -67 -69 -67s-69 26 -69 67s30 70 69 70z" />
    <glyph glyph-name="Agrave.ss01" horiz-adv-x="796" 
d="M489 757h-122l-181 144h168zM398 712c192 0 321 -116 321 -329v-383h-162v168h-320v-168h-160v383c0 213 129 329 321 329zM237 298h320v100c0 119 -64 176 -160 176c-97 0 -160 -57 -160 -176v-100z" />
    <glyph glyph-name="uni1EA2.ss01" horiz-adv-x="796" 
d="M383 902c-20 0 -39 -6 -59 -19l-32 63c29 23 68 34 108 34c71 0 120 -43 120 -107c0 -57 -31 -98 -92 -126l-49 52c39 18 51 38 51 61c0 25 -19 42 -47 42zM398 712c192 0 321 -116 321 -329v-383h-162v168h-320v-168h-160v383c0 213 129 329 321 329zM237 298h320v100
c0 119 -64 176 -160 176c-97 0 -160 -57 -160 -176v-100z" />
    <glyph glyph-name="uni0202.ss01" horiz-adv-x="796" 
d="M398 828c-47 0 -84 -27 -86 -71h-98c4 94 80 152 184 152s180 -58 184 -152h-98c-2 44 -39 71 -86 71zM398 712c192 0 321 -116 321 -329v-383h-162v168h-320v-168h-160v383c0 213 129 329 321 329zM237 298h320v100c0 119 -64 176 -160 176c-97 0 -160 -57 -160 -176
v-100z" />
    <glyph glyph-name="Amacron.ss01" horiz-adv-x="796" 
d="M583 873v-88h-370v88h370zM398 712c192 0 321 -116 321 -329v-383h-162v168h-320v-168h-160v383c0 213 129 329 321 329zM237 298h320v100c0 119 -64 176 -160 176c-97 0 -160 -57 -160 -176v-100z" />
    <glyph glyph-name="Aogonek.ss01" horiz-adv-x="796" 
d="M720 -138l22 -71c-24 -13 -63 -23 -101 -23c-87 0 -138 45 -138 112c0 44 23 85 73 120h-19v168h-320v-168h-160v383c0 213 129 329 321 329s321 -116 321 -329v-383c-86 -38 -117 -70 -117 -107c0 -28 22 -46 57 -46c22 0 45 6 61 15zM237 298h320v100
c0 119 -64 176 -160 176c-97 0 -160 -57 -160 -176v-100z" />
    <glyph glyph-name="Aring.ss01" horiz-adv-x="796" 
d="M397 754c-70 0 -123 53 -123 121c0 67 53 121 123 121c71 0 125 -54 125 -121c0 -68 -54 -121 -125 -121zM397 936c-33 0 -60 -26 -60 -61s26 -61 60 -61c35 0 61 26 61 61s-26 61 -61 61zM398 712c192 0 321 -116 321 -329v-383h-162v168h-320v-168h-160v383
c0 213 129 329 321 329zM237 298h320v100c0 119 -64 176 -160 176c-97 0 -160 -57 -160 -176v-100z" />
    <glyph glyph-name="Aringacute.ss01" horiz-adv-x="796" 
d="M397 754c-70 0 -123 53 -123 121c0 67 53 121 123 121c19 0 36 -4 52 -10l87 90l77 -60l-108 -78c11 -19 17 -40 17 -63c0 -68 -54 -121 -125 -121zM397 936c-33 0 -60 -26 -60 -61s26 -61 60 -61c35 0 61 26 61 61s-26 61 -61 61zM398 712c192 0 321 -116 321 -329v-383
h-162v168h-320v-168h-160v383c0 213 129 329 321 329zM237 298h320v100c0 119 -64 176 -160 176c-97 0 -160 -57 -160 -176v-100z" />
    <glyph glyph-name="Atilde.ss01" horiz-adv-x="796" 
d="M333 817c-27 0 -46 -20 -48 -56h-79c2 89 47 146 117 146c69 0 104 -64 140 -64c27 0 46 21 48 54h79c-2 -86 -47 -143 -117 -143c-69 0 -104 63 -140 63zM398 712c192 0 321 -116 321 -329v-383h-162v168h-320v-168h-160v383c0 213 129 329 321 329zM237 298h320v100
c0 119 -64 176 -160 176c-97 0 -160 -57 -160 -176v-100z" />
    <glyph glyph-name="AE.ss01" horiz-adv-x="1086" 
d="M666 129h383v-129h-543v177h-273v-177h-163v385c0 203 112 315 314 315h651v-129h-369v-154h327v-123h-327v-165zM233 305h273v257h-108c-112 0 -165 -59 -165 -181v-76z" />
    <glyph glyph-name="AEacute.ss01" horiz-adv-x="1086" 
d="M751 901l-181 -144h-122l135 144h168zM666 129h383v-129h-543v177h-273v-177h-163v385c0 203 112 315 314 315h651v-129h-369v-154h327v-123h-327v-165zM233 305h273v257h-108c-112 0 -165 -59 -165 -181v-76z" />
    <glyph glyph-name="uni01C4.ss01" horiz-adv-x="1449" 
d="M1194 757h-138l-132 144h114l87 -75l87 75h114zM401 700c229 0 386 -138 386 -350s-157 -350 -386 -350h-318v700h318zM1026 130h406v-130h-612v94l166 202h-111v121h210l126 153h-384v130h590v-93l-158 -193h102v-120h-200zM393 133c139 0 230 83 230 217
s-91 217 -230 217h-148v-434h148z" />
    <glyph glyph-name="uni01C5.ss01" horiz-adv-x="1379" 
d="M1171 607h-138l-132 144h114l87 -75l87 75h114zM401 700c229 0 386 -138 386 -350s-157 -350 -386 -350h-318v700h318zM393 133c139 0 230 83 230 217s-91 217 -230 217h-148v-434h148zM1063 120h283v-120h-480v94l107 126h-73v104h161l79 94h-267v120h464v-94l-102 -121
h76v-104h-164z" />
    <glyph glyph-name="E.ss01" horiz-adv-x="667" 
d="M605 182l50 -122c-67 -45 -173 -72 -286 -72c-217 0 -330 88 -330 209c0 76 46 135 116 163c-55 29 -86 82 -86 145c0 110 100 207 315 207c92 0 182 -19 246 -50l-45 -124c-64 30 -129 43 -195 43c-108 0 -157 -36 -157 -87c0 -48 34 -76 107 -76h191v-128h-201
c-80 0 -127 -28 -127 -82c0 -53 52 -89 173 -89c82 0 171 23 229 63z" />
    <glyph glyph-name="Eacute.ss01" horiz-adv-x="667" 
d="M574 901l-181 -144h-122l135 144h168zM605 182l50 -122c-67 -45 -173 -72 -286 -72c-217 0 -330 88 -330 209c0 76 46 135 116 163c-55 29 -86 82 -86 145c0 110 100 207 315 207c92 0 182 -19 246 -50l-45 -124c-64 30 -129 43 -195 43c-108 0 -157 -36 -157 -87
c0 -48 34 -76 107 -76h191v-128h-201c-80 0 -127 -28 -127 -82c0 -53 52 -89 173 -89c82 0 171 23 229 63z" />
    <glyph glyph-name="Ebreve.ss01" horiz-adv-x="667" 
d="M362 749c-104 0 -180 58 -184 152h98c2 -43 39 -71 86 -71s84 28 86 71h98c-4 -94 -80 -152 -184 -152zM605 182l50 -122c-67 -45 -173 -72 -286 -72c-217 0 -330 88 -330 209c0 76 46 135 116 163c-55 29 -86 82 -86 145c0 110 100 207 315 207c92 0 182 -19 246 -50
l-45 -124c-64 30 -129 43 -195 43c-108 0 -157 -36 -157 -87c0 -48 34 -76 107 -76h191v-128h-201c-80 0 -127 -28 -127 -82c0 -53 52 -89 173 -89c82 0 171 23 229 63z" />
    <glyph glyph-name="Ecaron.ss01" horiz-adv-x="667" 
d="M431 757h-138l-132 144h114l87 -75l87 75h114zM605 182l50 -122c-67 -45 -173 -72 -286 -72c-217 0 -330 88 -330 209c0 76 46 135 116 163c-55 29 -86 82 -86 145c0 110 100 207 315 207c92 0 182 -19 246 -50l-45 -124c-64 30 -129 43 -195 43
c-108 0 -157 -36 -157 -87c0 -48 34 -76 107 -76h191v-128h-201c-80 0 -127 -28 -127 -82c0 -53 52 -89 173 -89c82 0 171 23 229 63z" />
    <glyph glyph-name="uni1E1C.ss01" horiz-adv-x="667" 
d="M362 749c-104 0 -180 58 -184 152h98c2 -43 39 -71 86 -71s84 28 86 71h98c-4 -94 -80 -152 -184 -152zM389 -50c61 -7 87 -42 87 -83c0 -61 -58 -99 -147 -99c-35 0 -70 8 -93 21l24 67c19 -9 41 -15 65 -15c37 0 52 13 52 32c0 17 -14 29 -49 29h-34l22 88
c-183 13 -277 96 -277 207c0 76 46 135 116 163c-55 29 -86 82 -86 145c0 110 100 207 315 207c92 0 182 -19 246 -50l-45 -124c-64 30 -129 43 -195 43c-108 0 -157 -36 -157 -87c0 -48 34 -76 107 -76h191v-128h-201c-80 0 -127 -28 -127 -82c0 -53 52 -89 173 -89
c82 0 171 23 229 63l50 -122c-61 -41 -155 -67 -257 -71z" />
    <glyph glyph-name="Ecircumflex.ss01" horiz-adv-x="667" 
d="M362 833l-87 -76h-114l132 144h138l132 -144h-114zM605 182l50 -122c-67 -45 -173 -72 -286 -72c-217 0 -330 88 -330 209c0 76 46 135 116 163c-55 29 -86 82 -86 145c0 110 100 207 315 207c92 0 182 -19 246 -50l-45 -124c-64 30 -129 43 -195 43
c-108 0 -157 -36 -157 -87c0 -48 34 -76 107 -76h191v-128h-201c-80 0 -127 -28 -127 -82c0 -53 52 -89 173 -89c82 0 171 23 229 63z" />
    <glyph glyph-name="uni1EBE.ss01" horiz-adv-x="667" 
d="M752 974l-157 -121h-113l111 121h159zM362 814l-86 -57h-115l133 114h136l133 -114h-115zM376 119c82 0 171 23 229 63l50 -122c-67 -45 -173 -72 -286 -72c-217 0 -330 88 -330 209c0 76 46 135 116 163c-55 29 -86 82 -86 145c0 110 100 207 315 207
c92 0 182 -19 246 -50l-45 -124c-64 30 -129 43 -195 43c-108 0 -157 -36 -157 -87c0 -48 34 -76 107 -76h191v-128h-201c-80 0 -127 -28 -127 -82c0 -53 52 -89 173 -89z" />
    <glyph glyph-name="uni1EC6.ss01" horiz-adv-x="667" 
d="M362 833l-87 -76h-114l132 144h138l132 -144h-114zM655 60c-67 -45 -173 -72 -286 -72c-217 0 -330 88 -330 209c0 76 46 135 116 163c-55 29 -86 82 -86 145c0 110 100 207 315 207c92 0 182 -19 246 -50l-45 -124c-64 30 -129 43 -195 43c-108 0 -157 -36 -157 -87
c0 -48 34 -76 107 -76h191v-128h-201c-80 0 -127 -28 -127 -82c0 -53 52 -89 173 -89c82 0 171 23 229 63zM362 -73c39 0 69 -29 69 -70s-30 -67 -69 -67s-69 26 -69 67s30 70 69 70z" />
    <glyph glyph-name="uni1EC0.ss01" horiz-adv-x="667" 
d="M654 853h-112l-157 121h159zM362 814l-86 -57h-115l133 114h136l133 -114h-115zM605 182l50 -122c-67 -45 -173 -72 -286 -72c-217 0 -330 88 -330 209c0 76 46 135 116 163c-55 29 -86 82 -86 145c0 110 100 207 315 207c92 0 182 -19 246 -50l-45 -124
c-64 30 -129 43 -195 43c-108 0 -157 -36 -157 -87c0 -48 34 -76 107 -76h191v-128h-201c-80 0 -127 -28 -127 -82c0 -53 52 -89 173 -89c82 0 171 23 229 63z" />
    <glyph glyph-name="uni1EC2.ss01" horiz-adv-x="667" 
d="M505 942c-16 0 -29 -4 -44 -12l-26 48c23 15 53 22 83 22c56 0 92 -31 92 -79c0 -40 -31 -72 -70 -87l-38 37c27 13 37 29 37 42c0 18 -14 29 -34 29zM362 814l-86 -57h-115l133 114h136l133 -114h-115zM605 182l50 -122c-67 -45 -173 -72 -286 -72
c-217 0 -330 88 -330 209c0 76 46 135 116 163c-55 29 -86 82 -86 145c0 110 100 207 315 207c92 0 182 -19 246 -50l-45 -124c-64 30 -129 43 -195 43c-108 0 -157 -36 -157 -87c0 -48 34 -76 107 -76h191v-128h-201c-80 0 -127 -28 -127 -82c0 -53 52 -89 173 -89
c82 0 171 23 229 63z" />
    <glyph glyph-name="uni1EC4.ss01" horiz-adv-x="667" 
d="M298 958c-27 0 -42 -17 -44 -46h-80c1 80 45 125 116 125c67 0 103 -52 138 -52c27 0 42 19 44 45h78c-1 -77 -43 -124 -114 -124c-69 0 -105 52 -138 52zM362 814l-86 -57h-115l133 114h136l133 -114h-115zM605 182l50 -122c-67 -45 -173 -72 -286 -72
c-217 0 -330 88 -330 209c0 76 46 135 116 163c-55 29 -86 82 -86 145c0 110 100 207 315 207c92 0 182 -19 246 -50l-45 -124c-64 30 -129 43 -195 43c-108 0 -157 -36 -157 -87c0 -48 34 -76 107 -76h191v-128h-201c-80 0 -127 -28 -127 -82c0 -53 52 -89 173 -89
c82 0 171 23 229 63z" />
    <glyph glyph-name="uni0204.ss01" horiz-adv-x="667" 
d="M318 757h-114l-104 144h146zM520 757h-114l-104 144h146zM605 182l50 -122c-67 -45 -173 -72 -286 -72c-217 0 -330 88 -330 209c0 76 46 135 116 163c-55 29 -86 82 -86 145c0 110 100 207 315 207c92 0 182 -19 246 -50l-45 -124c-64 30 -129 43 -195 43
c-108 0 -157 -36 -157 -87c0 -48 34 -76 107 -76h191v-128h-201c-80 0 -127 -28 -127 -82c0 -53 52 -89 173 -89c82 0 171 23 229 63z" />
    <glyph glyph-name="Edieresis.ss01" horiz-adv-x="667" 
d="M261 762c-39 0 -70 28 -70 69s31 69 70 69s69 -28 69 -69s-30 -69 -69 -69zM463 762c-39 0 -69 28 -69 69s30 69 69 69s70 -28 70 -69s-31 -69 -70 -69zM605 182l50 -122c-67 -45 -173 -72 -286 -72c-217 0 -330 88 -330 209c0 76 46 135 116 163c-55 29 -86 82 -86 145
c0 110 100 207 315 207c92 0 182 -19 246 -50l-45 -124c-64 30 -129 43 -195 43c-108 0 -157 -36 -157 -87c0 -48 34 -76 107 -76h191v-128h-201c-80 0 -127 -28 -127 -82c0 -53 52 -89 173 -89c82 0 171 23 229 63z" />
    <glyph glyph-name="Edotaccent.ss01" horiz-adv-x="667" 
d="M362 762c-49 0 -84 36 -84 85c0 48 35 84 84 84s84 -36 84 -84c0 -49 -35 -85 -84 -85zM605 182l50 -122c-67 -45 -173 -72 -286 -72c-217 0 -330 88 -330 209c0 76 46 135 116 163c-55 29 -86 82 -86 145c0 110 100 207 315 207c92 0 182 -19 246 -50l-45 -124
c-64 30 -129 43 -195 43c-108 0 -157 -36 -157 -87c0 -48 34 -76 107 -76h191v-128h-201c-80 0 -127 -28 -127 -82c0 -53 52 -89 173 -89c82 0 171 23 229 63z" />
    <glyph glyph-name="uni1EB8.ss01" horiz-adv-x="667" 
d="M655 60c-67 -45 -173 -72 -286 -72c-217 0 -330 88 -330 209c0 76 46 135 116 163c-55 29 -86 82 -86 145c0 110 100 207 315 207c92 0 182 -19 246 -50l-45 -124c-64 30 -129 43 -195 43c-108 0 -157 -36 -157 -87c0 -48 34 -76 107 -76h191v-128h-201
c-80 0 -127 -28 -127 -82c0 -53 52 -89 173 -89c82 0 171 23 229 63zM362 -73c39 0 69 -29 69 -70s-30 -67 -69 -67s-69 26 -69 67s30 70 69 70z" />
    <glyph glyph-name="Egrave.ss01" horiz-adv-x="667" 
d="M453 757h-122l-181 144h168zM605 182l50 -122c-67 -45 -173 -72 -286 -72c-217 0 -330 88 -330 209c0 76 46 135 116 163c-55 29 -86 82 -86 145c0 110 100 207 315 207c92 0 182 -19 246 -50l-45 -124c-64 30 -129 43 -195 43c-108 0 -157 -36 -157 -87
c0 -48 34 -76 107 -76h191v-128h-201c-80 0 -127 -28 -127 -82c0 -53 52 -89 173 -89c82 0 171 23 229 63z" />
    <glyph glyph-name="uni1EBA.ss01" horiz-adv-x="667" 
d="M347 902c-20 0 -39 -6 -59 -19l-32 63c29 23 68 34 108 34c71 0 120 -43 120 -107c0 -57 -31 -98 -92 -126l-49 52c39 18 51 38 51 61c0 25 -19 42 -47 42zM605 182l50 -122c-67 -45 -173 -72 -286 -72c-217 0 -330 88 -330 209c0 76 46 135 116 163
c-55 29 -86 82 -86 145c0 110 100 207 315 207c92 0 182 -19 246 -50l-45 -124c-64 30 -129 43 -195 43c-108 0 -157 -36 -157 -87c0 -48 34 -76 107 -76h191v-128h-201c-80 0 -127 -28 -127 -82c0 -53 52 -89 173 -89c82 0 171 23 229 63z" />
    <glyph glyph-name="uni0206.ss01" horiz-adv-x="667" 
d="M362 828c-47 0 -84 -27 -86 -71h-98c4 94 80 152 184 152s180 -58 184 -152h-98c-2 44 -39 71 -86 71zM605 182l50 -122c-67 -45 -173 -72 -286 -72c-217 0 -330 88 -330 209c0 76 46 135 116 163c-55 29 -86 82 -86 145c0 110 100 207 315 207c92 0 182 -19 246 -50
l-45 -124c-64 30 -129 43 -195 43c-108 0 -157 -36 -157 -87c0 -48 34 -76 107 -76h191v-128h-201c-80 0 -127 -28 -127 -82c0 -53 52 -89 173 -89c82 0 171 23 229 63z" />
    <glyph glyph-name="Emacron.ss01" horiz-adv-x="667" 
d="M547 873v-88h-370v88h370zM605 182l50 -122c-67 -45 -173 -72 -286 -72c-217 0 -330 88 -330 209c0 76 46 135 116 163c-55 29 -86 82 -86 145c0 110 100 207 315 207c92 0 182 -19 246 -50l-45 -124c-64 30 -129 43 -195 43c-108 0 -157 -36 -157 -87
c0 -48 34 -76 107 -76h191v-128h-201c-80 0 -127 -28 -127 -82c0 -53 52 -89 173 -89c82 0 171 23 229 63z" />
    <glyph glyph-name="uni1E16.ss01" horiz-adv-x="667" 
d="M546 1039l-157 -121h-113l111 121h159zM547 856v-83h-370v83h370zM605 182l50 -122c-67 -45 -173 -72 -286 -72c-217 0 -330 88 -330 209c0 76 46 135 116 163c-55 29 -86 82 -86 145c0 110 100 207 315 207c92 0 182 -19 246 -50l-45 -124c-64 30 -129 43 -195 43
c-108 0 -157 -36 -157 -87c0 -48 34 -76 107 -76h191v-128h-201c-80 0 -127 -28 -127 -82c0 -53 52 -89 173 -89c82 0 171 23 229 63z" />
    <glyph glyph-name="uni1E14.ss01" horiz-adv-x="667" 
d="M448 918h-112l-157 121h159zM547 856v-83h-370v83h370zM605 182l50 -122c-67 -45 -173 -72 -286 -72c-217 0 -330 88 -330 209c0 76 46 135 116 163c-55 29 -86 82 -86 145c0 110 100 207 315 207c92 0 182 -19 246 -50l-45 -124c-64 30 -129 43 -195 43
c-108 0 -157 -36 -157 -87c0 -48 34 -76 107 -76h191v-128h-201c-80 0 -127 -28 -127 -82c0 -53 52 -89 173 -89c82 0 171 23 229 63z" />
    <glyph glyph-name="Eogonek.ss01" horiz-adv-x="667" 
d="M557 -153c22 0 45 6 61 15l22 -71c-24 -13 -63 -23 -100 -23c-88 0 -139 45 -139 112c0 41 16 80 51 114c-27 -4 -54 -6 -83 -6c-217 0 -330 88 -330 209c0 76 46 135 116 163c-55 29 -86 82 -86 145c0 110 100 207 315 207c92 0 182 -19 246 -50l-45 -124
c-64 30 -129 43 -195 43c-108 0 -157 -36 -157 -87c0 -48 34 -76 107 -76h191v-128h-201c-80 0 -127 -28 -127 -82c0 -53 52 -89 173 -89c82 0 171 25 229 63l50 -122c-119 -68 -155 -123 -155 -164c0 -31 22 -49 57 -49z" />
    <glyph glyph-name="uni1EBC.ss01" horiz-adv-x="667" 
d="M297 817c-27 0 -46 -20 -48 -56h-79c2 89 47 146 117 146c69 0 104 -64 140 -64c27 0 46 21 48 54h79c-2 -86 -47 -143 -117 -143c-69 0 -104 63 -140 63zM605 182l50 -122c-67 -45 -173 -72 -286 -72c-217 0 -330 88 -330 209c0 76 46 135 116 163
c-55 29 -86 82 -86 145c0 110 100 207 315 207c92 0 182 -19 246 -50l-45 -124c-64 30 -129 43 -195 43c-108 0 -157 -36 -157 -87c0 -48 34 -76 107 -76h191v-128h-201c-80 0 -127 -28 -127 -82c0 -53 52 -89 173 -89c82 0 171 23 229 63z" />
    <glyph glyph-name="F.ss01" horiz-adv-x="615" 
d="M409 574c-112 0 -170 -49 -170 -146v-43h288v-130h-288v-255h-162v427c0 180 119 285 321 285c80 0 153 -17 205 -49l-50 -128c-43 28 -95 39 -144 39z" />
    <glyph glyph-name="G.ss01" horiz-adv-x="771" 
d="M556 171v190h148v-361h-122v42c-50 -37 -114 -54 -188 -54c-191 0 -355 126 -355 356c0 217 162 368 385 368c123 0 225 -42 293 -121l-104 -96c-51 54 -110 79 -181 79c-136 0 -229 -91 -229 -229c0 -148 99 -222 210 -222c53 0 103 15 143 48z" />
    <glyph glyph-name="Gbreve.ss01" horiz-adv-x="771" 
d="M417 749c-104 0 -180 58 -184 152h98c2 -43 39 -71 86 -71s84 28 86 71h98c-4 -94 -80 -152 -184 -152zM556 171v190h148v-361h-122v42c-50 -37 -114 -54 -188 -54c-191 0 -355 126 -355 356c0 217 162 368 385 368c123 0 225 -42 293 -121l-104 -96
c-51 54 -110 79 -181 79c-136 0 -229 -91 -229 -229c0 -148 99 -222 210 -222c53 0 103 15 143 48z" />
    <glyph glyph-name="Gcaron.ss01" horiz-adv-x="771" 
d="M486 757h-138l-132 144h114l87 -75l87 75h114zM556 171v190h148v-361h-122v42c-50 -37 -114 -54 -188 -54c-191 0 -355 126 -355 356c0 217 162 368 385 368c123 0 225 -42 293 -121l-104 -96c-51 54 -110 79 -181 79c-136 0 -229 -91 -229 -229c0 -148 99 -222 210 -222
c53 0 103 15 143 48z" />
    <glyph glyph-name="Gcircumflex.ss01" horiz-adv-x="771" 
d="M417 833l-87 -76h-114l132 144h138l132 -144h-114zM556 171v190h148v-361h-122v42c-50 -37 -114 -54 -188 -54c-191 0 -355 126 -355 356c0 217 162 368 385 368c123 0 225 -42 293 -121l-104 -96c-51 54 -110 79 -181 79c-136 0 -229 -91 -229 -229
c0 -148 99 -222 210 -222c53 0 103 15 143 48z" />
    <glyph glyph-name="Gcommaaccent.ss01" horiz-adv-x="771" 
d="M556 171v190h148v-361h-122v42c-50 -37 -114 -54 -188 -54c-191 0 -355 126 -355 356c0 217 162 368 385 368c123 0 225 -42 293 -121l-104 -96c-51 54 -110 79 -181 79c-136 0 -229 -91 -229 -229c0 -148 99 -222 210 -222c53 0 103 15 143 48zM407 -71
c43 0 69 -25 69 -60c0 -16 -3 -37 -18 -65l-35 -68h-73l25 80c-24 8 -37 27 -37 53c0 35 26 60 69 60z" />
    <glyph glyph-name="Gdotaccent.ss01" horiz-adv-x="771" 
d="M417 762c-49 0 -84 36 -84 85c0 48 35 84 84 84s84 -36 84 -84c0 -49 -35 -85 -84 -85zM556 171v190h148v-361h-122v42c-50 -37 -114 -54 -188 -54c-191 0 -355 126 -355 356c0 217 162 368 385 368c123 0 225 -42 293 -121l-104 -96c-51 54 -110 79 -181 79
c-136 0 -229 -91 -229 -229c0 -148 99 -222 210 -222c53 0 103 15 143 48z" />
    <glyph glyph-name="uni1E20.ss01" horiz-adv-x="771" 
d="M602 873v-88h-370v88h370zM556 171v190h148v-361h-122v42c-50 -37 -114 -54 -188 -54c-191 0 -355 126 -355 356c0 217 162 368 385 368c123 0 225 -42 293 -121l-104 -96c-51 54 -110 79 -181 79c-136 0 -229 -91 -229 -229c0 -148 99 -222 210 -222c53 0 103 15 143 48
z" />
    <glyph glyph-name="uni01E4.ss01" horiz-adv-x="816" 
d="M795 305v-107h-91v-198h-122v42c-50 -37 -114 -54 -188 -54c-191 0 -355 126 -355 356c0 217 162 368 385 368c123 0 225 -42 293 -121l-104 -96c-51 54 -110 79 -181 79c-136 0 -229 -91 -229 -229c0 -148 99 -222 210 -222c53 0 103 15 143 48v27h-160v107h160v56h148
v-56h91z" />
    <glyph glyph-name="I.ss01" horiz-adv-x="483" 
d="M444 570h-121v-440h121v-130h-405v130h122v440h-122v130h405v-130z" />
    <glyph glyph-name="IJ.ss01" horiz-adv-x="724" 
d="M327 -109c-106 0 -199 30 -266 77l61 122c62 -42 134 -64 202 -64c106 0 161 57 161 182v492h162v-482c0 -214 -127 -327 -320 -327zM77 222v478h162v-478h-162z" />
    <glyph glyph-name="Iacute.ss01" horiz-adv-x="483" 
d="M454 901l-181 -144h-122l135 144h168zM39 570v130h405v-130h-121v-440h121v-130h-405v130h122v440h-122z" />
    <glyph glyph-name="Iacute_J.loclNLD.ss01" horiz-adv-x="724" 
d="M84 757l134 144h156l-181 -144h-109zM491 757l135 144h156l-182 -144h-109zM327 -108c-106 0 -199 32 -266 79l61 120c62 -41 134 -63 199 -63c108 0 163 57 163 183v489h163v-481c0 -213 -127 -327 -320 -327zM77 222v478h162v-478h-162z" />
    <glyph glyph-name="Ibreve.ss01" horiz-adv-x="483" 
d="M242 749c-104 0 -180 58 -184 152h98c2 -43 39 -71 86 -71s84 28 86 71h98c-4 -94 -80 -152 -184 -152zM444 570h-121v-440h121v-130h-405v130h122v440h-122v130h405v-130z" />
    <glyph glyph-name="Icircumflex.ss01" horiz-adv-x="483" 
d="M242 833l-87 -76h-114l132 144h138l132 -144h-114zM444 570h-121v-440h121v-130h-405v130h122v440h-122v130h405v-130z" />
    <glyph glyph-name="uni0208.ss01" horiz-adv-x="483" 
d="M198 757h-114l-104 144h146zM400 757h-114l-104 144h146zM444 570h-121v-440h121v-130h-405v130h122v440h-122v130h405v-130z" />
    <glyph glyph-name="Idieresis.ss01" horiz-adv-x="483" 
d="M141 762c-39 0 -70 28 -70 69s31 69 70 69s69 -28 69 -69s-30 -69 -69 -69zM343 762c-39 0 -69 28 -69 69s30 69 69 69s70 -28 70 -69s-31 -69 -70 -69zM444 570h-121v-440h121v-130h-405v130h122v440h-122v130h405v-130z" />
    <glyph glyph-name="uni1E2E.ss01" horiz-adv-x="483" 
d="M426 1039l-157 -121h-113l111 121h159zM144 762c-37 0 -66 27 -66 66c0 38 29 66 66 66c38 0 67 -28 67 -66c0 -39 -29 -66 -67 -66zM274 828c0 38 30 66 66 66c37 0 66 -28 66 -66c0 -39 -29 -66 -66 -66c-36 0 -66 27 -66 66zM444 570h-121v-440h121v-130h-405v130h122
v440h-122v130h405v-130z" />
    <glyph glyph-name="Idotaccent.ss01" horiz-adv-x="483" 
d="M242 762c-49 0 -84 36 -84 85c0 48 35 84 84 84s84 -36 84 -84c0 -49 -35 -85 -84 -85zM444 570h-121v-440h121v-130h-405v130h122v440h-122v130h405v-130z" />
    <glyph glyph-name="uni1ECA.ss01" horiz-adv-x="483" 
d="M444 570h-121v-440h121v-130h-405v130h122v440h-122v130h405v-130zM242 -73c39 0 69 -29 69 -70s-30 -67 -69 -67s-69 26 -69 67s30 70 69 70z" />
    <glyph glyph-name="Igrave.ss01" horiz-adv-x="483" 
d="M333 757h-122l-181 144h168zM444 570h-121v-440h121v-130h-405v130h122v440h-122v130h405v-130z" />
    <glyph glyph-name="uni1EC8.ss01" horiz-adv-x="483" 
d="M227 902c-20 0 -39 -6 -59 -19l-32 63c29 23 68 34 108 34c71 0 120 -43 120 -107c0 -57 -31 -98 -92 -126l-49 52c39 18 51 38 51 61c0 25 -19 42 -47 42zM444 570h-121v-440h121v-130h-405v130h122v440h-122v130h405v-130z" />
    <glyph glyph-name="uni020A.ss01" horiz-adv-x="483" 
d="M242 828c-47 0 -84 -27 -86 -71h-98c4 94 80 152 184 152s180 -58 184 -152h-98c-2 44 -39 71 -86 71zM444 570h-121v-440h121v-130h-405v130h122v440h-122v130h405v-130z" />
    <glyph glyph-name="Imacron.ss01" horiz-adv-x="483" 
d="M427 873v-88h-370v88h370zM444 570h-121v-440h121v-130h-405v130h122v440h-122v130h405v-130z" />
    <glyph glyph-name="Iogonek.ss01" horiz-adv-x="483" 
d="M444 570h-121v-440h121v-130h-120c-51 -41 -65 -74 -65 -106c0 -29 19 -47 42 -47c11 0 22 3 32 10l22 -68c-18 -13 -45 -21 -74 -21c-72 0 -120 44 -120 111c0 44 19 85 58 121h-180v130h122v440h-122v130h405v-130z" />
    <glyph glyph-name="Itilde.ss01" horiz-adv-x="483" 
d="M177 817c-27 0 -46 -20 -48 -56h-79c2 89 47 146 117 146c69 0 104 -64 140 -64c27 0 46 21 48 54h79c-2 -86 -47 -143 -117 -143c-69 0 -104 63 -140 63zM444 570h-121v-440h121v-130h-405v130h122v440h-122v130h405v-130z" />
    <glyph glyph-name="J.ss01" horiz-adv-x="540" 
d="M210 -112c-94 0 -175 36 -226 102l88 108c38 -51 80 -77 129 -77c66 0 100 39 100 116v433h-245v130h407v-554c0 -173 -88 -258 -253 -258z" />
    <glyph glyph-name="uni00A40301.ss01" horiz-adv-x="540" 
d="M169 757l135 144h168l-181 -144h-122zM210 -112c-94 0 -175 36 -226 102l88 108c38 -51 80 -77 129 -77c66 0 100 39 100 116v433h-245v130h407v-554c0 -173 -88 -258 -253 -258z" />
    <glyph glyph-name="Jcircumflex.ss01" horiz-adv-x="540" 
d="M260 833l-87 -76h-114l132 144h138l132 -144h-114zM56 700h407v-554c0 -173 -88 -258 -253 -258c-94 0 -175 36 -226 102l88 108c38 -51 80 -77 129 -77c66 0 100 39 100 116v433h-245v130z" />
    <glyph glyph-name="uni01C7.ss01" horiz-adv-x="1174" 
d="M83 0v700h162v-568h351v-132h-513zM844 -112c-94 0 -175 36 -226 102l88 108c38 -51 80 -77 129 -77c66 0 100 39 100 116v433h-245v130h407v-554c0 -173 -88 -258 -253 -258z" />
    <glyph glyph-name="M.ss01" horiz-adv-x="1221" 
d="M882 712c163 0 262 -97 262 -282v-430h-162v425c0 102 -60 149 -140 149c-88 0 -151 -48 -151 -159v-415h-162v425c0 102 -54 149 -134 149c-86 0 -150 -48 -150 -159v-415h-162v700h157v-86c42 62 114 98 207 98c97 0 170 -37 209 -103c48 67 130 103 226 103z" />
    <glyph glyph-name="uni1E42.ss01" horiz-adv-x="1221" 
d="M882 712c163 0 262 -97 262 -282v-430h-162v425c0 102 -60 149 -140 149c-88 0 -151 -48 -151 -159v-415h-162v425c0 102 -54 149 -134 149c-86 0 -150 -48 -150 -159v-415h-162v700h157v-86c42 62 114 98 207 98c97 0 170 -37 209 -103c48 67 130 103 226 103zM611 -73
c39 0 69 -29 69 -70s-30 -67 -69 -67s-69 26 -69 67s30 70 69 70z" />
    <glyph glyph-name="N.ss01" horiz-adv-x="796" 
d="M454 712c166 0 265 -107 265 -302v-410h-162v405c0 115 -58 169 -149 169c-94 0 -163 -57 -163 -180v-394h-162v700h157v-85c48 65 122 97 214 97z" />
    <glyph glyph-name="uni01CA.ss01" horiz-adv-x="1336" 
d="M454 712c166 0 265 -107 265 -302v-410h-162v405c0 115 -58 169 -149 169c-94 0 -163 -57 -163 -180v-394h-162v700h157v-85c48 65 122 97 214 97zM852 700h407v-554c0 -173 -88 -258 -253 -258c-94 0 -175 36 -226 102l88 108c38 -51 80 -77 129 -77
c66 0 100 39 100 116v433h-245v130z" />
    <glyph glyph-name="Nacute.ss01" horiz-adv-x="796" 
d="M613 901l-181 -144h-122l135 144h168zM454 712c166 0 265 -107 265 -302v-410h-162v405c0 115 -58 169 -149 169c-94 0 -163 -57 -163 -180v-394h-162v700h157v-85c48 65 122 97 214 97z" />
    <glyph glyph-name="Ncaron.ss01" horiz-adv-x="796" 
d="M470 757h-138l-132 144h114l87 -75l87 75h114zM454 712c166 0 265 -107 265 -302v-410h-162v405c0 115 -58 169 -149 169c-94 0 -163 -57 -163 -180v-394h-162v700h157v-85c48 65 122 97 214 97z" />
    <glyph glyph-name="Ncommaaccent.ss01" horiz-adv-x="796" 
d="M454 712c166 0 265 -107 265 -302v-410h-162v405c0 115 -58 169 -149 169c-94 0 -163 -57 -163 -180v-394h-162v700h157v-85c48 65 122 97 214 97zM401 -73c43 0 69 -25 69 -60c0 -16 -3 -37 -18 -65l-35 -68h-73l25 80c-24 8 -37 27 -37 53c0 35 26 60 69 60z" />
    <glyph glyph-name="uni1E44.ss01" horiz-adv-x="796" 
d="M401 762c-49 0 -84 36 -84 85c0 48 35 84 84 84s84 -36 84 -84c0 -49 -35 -85 -84 -85zM454 712c166 0 265 -107 265 -302v-410h-162v405c0 115 -58 169 -149 169c-94 0 -163 -57 -163 -180v-394h-162v700h157v-85c48 65 122 97 214 97z" />
    <glyph glyph-name="uni1E46.ss01" horiz-adv-x="796" 
d="M454 712c166 0 265 -107 265 -302v-410h-162v405c0 115 -58 169 -149 169c-94 0 -163 -57 -163 -180v-394h-162v700h157v-85c48 65 122 97 214 97zM401 -73c39 0 69 -29 69 -70s-30 -67 -69 -67s-69 26 -69 67s30 70 69 70z" />
    <glyph glyph-name="Eng.ss01" horiz-adv-x="796" 
d="M454 712c166 0 265 -107 265 -302v-353c0 -174 -88 -259 -251 -259c-74 0 -141 22 -189 66l76 116c28 -29 63 -46 104 -46c64 0 98 39 98 116v355c0 115 -58 169 -149 169c-94 0 -163 -57 -163 -180v-394h-162v700h157v-85c48 65 122 97 214 97z" />
    <glyph glyph-name="uni01CB.ss01" horiz-adv-x="1103" 
d="M953 613c-58 0 -97 38 -97 87s39 87 97 87s97 -36 97 -84c0 -52 -39 -90 -97 -90zM719 0h-162v405c0 115 -58 169 -149 169c-94 0 -163 -57 -163 -180v-394h-162v700h157v-85c48 65 122 97 214 97c166 0 265 -107 265 -302v-410zM875 0v538h156v-537
c0 -124 -73 -203 -203 -203c-48 0 -95 9 -125 30l42 113c17 -12 40 -19 66 -19c39 0 64 25 64 78z" />
    <glyph glyph-name="uni1E48.ss01" horiz-adv-x="796" 
d="M454 712c166 0 265 -107 265 -302v-410h-162v405c0 115 -58 169 -149 169c-94 0 -163 -57 -163 -180v-394h-162v700h157v-85c48 65 122 97 214 97zM216 -182v87h370v-87h-370z" />
    <glyph glyph-name="Ntilde.ss01" horiz-adv-x="796" 
d="M336 817c-27 0 -46 -20 -48 -56h-79c2 89 47 146 117 146c69 0 104 -64 140 -64c27 0 46 21 48 54h79c-2 -86 -47 -143 -117 -143c-69 0 -104 63 -140 63zM454 712c166 0 265 -107 265 -302v-410h-162v405c0 115 -58 169 -149 169c-94 0 -163 -57 -163 -180v-394h-162
v700h157v-85c48 65 122 97 214 97z" />
    <glyph glyph-name="Q.ss01" horiz-adv-x="844" 
d="M805 350c0 -182 -124 -322 -302 -355v-130h-163v130c-178 33 -301 174 -301 355c0 208 162 362 383 362c220 0 383 -153 383 -362zM496 137c89 28 145 106 145 213c0 133 -94 224 -219 224s-219 -91 -219 -224c0 -106 56 -184 143 -213v144h150v-144z" />
    <glyph glyph-name="uni018F.ss01" horiz-adv-x="817" 
d="M398 712c222 0 380 -152 380 -361c0 -212 -157 -363 -369 -363c-174 0 -308 98 -354 257l535 215c-35 69 -107 114 -193 114c-72 0 -152 -28 -203 -82l-97 105c66 68 179 115 301 115zM409 117c127 0 205 84 205 214v18l-369 -150c30 -52 85 -82 164 -82z" />
    <glyph glyph-name="T.ss01" horiz-adv-x="638" 
d="M648 625l-55 -121c-60 35 -123 57 -193 67v-571h-162v571c-69 -10 -133 -32 -194 -67l-55 121c97 58 212 87 329 87c118 0 234 -29 330 -87z" />
    <glyph glyph-name="Tbar.ss01" horiz-adv-x="638" 
d="M593 504c-60 35 -123 57 -193 67v-201h134v-108h-134v-262h-162v262h-136v108h136v201c-69 -10 -133 -32 -194 -67l-55 121c97 58 212 87 329 87c118 0 234 -29 330 -87z" />
    <glyph glyph-name="Tcaron.ss01" horiz-adv-x="638" 
d="M391 757h-138l-132 144h114l87 -75l87 75h114zM648 625l-55 -121c-60 35 -123 57 -193 67v-571h-162v571c-69 -10 -133 -32 -194 -67l-55 121c97 58 212 87 329 87c118 0 234 -29 330 -87z" />
    <glyph glyph-name="uni0162.ss01" horiz-adv-x="638" 
d="M400 0h-42l-12 -50c61 -7 87 -42 87 -83c0 -61 -58 -99 -147 -99c-35 0 -70 8 -93 21l24 67c19 -9 41 -15 65 -15c37 0 52 13 52 32c0 17 -14 29 -49 29h-34l24 98h-37v571c-69 -10 -133 -32 -194 -67l-55 121c97 58 212 87 329 87c118 0 234 -29 330 -87l-55 -121
c-60 35 -123 57 -193 67v-571z" />
    <glyph glyph-name="uni021A.ss01" horiz-adv-x="638" 
d="M648 625l-55 -121c-60 35 -123 57 -193 67v-571h-162v571c-69 -10 -133 -32 -194 -67l-55 121c97 58 212 87 329 87c118 0 234 -29 330 -87zM319 -73c43 0 69 -25 69 -60c0 -16 -3 -37 -18 -65l-35 -68h-73l25 80c-24 8 -37 27 -37 53c0 35 26 60 69 60z" />
    <glyph glyph-name="uni1E6C.ss01" horiz-adv-x="638" 
d="M648 625l-55 -121c-60 35 -123 57 -193 67v-571h-162v571c-69 -10 -133 -32 -194 -67l-55 121c97 58 212 87 329 87c118 0 234 -29 330 -87zM319 -73c39 0 69 -29 69 -70s-30 -67 -69 -67s-69 26 -69 67s30 70 69 70z" />
    <glyph glyph-name="uni1E6E.ss01" horiz-adv-x="638" 
d="M318 712c118 0 234 -29 330 -87l-55 -121c-60 35 -123 57 -193 67v-571h-162v571c-69 -10 -133 -32 -194 -67l-55 121c97 58 212 87 329 87zM134 -182v87h370v-87h-370z" />
    <glyph glyph-name="U.ss01" horiz-adv-x="792" 
d="M547 700h162v-700h-157v85c-48 -65 -120 -97 -212 -97c-163 0 -263 107 -263 302v410h162v-405c0 -115 59 -169 147 -169c93 0 161 57 161 180v394z" />
    <glyph glyph-name="Uacute.ss01" horiz-adv-x="792" 
d="M603 901l-181 -144h-122l135 144h168zM547 700h162v-700h-157v85c-48 -65 -120 -97 -212 -97c-163 0 -263 107 -263 302v410h162v-405c0 -115 59 -169 147 -169c93 0 161 57 161 180v394z" />
    <glyph glyph-name="Ubreve.ss01" horiz-adv-x="792" 
d="M391 749c-104 0 -180 58 -184 152h98c2 -43 39 -71 86 -71s84 28 86 71h98c-4 -94 -80 -152 -184 -152zM547 700h162v-700h-157v85c-48 -65 -120 -97 -212 -97c-163 0 -263 107 -263 302v410h162v-405c0 -115 59 -169 147 -169c93 0 161 57 161 180v394z" />
    <glyph glyph-name="uni01D3.ss01" horiz-adv-x="792" 
d="M460 757h-138l-132 144h114l87 -75l87 75h114zM547 700h162v-700h-157v85c-48 -65 -120 -97 -212 -97c-163 0 -263 107 -263 302v410h162v-405c0 -115 59 -169 147 -169c93 0 161 57 161 180v394z" />
    <glyph glyph-name="Ucircumflex.ss01" horiz-adv-x="792" 
d="M391 833l-87 -76h-114l132 144h138l132 -144h-114zM547 700h162v-700h-157v85c-48 -65 -120 -97 -212 -97c-163 0 -263 107 -263 302v410h162v-405c0 -115 59 -169 147 -169c93 0 161 57 161 180v394z" />
    <glyph glyph-name="uni0214.ss01" horiz-adv-x="792" 
d="M347 757h-114l-104 144h146zM549 757h-114l-104 144h146zM547 700h162v-700h-157v85c-48 -65 -120 -97 -212 -97c-163 0 -263 107 -263 302v410h162v-405c0 -115 59 -169 147 -169c93 0 161 57 161 180v394z" />
    <glyph glyph-name="Udieresis.ss01" horiz-adv-x="792" 
d="M290 762c-39 0 -70 28 -70 69s31 69 70 69s69 -28 69 -69s-30 -69 -69 -69zM492 762c-39 0 -69 28 -69 69s30 69 69 69s70 -28 70 -69s-31 -69 -70 -69zM547 700h162v-700h-157v85c-48 -65 -120 -97 -212 -97c-163 0 -263 107 -263 302v410h162v-405
c0 -115 59 -169 147 -169c93 0 161 57 161 180v394z" />
    <glyph glyph-name="uni1EE4.ss01" horiz-adv-x="792" 
d="M547 700h162v-700h-157v85c-48 -65 -120 -97 -212 -97c-163 0 -263 107 -263 302v410h162v-405c0 -115 59 -169 147 -169c93 0 161 57 161 180v394zM391 -73c39 0 69 -29 69 -70s-30 -67 -69 -67s-69 26 -69 67s30 70 69 70z" />
    <glyph glyph-name="Ugrave.ss01" horiz-adv-x="792" 
d="M482 757h-122l-181 144h168zM547 700h162v-700h-157v85c-48 -65 -120 -97 -212 -97c-163 0 -263 107 -263 302v410h162v-405c0 -115 59 -169 147 -169c93 0 161 57 161 180v394z" />
    <glyph glyph-name="uni1EE6.ss01" horiz-adv-x="792" 
d="M376 902c-20 0 -39 -6 -59 -19l-32 63c29 23 68 34 108 34c71 0 120 -43 120 -107c0 -57 -31 -98 -92 -126l-49 52c39 18 51 38 51 61c0 25 -19 42 -47 42zM547 700h162v-700h-157v85c-48 -65 -120 -97 -212 -97c-163 0 -263 107 -263 302v410h162v-405
c0 -115 59 -169 147 -169c93 0 161 57 161 180v394z" />
    <glyph glyph-name="Uhorn.ss01" horiz-adv-x="792" 
d="M810 757c0 -76 -37 -130 -101 -151v-606h-157v85c-48 -65 -120 -97 -212 -97c-163 0 -263 107 -263 302v410h162v-405c0 -115 59 -169 147 -169c93 0 161 57 161 180v394h99c36 0 60 26 60 63c0 24 -8 45 -20 60l92 34c20 -26 32 -60 32 -100z" />
    <glyph glyph-name="uni1EE8.ss01" horiz-adv-x="792" 
d="M603 901l-181 -144h-122l135 144h168zM810 757c0 -76 -37 -130 -101 -151v-606h-157v85c-48 -65 -120 -97 -212 -97c-163 0 -263 107 -263 302v410h162v-405c0 -115 59 -169 147 -169c93 0 161 57 161 180v394h99c36 0 60 26 60 63c0 24 -8 45 -20 60l92 34
c20 -26 32 -60 32 -100z" />
    <glyph glyph-name="uni1EF0.ss01" horiz-adv-x="792" 
d="M810 757c0 -76 -37 -130 -101 -151v-606h-157v85c-48 -65 -120 -97 -212 -97c-163 0 -263 107 -263 302v410h162v-405c0 -115 59 -169 147 -169c93 0 161 57 161 180v394h99c36 0 60 26 60 63c0 24 -8 45 -20 60l92 34c20 -26 32 -60 32 -100zM391 -73
c39 0 69 -29 69 -70s-30 -67 -69 -67s-69 26 -69 67s30 70 69 70z" />
    <glyph glyph-name="uni1EEA.ss01" horiz-adv-x="792" 
d="M482 757h-122l-181 144h168zM810 757c0 -76 -37 -130 -101 -151v-606h-157v85c-48 -65 -120 -97 -212 -97c-163 0 -263 107 -263 302v410h162v-405c0 -115 59 -169 147 -169c93 0 161 57 161 180v394h99c36 0 60 26 60 63c0 24 -8 45 -20 60l92 34c20 -26 32 -60 32 -100
z" />
    <glyph glyph-name="uni1EEC.ss01" horiz-adv-x="792" 
d="M376 902c-20 0 -39 -6 -59 -19l-32 63c29 23 68 34 108 34c71 0 120 -43 120 -107c0 -57 -31 -98 -92 -126l-49 52c39 18 51 38 51 61c0 25 -19 42 -47 42zM810 757c0 -76 -37 -130 -101 -151v-606h-157v85c-48 -65 -120 -97 -212 -97c-163 0 -263 107 -263 302v410h162
v-405c0 -115 59 -169 147 -169c93 0 161 57 161 180v394h99c36 0 60 26 60 63c0 24 -8 45 -20 60l92 34c20 -26 32 -60 32 -100z" />
    <glyph glyph-name="uni1EEE.ss01" horiz-adv-x="792" 
d="M326 817c-27 0 -46 -20 -48 -56h-79c2 89 47 146 117 146c69 0 104 -64 140 -64c27 0 46 21 48 54h79c-2 -86 -47 -143 -117 -143c-69 0 -104 63 -140 63zM810 757c0 -76 -37 -130 -101 -151v-606h-157v85c-48 -65 -120 -97 -212 -97c-163 0 -263 107 -263 302v410h162
v-405c0 -115 59 -169 147 -169c93 0 161 57 161 180v394h99c36 0 60 26 60 63c0 24 -8 45 -20 60l92 34c20 -26 32 -60 32 -100z" />
    <glyph glyph-name="Uhungarumlaut.ss01" horiz-adv-x="792" 
d="M451 901l-104 -144h-114l72 144h146zM549 757h-114l72 144h146zM547 700h162v-700h-157v85c-48 -65 -120 -97 -212 -97c-163 0 -263 107 -263 302v410h162v-405c0 -115 59 -169 147 -169c93 0 161 57 161 180v394z" />
    <glyph glyph-name="uni0216.ss01" horiz-adv-x="792" 
d="M391 828c-47 0 -84 -27 -86 -71h-98c4 94 80 152 184 152s180 -58 184 -152h-98c-2 44 -39 71 -86 71zM547 700h162v-700h-157v85c-48 -65 -120 -97 -212 -97c-163 0 -263 107 -263 302v410h162v-405c0 -115 59 -169 147 -169c93 0 161 57 161 180v394z" />
    <glyph glyph-name="Umacron.ss01" horiz-adv-x="792" 
d="M576 873v-88h-370v88h370zM547 700h162v-700h-157v85c-48 -65 -120 -97 -212 -97c-163 0 -263 107 -263 302v410h162v-405c0 -115 59 -169 147 -169c93 0 161 57 161 180v394z" />
    <glyph glyph-name="uni1E7A.ss01" horiz-adv-x="792" 
d="M293 924c-37 0 -66 27 -66 66c0 38 29 66 66 66c38 0 67 -28 67 -66c0 -39 -29 -66 -67 -66zM489 924c-36 0 -66 27 -66 66c0 38 30 66 66 66c37 0 66 -28 66 -66c0 -39 -29 -66 -66 -66zM576 857v-83h-370v83h370zM547 700h162v-700h-157v85c-48 -65 -120 -97 -212 -97
c-163 0 -263 107 -263 302v410h162v-405c0 -115 59 -169 147 -169c93 0 161 57 161 180v394z" />
    <glyph glyph-name="Uogonek.ss01" horiz-adv-x="792" 
d="M710 -138l22 -71c-24 -13 -63 -23 -101 -23c-87 0 -138 45 -138 112c0 44 23 85 73 120h-14v85c-48 -65 -120 -97 -212 -97c-163 0 -263 107 -263 302v410h162v-405c0 -115 59 -169 147 -169c93 0 161 57 161 180v394h162v-700c-86 -38 -117 -70 -117 -107
c0 -28 22 -46 57 -46c22 0 45 6 61 15z" />
    <glyph glyph-name="Uring.ss01" horiz-adv-x="792" 
d="M390 754c-70 0 -123 53 -123 121c0 67 53 121 123 121c71 0 125 -54 125 -121c0 -68 -54 -121 -125 -121zM390 936c-33 0 -60 -26 -60 -61s26 -61 60 -61c35 0 61 26 61 61s-26 61 -61 61zM547 700h162v-700h-157v85c-48 -65 -120 -97 -212 -97c-163 0 -263 107 -263 302
v410h162v-405c0 -115 59 -169 147 -169c93 0 161 57 161 180v394z" />
    <glyph glyph-name="Utilde.ss01" horiz-adv-x="792" 
d="M326 817c-27 0 -46 -20 -48 -56h-79c2 89 47 146 117 146c69 0 104 -64 140 -64c27 0 46 21 48 54h79c-2 -86 -47 -143 -117 -143c-69 0 -104 63 -140 63zM547 700h162v-700h-157v85c-48 -65 -120 -97 -212 -97c-163 0 -263 107 -263 302v410h162v-405
c0 -115 59 -169 147 -169c93 0 161 57 161 180v394z" />
    <glyph glyph-name="uni1E78.ss01" horiz-adv-x="792" 
d="M575 1039l-157 -121h-113l111 121h159zM327 807c-27 0 -42 -17 -44 -46h-80c1 80 45 125 116 125c67 0 103 -52 138 -52c27 0 42 19 44 45h78c-1 -77 -43 -124 -114 -124c-69 0 -105 52 -138 52zM547 700h162v-700h-157v85c-48 -65 -120 -97 -212 -97
c-163 0 -263 107 -263 302v410h162v-405c0 -115 59 -169 147 -169c93 0 161 57 161 180v394z" />
    <glyph glyph-name="W.ss01" horiz-adv-x="1201" 
d="M961 700h163v-413c0 -196 -111 -299 -303 -299c-98 0 -174 31 -221 80c-48 -49 -122 -80 -220 -80c-192 0 -303 103 -303 299v413h162v-408c0 -116 49 -166 139 -166c89 0 141 50 141 166v408h162v-408c0 -116 52 -166 142 -166c88 0 138 50 138 166v408z" />
    <glyph glyph-name="Wacute.ss01" horiz-adv-x="1201" 
d="M812 901l-181 -144h-122l135 144h168zM961 700h163v-413c0 -196 -111 -299 -303 -299c-98 0 -174 31 -221 80c-48 -49 -122 -80 -220 -80c-192 0 -303 103 -303 299v413h162v-408c0 -116 49 -166 139 -166c89 0 141 50 141 166v408h162v-408c0 -116 52 -166 142 -166
c88 0 138 50 138 166v408z" />
    <glyph glyph-name="Wcircumflex.ss01" horiz-adv-x="1201" 
d="M600 833l-87 -76h-114l132 144h138l132 -144h-114zM961 700h163v-413c0 -196 -111 -299 -303 -299c-98 0 -174 31 -221 80c-48 -49 -122 -80 -220 -80c-192 0 -303 103 -303 299v413h162v-408c0 -116 49 -166 139 -166c89 0 141 50 141 166v408h162v-408
c0 -116 52 -166 142 -166c88 0 138 50 138 166v408z" />
    <glyph glyph-name="Wdieresis.ss01" horiz-adv-x="1201" 
d="M499 762c-39 0 -70 28 -70 69s31 69 70 69s69 -28 69 -69s-30 -69 -69 -69zM701 762c-39 0 -69 28 -69 69s30 69 69 69s70 -28 70 -69s-31 -69 -70 -69zM961 700h163v-413c0 -196 -111 -299 -303 -299c-98 0 -174 31 -221 80c-48 -49 -122 -80 -220 -80
c-192 0 -303 103 -303 299v413h162v-408c0 -116 49 -166 139 -166c89 0 141 50 141 166v408h162v-408c0 -116 52 -166 142 -166c88 0 138 50 138 166v408z" />
    <glyph glyph-name="Wgrave.ss01" horiz-adv-x="1201" 
d="M691 757h-122l-181 144h168zM961 700h163v-413c0 -196 -111 -299 -303 -299c-98 0 -174 31 -221 80c-48 -49 -122 -80 -220 -80c-192 0 -303 103 -303 299v413h162v-408c0 -116 49 -166 139 -166c89 0 141 50 141 166v408h162v-408c0 -116 52 -166 142 -166
c88 0 138 50 138 166v408z" />
    <glyph glyph-name="Y.ss01" horiz-adv-x="785" 
d="M546 700h162v-481c0 -213 -127 -327 -331 -327c-122 0 -221 36 -289 94l63 120c63 -51 139 -77 222 -77c116 0 173 57 173 182v43c-47 -58 -115 -86 -198 -86c-176 0 -276 103 -276 293v239h162v-229c0 -111 56 -166 149 -166c95 0 163 53 163 177v218z" />
    <glyph glyph-name="Yacute.ss01" horiz-adv-x="785" 
d="M602 901l-181 -144h-122l135 144h168zM546 700h162v-481c0 -213 -127 -327 -331 -327c-122 0 -221 36 -289 94l63 120c63 -51 139 -77 222 -77c116 0 173 57 173 182v43c-47 -58 -115 -86 -198 -86c-176 0 -276 103 -276 293v239h162v-229c0 -111 56 -166 149 -166
c95 0 163 53 163 177v218z" />
    <glyph glyph-name="Ycircumflex.ss01" horiz-adv-x="785" 
d="M390 833l-87 -76h-114l132 144h138l132 -144h-114zM546 700h162v-481c0 -213 -127 -327 -331 -327c-122 0 -221 36 -289 94l63 120c63 -51 139 -77 222 -77c116 0 173 57 173 182v43c-47 -58 -115 -86 -198 -86c-176 0 -276 103 -276 293v239h162v-229
c0 -111 56 -166 149 -166c95 0 163 53 163 177v218z" />
    <glyph glyph-name="Ydieresis.ss01" horiz-adv-x="785" 
d="M289 762c-39 0 -70 28 -70 69s31 69 70 69s69 -28 69 -69s-30 -69 -69 -69zM491 762c-39 0 -69 28 -69 69s30 69 69 69s70 -28 70 -69s-31 -69 -70 -69zM546 700h162v-481c0 -213 -127 -327 -331 -327c-122 0 -221 36 -289 94l63 120c63 -51 139 -77 222 -77
c116 0 173 57 173 182v43c-47 -58 -115 -86 -198 -86c-176 0 -276 103 -276 293v239h162v-229c0 -111 56 -166 149 -166c95 0 163 53 163 177v218z" />
    <glyph glyph-name="uni1E8E.ss01" horiz-adv-x="785" 
d="M390 762c-49 0 -84 36 -84 85c0 48 35 84 84 84s84 -36 84 -84c0 -49 -35 -85 -84 -85zM546 700h162v-481c0 -213 -127 -327 -331 -327c-122 0 -221 36 -289 94l63 120c63 -51 139 -77 222 -77c116 0 173 57 173 182v43c-47 -58 -115 -86 -198 -86
c-176 0 -276 103 -276 293v239h162v-229c0 -111 56 -166 149 -166c95 0 163 53 163 177v218z" />
    <glyph glyph-name="uni1EF4.ss01" horiz-adv-x="785" 
d="M708 219c0 -213 -127 -327 -331 -327c-122 0 -221 36 -289 94l63 120c63 -51 139 -77 222 -77c116 0 173 57 173 182v43c-47 -58 -115 -86 -198 -86c-176 0 -276 103 -276 293v239h162v-229c0 -111 56 -166 149 -166c95 0 163 53 163 177v218h162v-481zM671 -73
c39 0 69 -29 69 -70s-30 -67 -69 -67s-69 26 -69 67s30 70 69 70z" />
    <glyph glyph-name="Ygrave.ss01" horiz-adv-x="785" 
d="M481 757h-122l-181 144h168zM546 700h162v-481c0 -213 -127 -327 -331 -327c-122 0 -221 36 -289 94l63 120c63 -51 139 -77 222 -77c116 0 173 57 173 182v43c-47 -58 -115 -86 -198 -86c-176 0 -276 103 -276 293v239h162v-229c0 -111 56 -166 149 -166
c95 0 163 53 163 177v218z" />
    <glyph glyph-name="uni1EF6.ss01" horiz-adv-x="785" 
d="M375 902c-20 0 -39 -6 -59 -19l-32 63c29 23 68 34 108 34c71 0 120 -43 120 -107c0 -57 -31 -98 -92 -126l-49 52c39 18 51 38 51 61c0 25 -19 42 -47 42zM546 700h162v-481c0 -213 -127 -327 -331 -327c-122 0 -221 36 -289 94l63 120c63 -51 139 -77 222 -77
c116 0 173 57 173 182v43c-47 -58 -115 -86 -198 -86c-176 0 -276 103 -276 293v239h162v-229c0 -111 56 -166 149 -166c95 0 163 53 163 177v218z" />
    <glyph glyph-name="uni0232.ss01" horiz-adv-x="785" 
d="M575 873v-88h-370v88h370zM546 700h162v-481c0 -213 -127 -327 -331 -327c-122 0 -221 36 -289 94l63 120c63 -51 139 -77 222 -77c116 0 173 57 173 182v43c-47 -58 -115 -86 -198 -86c-176 0 -276 103 -276 293v239h162v-229c0 -111 56 -166 149 -166
c95 0 163 53 163 177v218z" />
    <glyph glyph-name="uni1EF8.ss01" horiz-adv-x="785" 
d="M325 817c-27 0 -46 -20 -48 -56h-79c2 89 47 146 117 146c69 0 104 -64 140 -64c27 0 46 21 48 54h79c-2 -86 -47 -143 -117 -143c-69 0 -104 63 -140 63zM546 700h162v-481c0 -213 -127 -327 -331 -327c-122 0 -221 36 -289 94l63 120c63 -51 139 -77 222 -77
c116 0 173 57 173 182v43c-47 -58 -115 -86 -198 -86c-176 0 -276 103 -276 293v239h162v-229c0 -111 56 -166 149 -166c95 0 163 53 163 177v218z" />
    <glyph glyph-name="Z.ss01" horiz-adv-x="681" 
d="M249 130h406v-130h-612v94l166 202h-111v121h210l126 153h-384v130h590v-93l-158 -193h102v-120h-200z" />
    <glyph glyph-name="Zacute.ss01" horiz-adv-x="681" 
d="M560 901l-181 -144h-122l135 144h168zM249 130h406v-130h-612v94l166 202h-111v121h210l126 153h-384v130h590v-93l-158 -193h102v-120h-200z" />
    <glyph glyph-name="Zcaron.ss01" horiz-adv-x="681" 
d="M417 757h-138l-132 144h114l87 -75l87 75h114zM249 130h406v-130h-612v94l166 202h-111v121h210l126 153h-384v130h590v-93l-158 -193h102v-120h-200z" />
    <glyph glyph-name="Zdotaccent.ss01" horiz-adv-x="681" 
d="M348 762c-49 0 -84 36 -84 85c0 48 35 84 84 84s84 -36 84 -84c0 -49 -35 -85 -84 -85zM249 130h406v-130h-612v94l166 202h-111v121h210l126 153h-384v130h590v-93l-158 -193h102v-120h-200z" />
    <glyph glyph-name="uni1E92.ss01" horiz-adv-x="681" 
d="M249 130h406v-130h-612v94l166 202h-111v121h210l126 153h-384v130h590v-93l-158 -193h102v-120h-200zM351 -73c39 0 69 -29 69 -70s-30 -67 -69 -67s-69 26 -69 67s30 70 69 70z" />
    <glyph glyph-name="a" unicode="a" horiz-adv-x="617" 
d="M289 546c164 0 259 -76 259 -239v-307h-146v67c-29 -49 -85 -75 -164 -75c-126 0 -201 70 -201 163c0 95 67 161 231 161h124c0 67 -40 106 -124 106c-57 0 -116 -19 -155 -50l-56 109c59 42 146 65 232 65zM277 97c52 0 97 24 115 73v55h-107c-73 0 -96 -27 -96 -63
c0 -39 33 -65 88 -65z" />
    <glyph glyph-name="aacute" unicode="&#xe1;" horiz-adv-x="617" 
d="M517 751l-181 -144h-122l135 144h168zM289 546c164 0 259 -76 259 -239v-307h-146v67c-29 -49 -85 -75 -164 -75c-126 0 -201 70 -201 163c0 95 67 161 231 161h124c0 67 -40 106 -124 106c-57 0 -116 -19 -155 -50l-56 109c59 42 146 65 232 65zM277 97
c52 0 97 24 115 73v55h-107c-73 0 -96 -27 -96 -63c0 -39 33 -65 88 -65z" />
    <glyph glyph-name="abreve" unicode="&#x103;" horiz-adv-x="617" 
d="M305 599c-104 0 -180 58 -184 152h98c2 -43 39 -71 86 -71s84 28 86 71h98c-4 -94 -80 -152 -184 -152zM289 546c164 0 259 -76 259 -239v-307h-146v67c-29 -49 -85 -75 -164 -75c-126 0 -201 70 -201 163c0 95 67 161 231 161h124c0 67 -40 106 -124 106
c-57 0 -116 -19 -155 -50l-56 109c59 42 146 65 232 65zM277 97c52 0 97 24 115 73v55h-107c-73 0 -96 -27 -96 -63c0 -39 33 -65 88 -65z" />
    <glyph glyph-name="uni1EAF" unicode="&#x1eaf;" horiz-adv-x="617" 
d="M489 872l-157 -121h-113l111 121h159zM305 599c-103 0 -177 47 -184 122h94c4 -28 40 -47 90 -47s86 19 90 47h94c-7 -75 -81 -122 -184 -122zM289 546c164 0 259 -76 259 -239v-307h-146v67c-29 -49 -85 -75 -164 -75c-126 0 -201 70 -201 163c0 95 67 161 231 161h124
c0 67 -40 106 -124 106c-57 0 -116 -19 -155 -50l-56 109c59 42 146 65 232 65zM277 97c52 0 97 24 115 73v55h-107c-73 0 -96 -27 -96 -63c0 -39 33 -65 88 -65z" />
    <glyph glyph-name="uni1EB7" unicode="&#x1eb7;" horiz-adv-x="617" 
d="M305 599c-104 0 -180 58 -184 152h98c2 -43 39 -71 86 -71s84 28 86 71h98c-4 -94 -80 -152 -184 -152zM289 546c164 0 259 -76 259 -239v-307h-146v67c-29 -49 -85 -75 -164 -75c-126 0 -201 70 -201 163c0 95 67 161 231 161h124c0 67 -40 106 -124 106
c-57 0 -116 -19 -155 -50l-56 109c59 42 146 65 232 65zM277 97c52 0 97 24 115 73v55h-107c-73 0 -96 -27 -96 -63c0 -39 33 -65 88 -65zM293 -73c39 0 69 -29 69 -70s-30 -67 -69 -67s-69 26 -69 67s30 70 69 70z" />
    <glyph glyph-name="uni1EB1" unicode="&#x1eb1;" horiz-adv-x="617" 
d="M391 751h-112l-157 121h159zM305 599c-103 0 -177 47 -184 122h94c4 -28 40 -47 90 -47s86 19 90 47h94c-7 -75 -81 -122 -184 -122zM289 546c164 0 259 -76 259 -239v-307h-146v67c-29 -49 -85 -75 -164 -75c-126 0 -201 70 -201 163c0 95 67 161 231 161h124
c0 67 -40 106 -124 106c-57 0 -116 -19 -155 -50l-56 109c59 42 146 65 232 65zM277 97c52 0 97 24 115 73v55h-107c-73 0 -96 -27 -96 -63c0 -39 33 -65 88 -65z" />
    <glyph glyph-name="uni1EB3" unicode="&#x1eb3;" horiz-adv-x="617" 
d="M295 831c-16 0 -29 -4 -44 -12l-26 48c23 15 53 22 83 22c56 0 92 -31 92 -79c0 -40 -31 -72 -70 -87l-38 37c27 13 37 29 37 42c0 18 -14 29 -34 29zM305 599c-103 0 -177 47 -184 122h94c4 -28 40 -47 90 -47s86 19 90 47h94c-7 -75 -81 -122 -184 -122zM289 546
c164 0 259 -76 259 -239v-307h-146v67c-29 -49 -85 -75 -164 -75c-126 0 -201 70 -201 163c0 95 67 161 231 161h124c0 67 -40 106 -124 106c-57 0 -116 -19 -155 -50l-56 109c59 42 146 65 232 65zM277 97c52 0 97 24 115 73v55h-107c-73 0 -96 -27 -96 -63
c0 -39 33 -65 88 -65z" />
    <glyph glyph-name="uni1EB5" unicode="&#x1eb5;" horiz-adv-x="617" 
d="M241 801c-27 0 -42 -17 -44 -46h-80c1 80 45 125 116 125c67 0 103 -52 138 -52c27 0 42 19 44 45h78c-1 -77 -43 -124 -114 -124c-69 0 -105 52 -138 52zM305 674c50 0 86 19 90 47h94c-7 -75 -81 -122 -184 -122s-177 47 -184 122h94c4 -28 40 -47 90 -47zM289 546
c164 0 259 -76 259 -239v-307h-146v67c-29 -49 -85 -75 -164 -75c-126 0 -201 70 -201 163c0 95 67 161 231 161h124c0 67 -40 106 -124 106c-57 0 -116 -19 -155 -50l-56 109c59 42 146 65 232 65zM277 97c52 0 97 24 115 73v55h-107c-73 0 -96 -27 -96 -63
c0 -39 33 -65 88 -65z" />
    <glyph glyph-name="uni01CE" unicode="&#x1ce;" horiz-adv-x="617" 
d="M374 607h-138l-132 144h114l87 -75l87 75h114zM289 546c164 0 259 -76 259 -239v-307h-146v67c-29 -49 -85 -75 -164 -75c-126 0 -201 70 -201 163c0 95 67 161 231 161h124c0 67 -40 106 -124 106c-57 0 -116 -19 -155 -50l-56 109c59 42 146 65 232 65zM277 97
c52 0 97 24 115 73v55h-107c-73 0 -96 -27 -96 -63c0 -39 33 -65 88 -65z" />
    <glyph glyph-name="acircumflex" unicode="&#xe2;" horiz-adv-x="617" 
d="M305 683l-87 -76h-114l132 144h138l132 -144h-114zM289 546c164 0 259 -76 259 -239v-307h-146v67c-29 -49 -85 -75 -164 -75c-126 0 -201 70 -201 163c0 95 67 161 231 161h124c0 67 -40 106 -124 106c-57 0 -116 -19 -155 -50l-56 109c59 42 146 65 232 65zM277 97
c52 0 97 24 115 73v55h-107c-73 0 -96 -27 -96 -63c0 -39 33 -65 88 -65z" />
    <glyph glyph-name="uni1EA5" unicode="&#x1ea5;" horiz-adv-x="617" 
d="M695 824l-157 -121h-113l111 121h159zM305 664l-86 -57h-115l133 114h136l133 -114h-115zM289 546c164 0 259 -76 259 -239v-307h-146v67c-29 -49 -85 -75 -164 -75c-126 0 -201 70 -201 163c0 95 67 161 231 161h124c0 67 -40 106 -124 106c-57 0 -116 -19 -155 -50
l-56 109c59 42 146 65 232 65zM277 97c52 0 97 24 115 73v55h-107c-73 0 -96 -27 -96 -63c0 -39 33 -65 88 -65z" />
    <glyph glyph-name="uni1EAD" unicode="&#x1ead;" horiz-adv-x="617" 
d="M305 683l-87 -76h-114l132 144h138l132 -144h-114zM289 546c164 0 259 -76 259 -239v-307h-146v67c-29 -49 -85 -75 -164 -75c-126 0 -201 70 -201 163c0 95 67 161 231 161h124c0 67 -40 106 -124 106c-57 0 -116 -19 -155 -50l-56 109c59 42 146 65 232 65zM277 97
c52 0 97 24 115 73v55h-107c-73 0 -96 -27 -96 -63c0 -39 33 -65 88 -65zM293 -73c39 0 69 -29 69 -70s-30 -67 -69 -67s-69 26 -69 67s30 70 69 70z" />
    <glyph glyph-name="uni1EA7" unicode="&#x1ea7;" horiz-adv-x="617" 
d="M597 703h-112l-157 121h159zM305 664l-86 -57h-115l133 114h136l133 -114h-115zM289 546c164 0 259 -76 259 -239v-307h-146v67c-29 -49 -85 -75 -164 -75c-126 0 -201 70 -201 163c0 95 67 161 231 161h124c0 67 -40 106 -124 106c-57 0 -116 -19 -155 -50l-56 109
c59 42 146 65 232 65zM277 97c52 0 97 24 115 73v55h-107c-73 0 -96 -27 -96 -63c0 -39 33 -65 88 -65z" />
    <glyph glyph-name="uni1EA9" unicode="&#x1ea9;" horiz-adv-x="617" 
d="M448 792c-16 0 -29 -4 -44 -12l-26 48c23 15 53 22 83 22c56 0 92 -31 92 -79c0 -40 -31 -72 -70 -87l-38 37c27 13 37 29 37 42c0 18 -14 29 -34 29zM305 664l-86 -57h-115l133 114h136l133 -114h-115zM289 546c164 0 259 -76 259 -239v-307h-146v67
c-29 -49 -85 -75 -164 -75c-126 0 -201 70 -201 163c0 95 67 161 231 161h124c0 67 -40 106 -124 106c-57 0 -116 -19 -155 -50l-56 109c59 42 146 65 232 65zM277 97c52 0 97 24 115 73v55h-107c-73 0 -96 -27 -96 -63c0 -39 33 -65 88 -65z" />
    <glyph glyph-name="uni1EAB" unicode="&#x1eab;" horiz-adv-x="617" 
d="M241 808c-27 0 -42 -17 -44 -46h-80c1 80 45 125 116 125c67 0 103 -52 138 -52c27 0 42 19 44 45h78c-1 -77 -43 -124 -114 -124c-69 0 -105 52 -138 52zM305 664l-86 -57h-115l133 114h136l133 -114h-115zM289 546c164 0 259 -76 259 -239v-307h-146v67
c-29 -49 -85 -75 -164 -75c-126 0 -201 70 -201 163c0 95 67 161 231 161h124c0 67 -40 106 -124 106c-57 0 -116 -19 -155 -50l-56 109c59 42 146 65 232 65zM277 97c52 0 97 24 115 73v55h-107c-73 0 -96 -27 -96 -63c0 -39 33 -65 88 -65z" />
    <glyph glyph-name="uni0201" unicode="&#x201;" horiz-adv-x="617" 
d="M261 607h-114l-104 144h146zM463 607h-114l-104 144h146zM289 546c164 0 259 -76 259 -239v-307h-146v67c-29 -49 -85 -75 -164 -75c-126 0 -201 70 -201 163c0 95 67 161 231 161h124c0 67 -40 106 -124 106c-57 0 -116 -19 -155 -50l-56 109c59 42 146 65 232 65z
M277 97c52 0 97 24 115 73v55h-107c-73 0 -96 -27 -96 -63c0 -39 33 -65 88 -65z" />
    <glyph glyph-name="adieresis" unicode="&#xe4;" horiz-adv-x="617" 
d="M204 612c-39 0 -70 28 -70 69s31 69 70 69s69 -28 69 -69s-30 -69 -69 -69zM406 612c-39 0 -69 28 -69 69s30 69 69 69s70 -28 70 -69s-31 -69 -70 -69zM289 546c164 0 259 -76 259 -239v-307h-146v67c-29 -49 -85 -75 -164 -75c-126 0 -201 70 -201 163
c0 95 67 161 231 161h124c0 67 -40 106 -124 106c-57 0 -116 -19 -155 -50l-56 109c59 42 146 65 232 65zM277 97c52 0 97 24 115 73v55h-107c-73 0 -96 -27 -96 -63c0 -39 33 -65 88 -65z" />
    <glyph glyph-name="uni1EA1" unicode="&#x1ea1;" horiz-adv-x="617" 
d="M289 546c164 0 259 -76 259 -239v-307h-146v67c-29 -49 -85 -75 -164 -75c-126 0 -201 70 -201 163c0 95 67 161 231 161h124c0 67 -40 106 -124 106c-57 0 -116 -19 -155 -50l-56 109c59 42 146 65 232 65zM277 97c52 0 97 24 115 73v55h-107c-73 0 -96 -27 -96 -63
c0 -39 33 -65 88 -65zM293 -73c39 0 69 -29 69 -70s-30 -67 -69 -67s-69 26 -69 67s30 70 69 70z" />
    <glyph glyph-name="agrave" unicode="&#xe0;" horiz-adv-x="617" 
d="M396 607h-122l-181 144h168zM289 546c164 0 259 -76 259 -239v-307h-146v67c-29 -49 -85 -75 -164 -75c-126 0 -201 70 -201 163c0 95 67 161 231 161h124c0 67 -40 106 -124 106c-57 0 -116 -19 -155 -50l-56 109c59 42 146 65 232 65zM277 97c52 0 97 24 115 73v55
h-107c-73 0 -96 -27 -96 -63c0 -39 33 -65 88 -65z" />
    <glyph glyph-name="uni1EA3" unicode="&#x1ea3;" horiz-adv-x="617" 
d="M290 752c-20 0 -39 -6 -59 -19l-32 63c29 23 68 34 108 34c71 0 120 -43 120 -107c0 -57 -31 -98 -92 -126l-49 52c39 18 51 38 51 61c0 25 -19 42 -47 42zM289 546c164 0 259 -76 259 -239v-307h-146v67c-29 -49 -85 -75 -164 -75c-126 0 -201 70 -201 163
c0 95 67 161 231 161h124c0 67 -40 106 -124 106c-57 0 -116 -19 -155 -50l-56 109c59 42 146 65 232 65zM277 97c52 0 97 24 115 73v55h-107c-73 0 -96 -27 -96 -63c0 -39 33 -65 88 -65z" />
    <glyph glyph-name="uni0203" unicode="&#x203;" horiz-adv-x="617" 
d="M305 678c-47 0 -84 -27 -86 -71h-98c4 94 80 152 184 152s180 -58 184 -152h-98c-2 44 -39 71 -86 71zM289 546c164 0 259 -76 259 -239v-307h-146v67c-29 -49 -85 -75 -164 -75c-126 0 -201 70 -201 163c0 95 67 161 231 161h124c0 67 -40 106 -124 106
c-57 0 -116 -19 -155 -50l-56 109c59 42 146 65 232 65zM277 97c52 0 97 24 115 73v55h-107c-73 0 -96 -27 -96 -63c0 -39 33 -65 88 -65z" />
    <glyph glyph-name="amacron" unicode="&#x101;" horiz-adv-x="617" 
d="M490 723v-88h-370v88h370zM289 546c164 0 259 -76 259 -239v-307h-146v67c-29 -49 -85 -75 -164 -75c-126 0 -201 70 -201 163c0 95 67 161 231 161h124c0 67 -40 106 -124 106c-57 0 -116 -19 -155 -50l-56 109c59 42 146 65 232 65zM277 97c52 0 97 24 115 73v55h-107
c-73 0 -96 -27 -96 -63c0 -39 33 -65 88 -65z" />
    <glyph glyph-name="aogonek" unicode="&#x105;" horiz-adv-x="617" 
d="M549 -138l22 -71c-24 -13 -63 -23 -101 -23c-87 0 -138 45 -138 112c0 44 23 85 73 120h-3v67c-29 -49 -85 -75 -164 -75c-126 0 -201 70 -201 163c0 95 67 161 231 161h124c0 67 -40 106 -124 106c-57 0 -116 -19 -155 -50l-56 109c59 42 146 65 232 65
c164 0 259 -76 259 -239v-307c-86 -38 -117 -70 -117 -107c0 -28 22 -46 57 -46c22 0 45 6 61 15zM277 97c52 0 97 24 115 73v55h-107c-73 0 -96 -27 -96 -63c0 -39 33 -65 88 -65z" />
    <glyph glyph-name="aring" unicode="&#xe5;" horiz-adv-x="617" 
d="M304 592c-70 0 -123 53 -123 121c0 67 53 121 123 121c71 0 125 -54 125 -121c0 -68 -54 -121 -125 -121zM304 774c-33 0 -60 -26 -60 -61s26 -61 60 -61c35 0 61 26 61 61s-26 61 -61 61zM289 546c164 0 259 -76 259 -239v-307h-146v67c-29 -49 -85 -75 -164 -75
c-126 0 -201 70 -201 163c0 95 67 161 231 161h124c0 67 -40 106 -124 106c-57 0 -116 -19 -155 -50l-56 109c59 42 146 65 232 65zM277 97c52 0 97 24 115 73v55h-107c-73 0 -96 -27 -96 -63c0 -39 33 -65 88 -65z" />
    <glyph glyph-name="aringacute" unicode="&#x1fb;" horiz-adv-x="617" 
d="M304 592c-70 0 -123 53 -123 121c0 67 53 121 123 121c19 0 36 -4 52 -10l87 90l77 -60l-108 -78c11 -19 17 -40 17 -63c0 -68 -54 -121 -125 -121zM304 774c-33 0 -60 -26 -60 -61s26 -61 60 -61c35 0 61 26 61 61s-26 61 -61 61zM289 546c164 0 259 -76 259 -239v-307
h-146v67c-29 -49 -85 -75 -164 -75c-126 0 -201 70 -201 163c0 95 67 161 231 161h124c0 67 -40 106 -124 106c-57 0 -116 -19 -155 -50l-56 109c59 42 146 65 232 65zM277 97c52 0 97 24 115 73v55h-107c-73 0 -96 -27 -96 -63c0 -39 33 -65 88 -65z" />
    <glyph glyph-name="atilde" unicode="&#xe3;" horiz-adv-x="617" 
d="M240 667c-27 0 -46 -20 -48 -56h-79c2 89 47 146 117 146c69 0 104 -64 140 -64c27 0 46 21 48 54h79c-2 -86 -47 -143 -117 -143c-69 0 -104 63 -140 63zM289 546c164 0 259 -76 259 -239v-307h-146v67c-29 -49 -85 -75 -164 -75c-126 0 -201 70 -201 163
c0 95 67 161 231 161h124c0 67 -40 106 -124 106c-57 0 -116 -19 -155 -50l-56 109c59 42 146 65 232 65zM277 97c52 0 97 24 115 73v55h-107c-73 0 -96 -27 -96 -63c0 -39 33 -65 88 -65z" />
    <glyph glyph-name="ae" unicode="&#xe6;" horiz-adv-x="996" 
d="M963 271c0 -17 -1 -32 -3 -45h-408c14 -67 70 -109 153 -109c54 0 97 17 136 52l83 -90c-52 -57 -128 -87 -222 -87c-92 0 -175 28 -233 93c-47 -71 -126 -93 -206 -93c-141 0 -226 68 -226 169c0 88 67 156 231 156h124c0 65 -40 105 -123 105c-58 0 -117 -19 -156 -50
l-56 109c59 42 146 65 231 65c90 0 157 -26 198 -76c49 48 119 76 198 76c154 0 279 -108 279 -275zM682 428c-62 0 -119 -38 -132 -111h262c-11 73 -68 111 -130 111zM279 97c71 0 113 41 113 104v25h-107c-73 0 -96 -27 -96 -62c0 -42 33 -67 90 -67z" />
    <glyph glyph-name="aeacute" unicode="&#x1fd;" horiz-adv-x="996" 
d="M682 751l-181 -144h-122l135 144h168zM963 271c0 -17 -1 -32 -3 -45h-408c14 -67 70 -109 153 -109c54 0 97 17 136 52l83 -90c-52 -57 -128 -87 -222 -87c-92 0 -175 28 -233 93c-47 -71 -126 -93 -206 -93c-141 0 -226 68 -226 169c0 88 67 156 231 156h124
c0 65 -40 105 -123 105c-58 0 -117 -19 -156 -50l-56 109c59 42 146 65 231 65c90 0 157 -26 198 -76c49 48 119 76 198 76c154 0 279 -108 279 -275zM682 428c-62 0 -119 -38 -132 -111h262c-11 73 -68 111 -130 111zM279 97c71 0 113 41 113 104v25h-107
c-73 0 -96 -27 -96 -62c0 -42 33 -67 90 -67z" />
    <glyph glyph-name="b" unicode="b" horiz-adv-x="690" 
d="M390 546c151 0 268 -108 268 -277s-117 -277 -268 -277c-72 0 -130 23 -169 70v-62h-149v742h156v-261c40 44 95 65 162 65zM363 120c78 0 137 56 137 149s-59 149 -137 149s-137 -56 -137 -149s59 -149 137 -149z" />
    <glyph glyph-name="c" unicode="c" horiz-adv-x="591" 
d="M332 -8c-175 0 -300 115 -300 277s125 277 300 277c113 0 202 -49 241 -137l-121 -65c-29 51 -72 74 -121 74c-79 0 -141 -55 -141 -149s62 -149 141 -149c49 0 92 22 121 74l121 -66c-39 -86 -128 -136 -241 -136z" />
    <glyph glyph-name="cacute" unicode="&#x107;" horiz-adv-x="591" 
d="M222 607l135 144h168l-181 -144h-122zM332 -8c-175 0 -300 115 -300 277s125 277 300 277c113 0 202 -49 241 -137l-121 -65c-29 51 -72 74 -121 74c-79 0 -141 -55 -141 -149s62 -149 141 -149c49 0 92 22 121 74l121 -66c-39 -86 -128 -136 -241 -136z" />
    <glyph glyph-name="ccaron" unicode="&#x10d;" horiz-adv-x="591" 
d="M382 607h-138l-132 144h114l87 -75l87 75h114zM331 120c49 0 92 22 121 74l121 -66c-39 -86 -128 -136 -241 -136c-175 0 -300 115 -300 277s125 277 300 277c113 0 202 -49 241 -137l-121 -65c-29 51 -72 74 -121 74c-79 0 -141 -55 -141 -149s62 -149 141 -149z" />
    <glyph glyph-name="ccedilla" unicode="&#xe7;" horiz-adv-x="591" 
d="M331 120c49 0 92 22 121 74l121 -66c-37 -83 -121 -132 -228 -136l-10 -42c61 -7 87 -42 87 -83c0 -61 -58 -99 -147 -99c-35 0 -70 8 -93 21l24 67c19 -9 41 -15 65 -15c37 0 52 13 52 32c0 17 -14 29 -49 29h-34l24 96c-139 26 -232 131 -232 271
c0 162 125 277 300 277c113 0 202 -49 241 -137l-121 -65c-29 51 -72 74 -121 74c-79 0 -141 -55 -141 -149s62 -149 141 -149z" />
    <glyph glyph-name="uni1E09" unicode="&#x1e09;" horiz-adv-x="591" 
d="M525 751l-181 -144h-122l135 144h168zM331 120c49 0 92 22 121 74l121 -66c-37 -83 -121 -132 -228 -136l-10 -42c61 -7 87 -42 87 -83c0 -61 -58 -99 -147 -99c-35 0 -70 8 -93 21l24 67c19 -9 41 -15 65 -15c37 0 52 13 52 32c0 17 -14 29 -49 29h-34l24 96
c-139 26 -232 131 -232 271c0 162 125 277 300 277c113 0 202 -49 241 -137l-121 -65c-29 51 -72 74 -121 74c-79 0 -141 -55 -141 -149s62 -149 141 -149z" />
    <glyph glyph-name="ccircumflex" unicode="&#x109;" horiz-adv-x="591" 
d="M313 683l-87 -76h-114l132 144h138l132 -144h-114zM331 120c49 0 92 22 121 74l121 -66c-39 -86 -128 -136 -241 -136c-175 0 -300 115 -300 277s125 277 300 277c113 0 202 -49 241 -137l-121 -65c-29 51 -72 74 -121 74c-79 0 -141 -55 -141 -149s62 -149 141 -149z
" />
    <glyph glyph-name="cdotaccent" unicode="&#x10b;" horiz-adv-x="591" 
d="M313 612c-49 0 -84 36 -84 85c0 48 35 84 84 84s84 -36 84 -84c0 -49 -35 -85 -84 -85zM332 -8c-175 0 -300 115 -300 277s125 277 300 277c113 0 202 -49 241 -137l-121 -65c-29 51 -72 74 -121 74c-79 0 -141 -55 -141 -149s62 -149 141 -149c49 0 92 22 121 74
l121 -66c-39 -86 -128 -136 -241 -136z" />
    <glyph glyph-name="d" unicode="d" horiz-adv-x="692" 
d="M464 742h156v-742h-149v62c-39 -47 -96 -70 -168 -70c-152 0 -269 108 -269 277s117 277 269 277c66 0 122 -21 161 -65v261zM330 120c77 0 137 56 137 149s-60 149 -137 149c-78 0 -138 -56 -138 -149s60 -149 138 -149z" />
    <glyph glyph-name="eth" unicode="&#xf0;" horiz-adv-x="657" 
d="M544 614c52 -66 80 -157 80 -272c0 -221 -123 -354 -322 -354c-152 0 -270 91 -270 233c0 137 112 225 254 225c76 0 136 -25 176 -72v2c0 82 -20 143 -58 184l-253 -97l-32 79l187 72c-21 5 -44 7 -69 7c-48 0 -96 -8 -135 -21l-19 121c47 12 99 20 160 20
c92 0 170 -21 232 -63l90 35l32 -79zM314 109c78 0 128 48 128 108c0 63 -53 108 -125 108c-77 0 -126 -42 -126 -108s51 -108 123 -108z" />
    <glyph glyph-name="dcaron" unicode="&#x10f;" horiz-adv-x="692" 
d="M702 783h117l-20 -201h-97v201zM464 481v261h156v-742h-149v62c-39 -47 -96 -70 -168 -70c-152 0 -269 108 -269 277s117 277 269 277c66 0 122 -21 161 -65zM330 120c77 0 137 56 137 149s-60 149 -137 149c-78 0 -138 -56 -138 -149s60 -149 138 -149z" />
    <glyph glyph-name="dcroat" unicode="&#x111;" horiz-adv-x="692" 
d="M693 683v-90h-73v-593h-149v62c-39 -47 -96 -70 -168 -70c-152 0 -269 108 -269 277s117 277 269 277c66 0 122 -21 161 -65v112h-183v90h183v59h156v-59h73zM330 120c77 0 137 56 137 149s-60 149 -137 149c-78 0 -138 -56 -138 -149s60 -149 138 -149z" />
    <glyph glyph-name="uni1E0D" unicode="&#x1e0d;" horiz-adv-x="692" 
d="M464 742h156v-742h-149v62c-39 -47 -96 -70 -168 -70c-152 0 -269 108 -269 277s117 277 269 277c66 0 122 -21 161 -65v261zM330 120c77 0 137 56 137 149s-60 149 -137 149c-78 0 -138 -56 -138 -149s60 -149 138 -149zM363 -73c39 0 69 -29 69 -70s-30 -67 -69 -67
s-69 26 -69 67s30 70 69 70z" />
    <glyph glyph-name="uni1E0F" unicode="&#x1e0f;" horiz-adv-x="692" 
d="M464 742h156v-742h-149v62c-39 -47 -96 -70 -168 -70c-152 0 -269 108 -269 277s117 277 269 277c66 0 122 -21 161 -65v261zM330 120c77 0 137 56 137 149s-60 149 -137 149c-78 0 -138 -56 -138 -149s60 -149 138 -149zM178 -182v87h370v-87h-370z" />
    <glyph glyph-name="uni01C6" unicode="&#x1c6;" horiz-adv-x="1233" 
d="M1028 607h-138l-132 144h114l87 -75l87 75h114zM464 481v261h156v-742h-149v62c-39 -47 -96 -70 -168 -70c-152 0 -269 108 -269 277s117 277 269 277c66 0 122 -21 161 -65zM916 120h283v-120h-480v94l274 324h-267v120h464v-94zM330 120c77 0 137 56 137 149
s-60 149 -137 149c-78 0 -138 -56 -138 -149s60 -149 138 -149z" />
    <glyph glyph-name="e" unicode="e" horiz-adv-x="631" 
d="M599 267c0 -12 -2 -29 -3 -42h-407c15 -67 72 -108 154 -108c57 0 98 17 135 52l83 -90c-50 -57 -125 -87 -222 -87c-186 0 -307 117 -307 277c0 161 123 277 287 277c158 0 280 -106 280 -279zM320 428c-71 0 -122 -43 -133 -112h265c-11 68 -62 112 -132 112z" />
    <glyph glyph-name="eacute" unicode="&#xe9;" horiz-adv-x="631" 
d="M528 751l-181 -144h-122l135 144h168zM599 267c0 -12 -2 -29 -3 -42h-407c15 -67 72 -108 154 -108c57 0 98 17 135 52l83 -90c-50 -57 -125 -87 -222 -87c-186 0 -307 117 -307 277c0 161 123 277 287 277c158 0 280 -106 280 -279zM320 428c-71 0 -122 -43 -133 -112
h265c-11 68 -62 112 -132 112z" />
    <glyph glyph-name="ebreve" unicode="&#x115;" horiz-adv-x="631" 
d="M316 599c-104 0 -180 58 -184 152h98c2 -43 39 -71 86 -71s84 28 86 71h98c-4 -94 -80 -152 -184 -152zM599 267c0 -12 -2 -29 -3 -42h-407c15 -67 72 -108 154 -108c57 0 98 17 135 52l83 -90c-50 -57 -125 -87 -222 -87c-186 0 -307 117 -307 277
c0 161 123 277 287 277c158 0 280 -106 280 -279zM320 428c-71 0 -122 -43 -133 -112h265c-11 68 -62 112 -132 112z" />
    <glyph glyph-name="ecaron" unicode="&#x11b;" horiz-adv-x="631" 
d="M385 607h-138l-132 144h114l87 -75l87 75h114zM599 267c0 -12 -2 -29 -3 -42h-407c15 -67 72 -108 154 -108c57 0 98 17 135 52l83 -90c-50 -57 -125 -87 -222 -87c-186 0 -307 117 -307 277c0 161 123 277 287 277c158 0 280 -106 280 -279zM320 428
c-71 0 -122 -43 -133 -112h265c-11 68 -62 112 -132 112z" />
    <glyph glyph-name="uni1E1D" unicode="&#x1e1d;" horiz-adv-x="631" 
d="M316 599c-104 0 -180 58 -184 152h98c2 -43 39 -71 86 -71s84 28 86 71h98c-4 -94 -80 -152 -184 -152zM599 267c0 -12 -2 -29 -3 -42h-407c15 -67 72 -108 154 -108c57 0 98 17 135 52l83 -90c-48 -54 -118 -84 -208 -87l-10 -42c61 -7 87 -42 87 -83
c0 -61 -58 -99 -147 -99c-35 0 -70 8 -93 21l24 67c19 -9 41 -15 65 -15c37 0 52 13 52 32c0 17 -14 29 -49 29h-34l23 96c-147 24 -239 131 -239 271c0 161 123 277 287 277c158 0 280 -106 280 -279zM320 428c-71 0 -122 -43 -133 -112h265c-11 68 -62 112 -132 112z" />
    <glyph glyph-name="ecircumflex" unicode="&#xea;" horiz-adv-x="631" 
d="M316 683l-87 -76h-114l132 144h138l132 -144h-114zM599 267c0 -12 -2 -29 -3 -42h-407c15 -67 72 -108 154 -108c57 0 98 17 135 52l83 -90c-50 -57 -125 -87 -222 -87c-186 0 -307 117 -307 277c0 161 123 277 287 277c158 0 280 -106 280 -279zM320 428
c-71 0 -122 -43 -133 -112h265c-11 68 -62 112 -132 112z" />
    <glyph glyph-name="uni1EBF" unicode="&#x1ebf;" horiz-adv-x="631" 
d="M706 824l-157 -121h-113l111 121h159zM316 664l-86 -57h-115l133 114h136l133 -114h-115zM319 546c158 0 280 -106 280 -279c0 -12 -2 -29 -3 -42h-407c15 -67 72 -108 154 -108c57 0 98 17 135 52l83 -90c-50 -57 -125 -87 -222 -87c-186 0 -307 117 -307 277
c0 161 123 277 287 277zM320 428c-71 0 -122 -43 -133 -112h265c-11 68 -62 112 -132 112z" />
    <glyph glyph-name="uni1EC7" unicode="&#x1ec7;" horiz-adv-x="631" 
d="M316 683l-87 -76h-114l132 144h138l132 -144h-114zM599 267c0 -12 -2 -29 -3 -42h-407c15 -67 72 -108 154 -108c57 0 98 17 135 52l83 -90c-50 -57 -125 -87 -222 -87c-186 0 -307 117 -307 277c0 161 123 277 287 277c158 0 280 -106 280 -279zM320 428
c-71 0 -122 -43 -133 -112h265c-11 68 -62 112 -132 112zM316 -73c39 0 69 -29 69 -70s-30 -67 -69 -67s-69 26 -69 67s30 70 69 70z" />
    <glyph glyph-name="uni1EC1" unicode="&#x1ec1;" horiz-adv-x="631" 
d="M608 703h-112l-157 121h159zM316 664l-86 -57h-115l133 114h136l133 -114h-115zM319 546c158 0 280 -106 280 -279c0 -12 -2 -29 -3 -42h-407c15 -67 72 -108 154 -108c57 0 98 17 135 52l83 -90c-50 -57 -125 -87 -222 -87c-186 0 -307 117 -307 277
c0 161 123 277 287 277zM320 428c-71 0 -122 -43 -133 -112h265c-11 68 -62 112 -132 112z" />
    <glyph glyph-name="uni1EC3" unicode="&#x1ec3;" horiz-adv-x="631" 
d="M459 792c-16 0 -29 -4 -44 -12l-26 48c23 15 53 22 83 22c56 0 92 -31 92 -79c0 -40 -31 -72 -70 -87l-38 37c27 13 37 29 37 42c0 18 -14 29 -34 29zM316 664l-86 -57h-115l133 114h136l133 -114h-115zM599 267c0 -12 -2 -29 -3 -42h-407c15 -67 72 -108 154 -108
c57 0 98 17 135 52l83 -90c-50 -57 -125 -87 -222 -87c-186 0 -307 117 -307 277c0 161 123 277 287 277c158 0 280 -106 280 -279zM320 428c-71 0 -122 -43 -133 -112h265c-11 68 -62 112 -132 112z" />
    <glyph glyph-name="uni1EC5" unicode="&#x1ec5;" horiz-adv-x="631" 
d="M252 808c-27 0 -42 -17 -44 -46h-80c1 80 45 125 116 125c67 0 103 -52 138 -52c27 0 42 19 44 45h78c-1 -77 -43 -124 -114 -124c-69 0 -105 52 -138 52zM316 664l-86 -57h-115l133 114h136l133 -114h-115zM599 267c0 -12 -2 -29 -3 -42h-407c15 -67 72 -108 154 -108
c57 0 98 17 135 52l83 -90c-50 -57 -125 -87 -222 -87c-186 0 -307 117 -307 277c0 161 123 277 287 277c158 0 280 -106 280 -279zM320 428c-71 0 -122 -43 -133 -112h265c-11 68 -62 112 -132 112z" />
    <glyph glyph-name="uni0205" unicode="&#x205;" horiz-adv-x="631" 
d="M272 607h-114l-104 144h146zM474 607h-114l-104 144h146zM599 267c0 -12 -2 -29 -3 -42h-407c15 -67 72 -108 154 -108c57 0 98 17 135 52l83 -90c-50 -57 -125 -87 -222 -87c-186 0 -307 117 -307 277c0 161 123 277 287 277c158 0 280 -106 280 -279zM320 428
c-71 0 -122 -43 -133 -112h265c-11 68 -62 112 -132 112z" />
    <glyph glyph-name="edieresis" unicode="&#xeb;" horiz-adv-x="631" 
d="M215 612c-39 0 -70 28 -70 69s31 69 70 69s69 -28 69 -69s-30 -69 -69 -69zM417 612c-39 0 -69 28 -69 69s30 69 69 69s70 -28 70 -69s-31 -69 -70 -69zM599 267c0 -12 -2 -29 -3 -42h-407c15 -67 72 -108 154 -108c57 0 98 17 135 52l83 -90c-50 -57 -125 -87 -222 -87
c-186 0 -307 117 -307 277c0 161 123 277 287 277c158 0 280 -106 280 -279zM320 428c-71 0 -122 -43 -133 -112h265c-11 68 -62 112 -132 112z" />
    <glyph glyph-name="edotaccent" unicode="&#x117;" horiz-adv-x="631" 
d="M316 612c-49 0 -84 36 -84 85c0 48 35 84 84 84s84 -36 84 -84c0 -49 -35 -85 -84 -85zM599 267c0 -12 -2 -29 -3 -42h-407c15 -67 72 -108 154 -108c57 0 98 17 135 52l83 -90c-50 -57 -125 -87 -222 -87c-186 0 -307 117 -307 277c0 161 123 277 287 277
c158 0 280 -106 280 -279zM320 428c-71 0 -122 -43 -133 -112h265c-11 68 -62 112 -132 112z" />
    <glyph glyph-name="uni1EB9" unicode="&#x1eb9;" horiz-adv-x="631" 
d="M599 267c0 -12 -2 -29 -3 -42h-407c15 -67 72 -108 154 -108c57 0 98 17 135 52l83 -90c-50 -57 -125 -87 -222 -87c-186 0 -307 117 -307 277c0 161 123 277 287 277c158 0 280 -106 280 -279zM320 428c-71 0 -122 -43 -133 -112h265c-11 68 -62 112 -132 112zM316 -73
c39 0 69 -29 69 -70s-30 -67 -69 -67s-69 26 -69 67s30 70 69 70z" />
    <glyph glyph-name="egrave" unicode="&#xe8;" horiz-adv-x="631" 
d="M407 607h-122l-181 144h168zM599 267c0 -12 -2 -29 -3 -42h-407c15 -67 72 -108 154 -108c57 0 98 17 135 52l83 -90c-50 -57 -125 -87 -222 -87c-186 0 -307 117 -307 277c0 161 123 277 287 277c158 0 280 -106 280 -279zM320 428c-71 0 -122 -43 -133 -112h265
c-11 68 -62 112 -132 112z" />
    <glyph glyph-name="uni1EBB" unicode="&#x1ebb;" horiz-adv-x="631" 
d="M301 752c-20 0 -39 -6 -59 -19l-32 63c29 23 68 34 108 34c71 0 120 -43 120 -107c0 -57 -31 -98 -92 -126l-49 52c39 18 51 38 51 61c0 25 -19 42 -47 42zM599 267c0 -12 -2 -29 -3 -42h-407c15 -67 72 -108 154 -108c57 0 98 17 135 52l83 -90
c-50 -57 -125 -87 -222 -87c-186 0 -307 117 -307 277c0 161 123 277 287 277c158 0 280 -106 280 -279zM320 428c-71 0 -122 -43 -133 -112h265c-11 68 -62 112 -132 112z" />
    <glyph glyph-name="uni0207" unicode="&#x207;" horiz-adv-x="631" 
d="M316 678c-47 0 -84 -27 -86 -71h-98c4 94 80 152 184 152s180 -58 184 -152h-98c-2 44 -39 71 -86 71zM599 267c0 -12 -2 -29 -3 -42h-407c15 -67 72 -108 154 -108c57 0 98 17 135 52l83 -90c-50 -57 -125 -87 -222 -87c-186 0 -307 117 -307 277c0 161 123 277 287 277
c158 0 280 -106 280 -279zM320 428c-71 0 -122 -43 -133 -112h265c-11 68 -62 112 -132 112z" />
    <glyph glyph-name="emacron" unicode="&#x113;" horiz-adv-x="631" 
d="M501 723v-88h-370v88h370zM599 267c0 -12 -2 -29 -3 -42h-407c15 -67 72 -108 154 -108c57 0 98 17 135 52l83 -90c-50 -57 -125 -87 -222 -87c-186 0 -307 117 -307 277c0 161 123 277 287 277c158 0 280 -106 280 -279zM320 428c-71 0 -122 -43 -133 -112h265
c-11 68 -62 112 -132 112z" />
    <glyph glyph-name="uni1E17" unicode="&#x1e17;" horiz-adv-x="631" 
d="M500 889l-157 -121h-113l111 121h159zM501 706v-83h-370v83h370zM599 267c0 -12 -2 -29 -3 -42h-407c15 -67 72 -108 154 -108c57 0 98 17 135 52l83 -90c-50 -57 -125 -87 -222 -87c-186 0 -307 117 -307 277c0 161 123 277 287 277c158 0 280 -106 280 -279zM320 428
c-71 0 -122 -43 -133 -112h265c-11 68 -62 112 -132 112z" />
    <glyph glyph-name="uni1E15" unicode="&#x1e15;" horiz-adv-x="631" 
d="M402 768h-112l-157 121h159zM501 706v-83h-370v83h370zM599 267c0 -12 -2 -29 -3 -42h-407c15 -67 72 -108 154 -108c57 0 98 17 135 52l83 -90c-50 -57 -125 -87 -222 -87c-186 0 -307 117 -307 277c0 161 123 277 287 277c158 0 280 -106 280 -279zM320 428
c-71 0 -122 -43 -133 -112h265c-11 68 -62 112 -132 112z" />
    <glyph glyph-name="eogonek" unicode="&#x119;" horiz-adv-x="631" 
d="M599 267c0 -12 -2 -29 -3 -42h-407c15 -67 72 -108 154 -108c57 0 98 17 135 52l84 -90c-12 -13 -25 -25 -41 -36c-90 -66 -111 -107 -111 -145c0 -33 23 -51 58 -51c20 0 43 6 59 15l23 -71c-25 -13 -64 -23 -101 -23c-86 0 -138 45 -138 116c0 37 17 77 49 109
c-7 -1 -14 -1 -21 -1c-186 0 -307 117 -307 277c0 161 123 277 287 277c158 0 280 -106 280 -279zM320 428c-71 0 -122 -43 -133 -112h265c-11 68 -62 112 -132 112z" />
    <glyph glyph-name="uni1EBD" unicode="&#x1ebd;" horiz-adv-x="631" 
d="M251 667c-27 0 -46 -20 -48 -56h-79c2 89 47 146 117 146c69 0 104 -64 140 -64c27 0 46 21 48 54h79c-2 -86 -47 -143 -117 -143c-69 0 -104 63 -140 63zM599 267c0 -12 -2 -29 -3 -42h-407c15 -67 72 -108 154 -108c57 0 98 17 135 52l83 -90
c-50 -57 -125 -87 -222 -87c-186 0 -307 117 -307 277c0 161 123 277 287 277c158 0 280 -106 280 -279zM320 428c-71 0 -122 -43 -133 -112h265c-11 68 -62 112 -132 112z" />
    <glyph glyph-name="uni0259" unicode="&#x259;" horiz-adv-x="631" 
d="M292 546c186 0 307 -117 307 -277c0 -161 -123 -277 -287 -277c-158 0 -280 106 -280 279c0 12 2 29 3 42h407c-15 67 -72 108 -154 108c-57 0 -98 -17 -135 -52l-83 90c50 57 125 87 222 87zM311 110c71 0 122 43 133 112h-265c11 -68 62 -112 132 -112z" />
    <glyph glyph-name="uni0292" unicode="&#x292;" horiz-adv-x="554" 
d="M335 240c129 -19 195 -99 195 -209c0 -123 -90 -233 -287 -233c-99 0 -198 29 -261 78l55 125c52 -43 127 -68 200 -68c83 0 132 36 132 98c0 58 -39 96 -130 96h-74v104l148 178h-303v129h486v-105z" />
    <glyph glyph-name="uni01EF" unicode="&#x1ef;" horiz-adv-x="554" 
d="M314 607h-138l-132 144h114l87 -75l87 75h114zM335 240c129 -19 195 -99 195 -209c0 -123 -90 -233 -287 -233c-99 0 -198 29 -261 78l55 125c52 -43 127 -68 200 -68c83 0 132 36 132 98c0 58 -39 96 -130 96h-74v104l148 178h-303v129h486v-105z" />
    <glyph glyph-name="f" unicode="f" horiz-adv-x="387" 
d="M243 549v-23h138v-120h-134v-406h-156v406h-83v120h83v24c0 121 74 200 208 200c44 0 90 -9 119 -29l-41 -113c-17 12 -39 19 -63 19c-46 0 -71 -25 -71 -78z" />
    <glyph glyph-name="g" unicode="g" horiz-adv-x="700" 
d="M479 538h148v-448c0 -200 -108 -292 -302 -292c-102 0 -201 25 -264 74l62 112c46 -37 121 -61 190 -61c110 0 158 50 158 147v23c-41 -45 -100 -67 -170 -67c-149 0 -269 103 -269 260s120 260 269 260c75 0 137 -25 178 -77v69zM332 154c82 0 141 53 141 132
s-59 132 -141 132s-142 -53 -142 -132s60 -132 142 -132z" />
    <glyph glyph-name="gbreve" unicode="&#x11f;" horiz-adv-x="700" 
d="M341 599c-104 0 -180 58 -184 152h98c2 -43 39 -71 86 -71s84 28 86 71h98c-4 -94 -80 -152 -184 -152zM479 538h148v-448c0 -200 -108 -292 -302 -292c-102 0 -201 25 -264 74l62 112c46 -37 121 -61 190 -61c110 0 158 50 158 147v23c-41 -45 -100 -67 -170 -67
c-149 0 -269 103 -269 260s120 260 269 260c75 0 137 -25 178 -77v69zM332 154c82 0 141 53 141 132s-59 132 -141 132s-142 -53 -142 -132s60 -132 142 -132z" />
    <glyph glyph-name="gcaron" unicode="&#x1e7;" horiz-adv-x="700" 
d="M410 607h-138l-132 144h114l87 -75l87 75h114zM479 538h148v-448c0 -200 -108 -292 -302 -292c-102 0 -201 25 -264 74l62 112c46 -37 121 -61 190 -61c110 0 158 50 158 147v23c-41 -45 -100 -67 -170 -67c-149 0 -269 103 -269 260s120 260 269 260
c75 0 137 -25 178 -77v69zM332 154c82 0 141 53 141 132s-59 132 -141 132s-142 -53 -142 -132s60 -132 142 -132z" />
    <glyph glyph-name="gcircumflex" unicode="&#x11d;" horiz-adv-x="700" 
d="M341 683l-87 -76h-114l132 144h138l132 -144h-114zM479 538h148v-448c0 -200 -108 -292 -302 -292c-102 0 -201 25 -264 74l62 112c46 -37 121 -61 190 -61c110 0 158 50 158 147v23c-41 -45 -100 -67 -170 -67c-149 0 -269 103 -269 260s120 260 269 260
c75 0 137 -25 178 -77v69zM332 154c82 0 141 53 141 132s-59 132 -141 132s-142 -53 -142 -132s60 -132 142 -132z" />
    <glyph glyph-name="gcommaaccent" unicode="&#x123;" horiz-adv-x="700" 
d="M341 599c-53 0 -79 25 -79 60c0 16 5 34 21 64l45 90h84l-34 -101c28 -8 42 -27 42 -53c0 -36 -26 -60 -79 -60zM479 538h148v-448c0 -200 -108 -292 -302 -292c-102 0 -201 25 -264 74l62 112c46 -37 121 -61 190 -61c110 0 158 50 158 147v23
c-41 -45 -100 -67 -170 -67c-149 0 -269 103 -269 260s120 260 269 260c75 0 137 -25 178 -77v69zM332 154c82 0 141 53 141 132s-59 132 -141 132s-142 -53 -142 -132s60 -132 142 -132z" />
    <glyph glyph-name="gdotaccent" unicode="&#x121;" horiz-adv-x="700" 
d="M341 612c-49 0 -84 36 -84 85c0 48 35 84 84 84s84 -36 84 -84c0 -49 -35 -85 -84 -85zM479 538h148v-448c0 -200 -108 -292 -302 -292c-102 0 -201 25 -264 74l62 112c46 -37 121 -61 190 -61c110 0 158 50 158 147v23c-41 -45 -100 -67 -170 -67
c-149 0 -269 103 -269 260s120 260 269 260c75 0 137 -25 178 -77v69zM332 154c82 0 141 53 141 132s-59 132 -141 132s-142 -53 -142 -132s60 -132 142 -132z" />
    <glyph glyph-name="uni1E21" unicode="&#x1e21;" horiz-adv-x="700" 
d="M526 723v-88h-370v88h370zM479 538h148v-448c0 -200 -108 -292 -302 -292c-102 0 -201 25 -264 74l62 112c46 -37 121 -61 190 -61c110 0 158 50 158 147v23c-41 -45 -100 -67 -170 -67c-149 0 -269 103 -269 260s120 260 269 260c75 0 137 -25 178 -77v69zM332 154
c82 0 141 53 141 132s-59 132 -141 132s-142 -53 -142 -132s60 -132 142 -132z" />
    <glyph glyph-name="uni01E5" unicode="&#x1e5;" horiz-adv-x="711" 
d="M691 39v-77h-83c-39 -110 -135 -164 -285 -164c-101 0 -200 26 -262 74l62 108c45 -37 120 -61 191 -61c58 0 99 14 125 43h-166v76h197c1 9 1 18 1 28v64c-42 -44 -103 -65 -174 -65c-155 0 -265 99 -265 241c0 141 110 239 265 239c75 0 140 -24 182 -74v67h148v-448
c0 -18 -1 -35 -3 -51h67zM332 181c84 0 141 49 141 125c0 75 -57 124 -141 124s-142 -49 -142 -124c0 -76 58 -125 142 -125z" />
    <glyph glyph-name="h" unicode="h" horiz-adv-x="691" 
d="M399 546c127 0 223 -74 223 -238v-308h-156v284c0 87 -40 127 -109 127c-75 0 -129 -46 -129 -145v-266h-156v742h156v-260c42 42 102 64 171 64z" />
    <glyph glyph-name="hbar" unicode="&#x127;" horiz-adv-x="691" 
d="M399 546c127 0 223 -74 223 -238v-308h-156v284c0 87 -40 127 -109 127c-75 0 -129 -46 -129 -145v-266h-156v593h-72v90h72v59h156v-59h184v-90h-184v-111c42 42 102 64 171 64z" />
    <glyph glyph-name="uni1E2B" unicode="&#x1e2b;" horiz-adv-x="691" 
d="M399 546c127 0 223 -74 223 -238v-308h-156v284c0 87 -40 127 -109 127c-75 0 -129 -46 -129 -145v-266h-156v742h156v-260c42 42 102 64 171 64zM348 -141c51 0 89 26 91 67h93c-5 -86 -80 -143 -184 -143s-179 57 -184 143h93c2 -41 40 -67 91 -67z" />
    <glyph glyph-name="uni021F" unicode="&#x21f;" horiz-adv-x="691" 
d="M219 811h-138l-132 144h114l87 -75l87 75h114zM399 546c127 0 223 -74 223 -238v-308h-156v284c0 87 -40 127 -109 127c-75 0 -129 -46 -129 -145v-266h-156v742h156v-260c42 42 102 64 171 64z" />
    <glyph glyph-name="hcircumflex" unicode="&#x125;" horiz-adv-x="691" 
d="M237 799l-87 76l-87 -76h-114l132 144h138l132 -144h-114zM399 546c127 0 223 -74 223 -238v-308h-156v284c0 87 -40 127 -109 127c-75 0 -129 -46 -129 -145v-266h-156v742h156v-260c42 42 102 64 171 64z" />
    <glyph glyph-name="uni1E25" unicode="&#x1e25;" horiz-adv-x="691" 
d="M399 546c127 0 223 -74 223 -238v-308h-156v284c0 87 -40 127 -109 127c-75 0 -129 -46 -129 -145v-266h-156v742h156v-260c42 42 102 64 171 64zM348 -73c39 0 69 -29 69 -70s-30 -67 -69 -67s-69 26 -69 67s30 70 69 70z" />
    <glyph glyph-name="i" unicode="i" horiz-adv-x="301" 
d="M150 613c-58 0 -97 38 -97 87s39 87 97 87s97 -36 97 -84c0 -52 -39 -90 -97 -90zM72 0v538h156v-538h-156z" />
    <glyph glyph-name="dotlessi" unicode="&#x131;" horiz-adv-x="301" 
d="M72 0v538h156v-538h-156z" />
    <glyph glyph-name="iacute" unicode="&#xed;" horiz-adv-x="301" 
d="M59 607l135 144h168l-181 -144h-122zM72 0v538h156v-538h-156z" />
    <glyph glyph-name="ibreve" unicode="&#x12d;" horiz-adv-x="301" 
d="M150 599c-91 0 -158 58 -159 152h94c0 -43 24 -72 65 -72s65 29 65 72h94c-1 -94 -68 -152 -159 -152zM72 0v538h156v-538h-156z" />
    <glyph glyph-name="icircumflex" unicode="&#xee;" horiz-adv-x="301" 
d="M150 677l-65 -70h-111l109 144h134l109 -144h-111zM72 0v538h156v-538h-156z" />
    <glyph glyph-name="uni0209" unicode="&#x209;" horiz-adv-x="301" 
d="M-8 607l-104 144h146l72 -144h-114zM194 607l-104 144h146l72 -144h-114zM72 0v538h156v-538h-156z" />
    <glyph glyph-name="idieresis" unicode="&#xef;" horiz-adv-x="301" 
d="M68 613c-37 0 -65 28 -65 68s28 68 65 68s66 -28 66 -68s-29 -68 -66 -68zM232 613c-37 0 -66 28 -66 68s29 68 66 68s65 -28 65 -68s-28 -68 -65 -68zM72 0v538h156v-538h-156z" />
    <glyph glyph-name="uni1E2F" unicode="&#x1e2f;" horiz-adv-x="301" 
d="M64 768l111 121h159l-157 -121h-113zM52 612c-37 0 -66 27 -66 66c0 38 29 66 66 66c38 0 67 -28 67 -66c0 -39 -29 -66 -67 -66zM248 612c-36 0 -66 27 -66 66c0 38 30 66 66 66c37 0 66 -28 66 -66c0 -39 -29 -66 -66 -66zM72 0v538h156v-538h-156z" />
    <glyph glyph-name="i.loclTRK" horiz-adv-x="301" 
d="M150 612c-49 0 -84 36 -84 85c0 48 35 84 84 84s84 -36 84 -84c0 -49 -35 -85 -84 -85zM72 0v538h156v-538h-156z" />
    <glyph glyph-name="uni1ECB" unicode="&#x1ecb;" horiz-adv-x="301" 
d="M150 613c-58 0 -97 38 -97 87s39 87 97 87s97 -36 97 -84c0 -52 -39 -90 -97 -90zM72 0v538h156v-538h-156zM150 -210c-39 0 -69 26 -69 67s30 70 69 70s69 -29 69 -70s-30 -67 -69 -67z" />
    <glyph glyph-name="igrave" unicode="&#xec;" horiz-adv-x="301" 
d="M119 607l-181 144h168l135 -144h-122zM72 0v538h156v-538h-156z" />
    <glyph glyph-name="uni1EC9" unicode="&#x1ec9;" horiz-adv-x="301" 
d="M180 597l-49 52c39 18 51 38 51 61c0 25 -19 42 -47 42c-20 0 -39 -6 -59 -19l-32 63c29 23 68 34 108 34c71 0 120 -43 120 -107c0 -57 -31 -98 -92 -126zM72 0v538h156v-538h-156z" />
    <glyph glyph-name="uni020B" unicode="&#x20b;" horiz-adv-x="301" 
d="M-9 607c1 94 68 152 159 152s158 -58 159 -152h-94c0 44 -24 72 -65 72s-65 -28 -65 -72h-94zM72 0v538h156v-538h-156z" />
    <glyph glyph-name="ij" unicode="&#x133;" horiz-adv-x="608" 
d="M150 613c-58 0 -97 38 -97 87s39 87 97 87s97 -36 97 -84c0 -52 -39 -90 -97 -90zM458 613c-58 0 -97 38 -97 87s39 87 97 87s97 -36 97 -84c0 -52 -39 -90 -97 -90zM72 0v538h156v-538h-156zM333 -202c-48 0 -95 9 -125 30l42 113c17 -12 40 -19 66 -19
c39 0 64 25 64 78v538h156v-537c0 -124 -73 -203 -203 -203z" />
    <glyph glyph-name="imacron" unicode="&#x12b;" horiz-adv-x="301" 
d="M0 635v88h300v-88h-300zM72 0v538h156v-538h-156z" />
    <glyph glyph-name="iogonek" unicode="&#x12f;" horiz-adv-x="301" 
d="M150 613c-58 0 -97 38 -97 87s39 87 97 87s97 -36 97 -84c0 -52 -39 -90 -97 -90zM237 -143l22 -68c-18 -13 -45 -21 -74 -21c-72 0 -120 44 -120 111c0 44 19 85 58 121h-51v538h156v-538c-51 -41 -65 -74 -65 -106c0 -29 19 -47 42 -47c11 0 22 3 32 10z" />
    <glyph glyph-name="itilde" unicode="&#x129;" horiz-adv-x="301" 
d="M216 604c-64 0 -93 65 -122 65c-20 0 -31 -21 -31 -58h-78c0 96 36 146 99 146c64 0 93 -65 122 -65c20 0 31 20 31 55h78c0 -93 -36 -143 -99 -143zM72 0v538h156v-538h-156z" />
    <glyph glyph-name="j" unicode="j" horiz-adv-x="307" 
d="M157 613c-58 0 -97 38 -97 87s39 87 97 87s97 -36 97 -84c0 -52 -39 -90 -97 -90zM32 -202c-48 0 -95 9 -125 30l42 113c17 -12 40 -19 66 -19c39 0 64 25 64 78v538h156v-537c0 -124 -73 -203 -203 -203z" />
    <glyph glyph-name="uni0237" unicode="&#x237;" horiz-adv-x="307" 
d="M32 -202c-48 0 -95 9 -125 30l42 113c17 -12 40 -19 66 -19c39 0 64 25 64 78v538h156v-537c0 -124 -73 -203 -203 -203z" />
    <glyph glyph-name="uni006A0301" horiz-adv-x="307" 
d="M66 607l135 144h168l-181 -144h-122zM32 -202c-48 0 -95 9 -125 30l42 113c17 -12 40 -19 66 -19c39 0 64 25 64 78v538h156v-537c0 -124 -73 -203 -203 -203z" />
    <glyph glyph-name="jcircumflex" unicode="&#x135;" horiz-adv-x="307" 
d="M157 677l-65 -70h-111l109 144h134l109 -144h-111zM79 0v538h156v-537c0 -124 -73 -203 -203 -203c-48 0 -95 9 -125 30l42 113c17 -12 40 -19 66 -19c39 0 64 25 64 78z" />
    <glyph glyph-name="k" unicode="k" horiz-adv-x="660" 
d="M473 0l-170 211l-75 -74v-137h-156v742h156v-420l228 216h186l-224 -228l244 -310h-189z" />
    <glyph glyph-name="uni01E9" unicode="&#x1e9;" horiz-adv-x="660" 
d="M219 811h-138l-132 144h114l87 -75l87 75h114zM473 0l-170 211l-75 -74v-137h-156v742h156v-420l228 216h186l-224 -228l244 -310h-189z" />
    <glyph glyph-name="kcommaaccent" unicode="&#x137;" horiz-adv-x="660" 
d="M418 310l244 -310h-189l-170 211l-75 -74v-137h-156v742h156v-420l228 216h186zM318 -73c43 0 69 -25 69 -60c0 -16 -3 -37 -18 -65l-35 -68h-73l25 80c-24 8 -37 27 -37 53c0 35 26 60 69 60z" />
    <glyph glyph-name="kgreenlandic" unicode="&#x138;" horiz-adv-x="645" 
d="M473 0l-170 211l-75 -74v-137h-156v538h156v-216l228 216h186l-224 -228l244 -310h-189z" />
    <glyph glyph-name="l" unicode="l" horiz-adv-x="301" 
d="M72 0v742h156v-742h-156z" />
    <glyph glyph-name="lacute" unicode="&#x13a;" horiz-adv-x="301" 
d="M59 811l135 144h168l-181 -144h-122zM72 0v742h156v-742h-156z" />
    <glyph glyph-name="lcaron" unicode="&#x13e;" horiz-adv-x="301" 
d="M308 582v201h117l-20 -201h-97zM72 0v742h156v-742h-156z" />
    <glyph glyph-name="lcommaaccent" unicode="&#x13c;" horiz-adv-x="301" 
d="M72 742h156v-742h-156v742zM150 -73c43 0 69 -25 69 -60c0 -16 -3 -37 -18 -65l-35 -68h-73l25 80c-24 8 -37 27 -37 53c0 35 26 60 69 60z" />
    <glyph glyph-name="ldot" unicode="&#x140;" horiz-adv-x="420" 
d="M72 0v742h156v-742h-156zM360 284c-45 0 -78 34 -78 79s33 78 78 78c46 0 79 -33 79 -78s-33 -79 -79 -79z" />
    <glyph glyph-name="uni1E37" unicode="&#x1e37;" horiz-adv-x="301" 
d="M72 0v742h156v-742h-156zM150 -210c-39 0 -69 26 -69 67s30 70 69 70s69 -29 69 -70s-30 -67 -69 -67z" />
    <glyph glyph-name="uni01C9" unicode="&#x1c9;" horiz-adv-x="608" 
d="M458 613c-58 0 -97 38 -97 87s39 87 97 87s97 -36 97 -84c0 -52 -39 -90 -97 -90zM72 0v742h156v-742h-156zM333 -202c-48 0 -95 9 -125 30l42 113c17 -12 40 -19 66 -19c39 0 64 25 64 78v538h156v-537c0 -124 -73 -203 -203 -203z" />
    <glyph glyph-name="uni1E3B" unicode="&#x1e3b;" horiz-adv-x="301" 
d="M72 0v742h156v-742h-156zM-35 -182v87h370v-87h-370z" />
    <glyph glyph-name="lslash" unicode="&#x142;" horiz-adv-x="327" 
d="M353 445l-112 -84v-361h-156v244l-55 -41l-58 78l113 85v376h156v-258l55 41z" />
    <glyph glyph-name="m" unicode="m" horiz-adv-x="1049" 
d="M761 546c128 0 220 -74 220 -238v-308h-156v284c0 87 -39 127 -102 127c-70 0 -119 -45 -119 -141v-270h-156v284c0 87 -37 127 -102 127c-69 0 -118 -45 -118 -141v-270h-156v538h149v-62c40 46 100 70 169 70c75 0 139 -29 177 -88c43 55 113 88 194 88z" />
    <glyph glyph-name="uni1E43" unicode="&#x1e43;" horiz-adv-x="1049" 
d="M761 546c128 0 220 -74 220 -238v-308h-156v284c0 87 -39 127 -102 127c-70 0 -119 -45 -119 -141v-270h-156v284c0 87 -37 127 -102 127c-69 0 -118 -45 -118 -141v-270h-156v538h149v-62c40 46 100 70 169 70c75 0 139 -29 177 -88c43 55 113 88 194 88zM525 -73
c39 0 69 -29 69 -70s-30 -67 -69 -67s-69 26 -69 67s30 70 69 70z" />
    <glyph glyph-name="n" unicode="n" horiz-adv-x="691" 
d="M399 546c127 0 223 -74 223 -238v-308h-156v284c0 87 -40 127 -109 127c-75 0 -129 -46 -129 -145v-266h-156v538h149v-63c42 46 105 71 178 71z" />
    <glyph glyph-name="nacute" unicode="&#x144;" horiz-adv-x="691" 
d="M560 751l-181 -144h-122l135 144h168zM399 546c127 0 223 -74 223 -238v-308h-156v284c0 87 -40 127 -109 127c-75 0 -129 -46 -129 -145v-266h-156v538h149v-63c42 46 105 71 178 71z" />
    <glyph glyph-name="napostrophe" unicode="&#x149;" horiz-adv-x="820" 
d="M41 438l2 262h102l-22 -262h-82zM529 546c127 0 223 -74 223 -238v-308h-156v284c0 87 -40 127 -109 127c-75 0 -129 -46 -129 -145v-266h-156v538h149v-63c42 46 105 71 178 71z" />
    <glyph glyph-name="ncaron" unicode="&#x148;" horiz-adv-x="691" 
d="M417 607h-138l-132 144h114l87 -75l87 75h114zM399 546c127 0 223 -74 223 -238v-308h-156v284c0 87 -40 127 -109 127c-75 0 -129 -46 -129 -145v-266h-156v538h149v-63c42 46 105 71 178 71z" />
    <glyph glyph-name="ncommaaccent" unicode="&#x146;" horiz-adv-x="691" 
d="M399 546c127 0 223 -74 223 -238v-308h-156v284c0 87 -40 127 -109 127c-75 0 -129 -46 -129 -145v-266h-156v538h149v-63c42 46 105 71 178 71zM348 -73c43 0 69 -25 69 -60c0 -16 -3 -37 -18 -65l-35 -68h-73l25 80c-24 8 -37 27 -37 53c0 35 26 60 69 60z" />
    <glyph glyph-name="uni1E45" unicode="&#x1e45;" horiz-adv-x="691" 
d="M348 612c-49 0 -84 36 -84 85c0 48 35 84 84 84s84 -36 84 -84c0 -49 -35 -85 -84 -85zM399 546c127 0 223 -74 223 -238v-308h-156v284c0 87 -40 127 -109 127c-75 0 -129 -46 -129 -145v-266h-156v538h149v-63c42 46 105 71 178 71z" />
    <glyph glyph-name="uni1E47" unicode="&#x1e47;" horiz-adv-x="691" 
d="M399 546c127 0 223 -74 223 -238v-308h-156v284c0 87 -40 127 -109 127c-75 0 -129 -46 -129 -145v-266h-156v538h149v-63c42 46 105 71 178 71zM348 -73c39 0 69 -29 69 -70s-30 -67 -69 -67s-69 26 -69 67s30 70 69 70z" />
    <glyph glyph-name="eng" unicode="&#x14b;" horiz-adv-x="691" 
d="M399 546c127 0 223 -74 223 -238v-307c0 -124 -73 -203 -202 -203c-48 0 -95 9 -126 30l42 113c17 -12 41 -19 66 -19c40 0 64 25 64 78v284c0 87 -40 127 -109 127c-75 0 -129 -46 -129 -145v-266h-156v538h149v-63c42 46 105 71 178 71z" />
    <glyph glyph-name="uni01CC" unicode="&#x1cc;" horiz-adv-x="998" 
d="M848 613c-58 0 -97 38 -97 87s39 87 97 87s97 -36 97 -84c0 -52 -39 -90 -97 -90zM622 0h-156v284c0 87 -40 127 -109 127c-75 0 -129 -46 -129 -145v-266h-156v538h149v-63c42 46 105 71 178 71c127 0 223 -74 223 -238v-308zM770 0v538h156v-537
c0 -124 -73 -203 -203 -203c-48 0 -95 9 -125 30l42 113c17 -12 40 -19 66 -19c39 0 64 25 64 78z" />
    <glyph glyph-name="uni1E49" unicode="&#x1e49;" horiz-adv-x="691" 
d="M399 546c127 0 223 -74 223 -238v-308h-156v284c0 87 -40 127 -109 127c-75 0 -129 -46 -129 -145v-266h-156v538h149v-63c42 46 105 71 178 71zM163 -182v87h370v-87h-370z" />
    <glyph glyph-name="ntilde" unicode="&#xf1;" horiz-adv-x="691" 
d="M283 667c-27 0 -46 -20 -48 -56h-79c2 89 47 146 117 146c69 0 104 -64 140 -64c27 0 46 21 48 54h79c-2 -86 -47 -143 -117 -143c-69 0 -104 63 -140 63zM399 546c127 0 223 -74 223 -238v-308h-156v284c0 87 -40 127 -109 127c-75 0 -129 -46 -129 -145v-266h-156v538
h149v-63c42 46 105 71 178 71z" />
    <glyph glyph-name="o" unicode="o" horiz-adv-x="655" 
d="M328 -8c-171 0 -296 115 -296 277s125 277 296 277s295 -115 295 -277s-124 -277 -295 -277zM328 120c78 0 137 56 137 149s-59 149 -137 149s-138 -56 -138 -149s60 -149 138 -149z" />
    <glyph glyph-name="oacute" unicode="&#xf3;" horiz-adv-x="655" 
d="M235 607l135 144h168l-181 -144h-122zM328 -8c-171 0 -296 115 -296 277s125 277 296 277s295 -115 295 -277s-124 -277 -295 -277zM328 120c78 0 137 56 137 149s-59 149 -137 149s-138 -56 -138 -149s60 -149 138 -149z" />
    <glyph glyph-name="obreve" unicode="&#x14f;" horiz-adv-x="655" 
d="M326 599c-104 0 -180 58 -184 152h98c2 -43 39 -71 86 -71s84 28 86 71h98c-4 -94 -80 -152 -184 -152zM328 -8c-171 0 -296 115 -296 277s125 277 296 277s295 -115 295 -277s-124 -277 -295 -277zM328 120c78 0 137 56 137 149s-59 149 -137 149s-138 -56 -138 -149
s60 -149 138 -149z" />
    <glyph glyph-name="ocircumflex" unicode="&#xf4;" horiz-adv-x="655" 
d="M326 683l-87 -76h-114l132 144h138l132 -144h-114zM328 546c171 0 295 -115 295 -277s-124 -277 -295 -277s-296 115 -296 277s125 277 296 277zM328 120c78 0 137 56 137 149s-59 149 -137 149s-138 -56 -138 -149s60 -149 138 -149z" />
    <glyph glyph-name="uni1ED1" unicode="&#x1ed1;" horiz-adv-x="655" 
d="M716 824l-157 -121h-113l111 121h159zM326 664l-86 -57h-115l133 114h136l133 -114h-115zM328 546c171 0 295 -115 295 -277s-124 -277 -295 -277s-296 115 -296 277s125 277 296 277zM328 120c78 0 137 56 137 149s-59 149 -137 149s-138 -56 -138 -149
s60 -149 138 -149z" />
    <glyph glyph-name="uni1ED9" unicode="&#x1ed9;" horiz-adv-x="655" 
d="M326 683l-87 -76h-114l132 144h138l132 -144h-114zM328 546c171 0 295 -115 295 -277s-124 -277 -295 -277s-296 115 -296 277s125 277 296 277zM328 120c78 0 137 56 137 149s-59 149 -137 149s-138 -56 -138 -149s60 -149 138 -149zM326 -73c39 0 69 -29 69 -70
s-30 -67 -69 -67s-69 26 -69 67s30 70 69 70z" />
    <glyph glyph-name="uni1ED3" unicode="&#x1ed3;" horiz-adv-x="655" 
d="M618 703h-112l-157 121h159zM326 664l-86 -57h-115l133 114h136l133 -114h-115zM328 546c171 0 295 -115 295 -277s-124 -277 -295 -277s-296 115 -296 277s125 277 296 277zM328 120c78 0 137 56 137 149s-59 149 -137 149s-138 -56 -138 -149s60 -149 138 -149z" />
    <glyph glyph-name="uni1ED5" unicode="&#x1ed5;" horiz-adv-x="655" 
d="M469 792c-16 0 -29 -4 -44 -12l-26 48c23 15 53 22 83 22c56 0 92 -31 92 -79c0 -40 -31 -72 -70 -87l-38 37c27 13 37 29 37 42c0 18 -14 29 -34 29zM326 664l-86 -57h-115l133 114h136l133 -114h-115zM328 546c171 0 295 -115 295 -277s-124 -277 -295 -277
s-296 115 -296 277s125 277 296 277zM328 120c78 0 137 56 137 149s-59 149 -137 149s-138 -56 -138 -149s60 -149 138 -149z" />
    <glyph glyph-name="uni1ED7" unicode="&#x1ed7;" horiz-adv-x="655" 
d="M262 808c-27 0 -42 -17 -44 -46h-80c1 80 45 125 116 125c67 0 103 -52 138 -52c27 0 42 19 44 45h78c-1 -77 -43 -124 -114 -124c-69 0 -105 52 -138 52zM326 664l-86 -57h-115l133 114h136l133 -114h-115zM328 546c171 0 295 -115 295 -277s-124 -277 -295 -277
s-296 115 -296 277s125 277 296 277zM328 120c78 0 137 56 137 149s-59 149 -137 149s-138 -56 -138 -149s60 -149 138 -149z" />
    <glyph glyph-name="uni020D" unicode="&#x20d;" horiz-adv-x="655" 
d="M168 607l-104 144h146l72 -144h-114zM370 607l-104 144h146l72 -144h-114zM328 -8c-171 0 -296 115 -296 277s125 277 296 277s295 -115 295 -277s-124 -277 -295 -277zM328 120c78 0 137 56 137 149s-59 149 -137 149s-138 -56 -138 -149s60 -149 138 -149z" />
    <glyph glyph-name="odieresis" unicode="&#xf6;" horiz-adv-x="655" 
d="M225 612c-39 0 -70 28 -70 69s31 69 70 69s69 -28 69 -69s-30 -69 -69 -69zM427 612c-39 0 -69 28 -69 69s30 69 69 69s70 -28 70 -69s-31 -69 -70 -69zM328 -8c-171 0 -296 115 -296 277s125 277 296 277s295 -115 295 -277s-124 -277 -295 -277zM328 120
c78 0 137 56 137 149s-59 149 -137 149s-138 -56 -138 -149s60 -149 138 -149z" />
    <glyph glyph-name="uni022B" unicode="&#x22b;" horiz-adv-x="655" 
d="M141 784v83h370v-83h-370zM228 612c-37 0 -66 27 -66 66c0 38 29 66 66 66c38 0 67 -28 67 -66c0 -39 -29 -66 -67 -66zM424 612c-36 0 -66 27 -66 66c0 38 30 66 66 66c37 0 66 -28 66 -66c0 -39 -29 -66 -66 -66zM328 -8c-171 0 -296 115 -296 277s125 277 296 277
s295 -115 295 -277s-124 -277 -295 -277zM328 120c78 0 137 56 137 149s-59 149 -137 149s-138 -56 -138 -149s60 -149 138 -149z" />
    <glyph glyph-name="uni0231" unicode="&#x231;" horiz-adv-x="655" 
d="M141 791v83h370v-83h-370zM326 611c-39 0 -69 27 -69 68s30 69 69 69s69 -28 69 -69s-30 -68 -69 -68zM328 -8c-171 0 -296 115 -296 277s125 277 296 277s295 -115 295 -277s-124 -277 -295 -277zM328 120c78 0 137 56 137 149s-59 149 -137 149s-138 -56 -138 -149
s60 -149 138 -149z" />
    <glyph glyph-name="uni1ECD" unicode="&#x1ecd;" horiz-adv-x="655" 
d="M328 -8c-171 0 -296 115 -296 277s125 277 296 277s295 -115 295 -277s-124 -277 -295 -277zM328 120c78 0 137 56 137 149s-59 149 -137 149s-138 -56 -138 -149s60 -149 138 -149zM326 -210c-39 0 -69 26 -69 67s30 70 69 70s69 -29 69 -70s-30 -67 -69 -67z" />
    <glyph glyph-name="ograve" unicode="&#xf2;" horiz-adv-x="655" 
d="M295 607l-181 144h168l135 -144h-122zM328 -8c-171 0 -296 115 -296 277s125 277 296 277s295 -115 295 -277s-124 -277 -295 -277zM328 120c78 0 137 56 137 149s-59 149 -137 149s-138 -56 -138 -149s60 -149 138 -149z" />
    <glyph glyph-name="uni1ECF" unicode="&#x1ecf;" horiz-adv-x="655" 
d="M356 597l-49 52c39 18 51 38 51 61c0 25 -19 42 -47 42c-20 0 -39 -6 -59 -19l-32 63c29 23 68 34 108 34c71 0 120 -43 120 -107c0 -57 -31 -98 -92 -126zM328 -8c-171 0 -296 115 -296 277s125 277 296 277s295 -115 295 -277s-124 -277 -295 -277zM328 120
c78 0 137 56 137 149s-59 149 -137 149s-138 -56 -138 -149s60 -149 138 -149z" />
    <glyph glyph-name="ohorn" unicode="&#x1a1;" horiz-adv-x="655" 
d="M540 467c52 -49 83 -117 83 -198c0 -162 -124 -277 -295 -277s-296 115 -296 277s125 277 297 277c52 0 82 -9 119 -9c43 0 64 28 64 65c0 23 -9 44 -21 60l91 34c20 -27 34 -61 34 -100c0 -58 -28 -104 -76 -129zM328 120c77 0 137 56 137 149s-59 149 -137 149
s-138 -56 -138 -149s60 -149 138 -149z" />
    <glyph glyph-name="uni1EDB" unicode="&#x1edb;" horiz-adv-x="655" 
d="M540 751l-181 -144h-122l135 144h168zM540 467c52 -49 83 -117 83 -198c0 -162 -124 -277 -295 -277s-296 115 -296 277s125 277 297 277c52 0 82 -9 119 -9c43 0 64 28 64 65c0 23 -9 44 -21 60l91 34c20 -27 34 -61 34 -100c0 -58 -28 -104 -76 -129zM328 120
c77 0 137 56 137 149s-59 149 -137 149s-138 -56 -138 -149s60 -149 138 -149z" />
    <glyph glyph-name="uni1EE3" unicode="&#x1ee3;" horiz-adv-x="655" 
d="M540 467c52 -49 83 -117 83 -198c0 -162 -124 -277 -295 -277s-296 115 -296 277s125 277 297 277c52 0 82 -9 119 -9c43 0 64 28 64 65c0 23 -9 44 -21 60l91 34c20 -27 34 -61 34 -100c0 -58 -28 -104 -76 -129zM328 120c77 0 137 56 137 149s-59 149 -137 149
s-138 -56 -138 -149s60 -149 138 -149zM328 -73c39 0 69 -29 69 -70s-30 -67 -69 -67s-69 26 -69 67s30 70 69 70z" />
    <glyph glyph-name="uni1EDD" unicode="&#x1edd;" horiz-adv-x="655" 
d="M419 607h-122l-181 144h168zM540 467c52 -49 83 -117 83 -198c0 -162 -124 -277 -295 -277s-296 115 -296 277s125 277 297 277c52 0 82 -9 119 -9c43 0 64 28 64 65c0 23 -9 44 -21 60l91 34c20 -27 34 -61 34 -100c0 -58 -28 -104 -76 -129zM328 120
c77 0 137 56 137 149s-59 149 -137 149s-138 -56 -138 -149s60 -149 138 -149z" />
    <glyph glyph-name="uni1EDF" unicode="&#x1edf;" horiz-adv-x="655" 
d="M313 752c-20 0 -39 -6 -59 -19l-32 63c29 23 68 34 108 34c71 0 120 -43 120 -107c0 -57 -31 -98 -92 -126l-49 52c39 18 51 38 51 61c0 25 -19 42 -47 42zM540 467c52 -49 83 -117 83 -198c0 -162 -124 -277 -295 -277s-296 115 -296 277s125 277 297 277
c52 0 82 -9 119 -9c43 0 64 28 64 65c0 23 -9 44 -21 60l91 34c20 -27 34 -61 34 -100c0 -58 -28 -104 -76 -129zM328 120c77 0 137 56 137 149s-59 149 -137 149s-138 -56 -138 -149s60 -149 138 -149z" />
    <glyph glyph-name="uni1EE1" unicode="&#x1ee1;" horiz-adv-x="655" 
d="M262 667c-23 0 -40 -20 -42 -56h-68c1 89 41 146 101 146s91 -64 122 -64c23 0 40 21 41 54h69c-2 -86 -41 -143 -102 -143c-59 0 -90 63 -121 63zM540 467c52 -49 83 -117 83 -198c0 -162 -124 -277 -295 -277s-296 115 -296 277s125 277 297 277c52 0 82 -9 119 -9
c43 0 64 28 64 65c0 23 -9 44 -21 60l91 34c20 -27 34 -61 34 -100c0 -58 -28 -104 -76 -129zM328 120c77 0 137 56 137 149s-59 149 -137 149s-138 -56 -138 -149s60 -149 138 -149z" />
    <glyph glyph-name="ohungarumlaut" unicode="&#x151;" horiz-adv-x="655" 
d="M168 607l72 144h146l-104 -144h-114zM370 607l72 144h146l-104 -144h-114zM328 -8c-171 0 -296 115 -296 277s125 277 296 277s295 -115 295 -277s-124 -277 -295 -277zM328 120c78 0 137 56 137 149s-59 149 -137 149s-138 -56 -138 -149s60 -149 138 -149z" />
    <glyph glyph-name="uni020F" unicode="&#x20f;" horiz-adv-x="655" 
d="M142 607c4 94 80 152 184 152s180 -58 184 -152h-98c-2 44 -39 71 -86 71s-84 -27 -86 -71h-98zM328 -8c-171 0 -296 115 -296 277s125 277 296 277s295 -115 295 -277s-124 -277 -295 -277zM328 120c78 0 137 56 137 149s-59 149 -137 149s-138 -56 -138 -149
s60 -149 138 -149z" />
    <glyph glyph-name="omacron" unicode="&#x14d;" horiz-adv-x="655" 
d="M141 635v88h370v-88h-370zM328 -8c-171 0 -296 115 -296 277s125 277 296 277s295 -115 295 -277s-124 -277 -295 -277zM328 120c78 0 137 56 137 149s-59 149 -137 149s-138 -56 -138 -149s60 -149 138 -149z" />
    <glyph glyph-name="uni1E53" unicode="&#x1e53;" horiz-adv-x="655" 
d="M240 768l111 121h159l-157 -121h-113zM141 623v83h370v-83h-370zM328 -8c-171 0 -296 115 -296 277s125 277 296 277s295 -115 295 -277s-124 -277 -295 -277zM328 120c78 0 137 56 137 149s-59 149 -137 149s-138 -56 -138 -149s60 -149 138 -149z" />
    <glyph glyph-name="uni1E51" unicode="&#x1e51;" horiz-adv-x="655" 
d="M300 768l-157 121h159l110 -121h-112zM141 623v83h370v-83h-370zM328 -8c-171 0 -296 115 -296 277s125 277 296 277s295 -115 295 -277s-124 -277 -295 -277zM328 120c78 0 137 56 137 149s-59 149 -137 149s-138 -56 -138 -149s60 -149 138 -149z" />
    <glyph glyph-name="uni01EB" unicode="&#x1eb;" horiz-adv-x="655" 
d="M448 13c-105 -42 -130 -82 -130 -119c0 -28 22 -47 58 -47c21 0 44 6 60 15l23 -71c-25 -13 -64 -23 -101 -23c-88 0 -138 45 -138 111c0 42 20 83 64 116c-148 18 -252 126 -252 274c0 162 125 277 296 277s295 -115 295 -277c0 -119 -69 -212 -175 -256zM190 269
c0 -93 60 -149 138 -149s137 56 137 149s-59 149 -137 149s-138 -56 -138 -149z" />
    <glyph glyph-name="oslash" unicode="&#xf8;" horiz-adv-x="655" 
d="M511 491c70 -49 112 -127 112 -222c0 -162 -124 -277 -295 -277c-46 0 -89 8 -127 24l-57 -87h-77l77 118c-69 49 -112 128 -112 222c0 162 125 277 296 277c46 0 88 -8 126 -23l53 81h78zM190 269c0 -42 12 -76 33 -101l157 241c-16 6 -33 9 -52 9
c-78 0 -138 -56 -138 -149zM328 120c78 0 137 56 137 149c0 42 -12 76 -32 102l-158 -241c16 -7 34 -10 53 -10z" />
    <glyph glyph-name="oslashacute" unicode="&#x1ff;" horiz-adv-x="655" 
d="M535 751l-181 -144h-122l135 144h168zM511 491c70 -49 112 -127 112 -222c0 -162 -124 -277 -295 -277c-46 0 -89 8 -127 24l-57 -87h-77l77 118c-69 49 -112 128 -112 222c0 162 125 277 296 277c46 0 88 -8 126 -23l53 81h78zM190 269c0 -42 12 -76 33 -101l157 241
c-16 6 -33 9 -52 9c-78 0 -138 -56 -138 -149zM328 120c78 0 137 56 137 149c0 42 -12 76 -32 102l-158 -241c16 -7 34 -10 53 -10z" />
    <glyph glyph-name="otilde" unicode="&#xf5;" horiz-adv-x="655" 
d="M401 604c-69 0 -104 63 -140 63c-27 0 -46 -20 -48 -56h-79c2 89 47 146 117 146c69 0 104 -64 140 -64c27 0 46 21 48 54h79c-2 -86 -47 -143 -117 -143zM328 -8c-171 0 -296 115 -296 277s125 277 296 277s295 -115 295 -277s-124 -277 -295 -277zM328 120
c78 0 137 56 137 149s-59 149 -137 149s-138 -56 -138 -149s60 -149 138 -149z" />
    <glyph glyph-name="uni1E4D" unicode="&#x1e4d;" horiz-adv-x="655" 
d="M240 768l111 121h159l-157 -121h-113zM400 605c-69 0 -105 52 -138 52c-27 0 -42 -17 -44 -46h-80c1 80 45 125 116 125c67 0 103 -52 138 -52c27 0 42 19 44 45h78c-1 -77 -43 -124 -114 -124zM328 -8c-171 0 -296 115 -296 277s125 277 296 277s295 -115 295 -277
s-124 -277 -295 -277zM328 120c78 0 137 56 137 149s-59 149 -137 149s-138 -56 -138 -149s60 -149 138 -149z" />
    <glyph glyph-name="uni1E4F" unicode="&#x1e4f;" horiz-adv-x="655" 
d="M228 773c-37 0 -66 27 -66 66c0 38 29 66 66 66c38 0 67 -28 67 -66c0 -39 -29 -66 -67 -66zM424 773c-36 0 -66 27 -66 66c0 38 30 66 66 66c37 0 66 -28 66 -66c0 -39 -29 -66 -66 -66zM400 605c-69 0 -105 52 -138 52c-27 0 -42 -17 -44 -46h-80c1 80 45 125 116 125
c67 0 103 -52 138 -52c27 0 42 19 44 45h78c-1 -77 -43 -124 -114 -124zM328 -8c-171 0 -296 115 -296 277s125 277 296 277s295 -115 295 -277s-124 -277 -295 -277zM328 120c78 0 137 56 137 149s-59 149 -137 149s-138 -56 -138 -149s60 -149 138 -149z" />
    <glyph glyph-name="uni022D" unicode="&#x22d;" horiz-adv-x="655" 
d="M141 784v83h370v-83h-370zM400 605c-69 0 -105 52 -138 52c-27 0 -42 -17 -44 -46h-80c1 80 45 125 116 125c67 0 103 -52 138 -52c27 0 42 19 44 45h78c-1 -77 -43 -124 -114 -124zM328 -8c-171 0 -296 115 -296 277s125 277 296 277s295 -115 295 -277
s-124 -277 -295 -277zM328 120c78 0 137 56 137 149s-59 149 -137 149s-138 -56 -138 -149s60 -149 138 -149z" />
    <glyph glyph-name="oe" unicode="&#x153;" horiz-adv-x="1064" 
d="M1032 268c0 -14 -1 -30 -3 -43h-408c15 -67 72 -108 155 -108c54 0 96 17 134 52l84 -90c-51 -57 -129 -87 -223 -87c-100 0 -179 35 -229 93c-49 -58 -123 -93 -216 -93c-169 0 -294 115 -294 277s125 277 294 277c92 0 167 -34 215 -92c48 58 122 92 211 92
c157 0 280 -106 280 -278zM752 428c-71 0 -122 -43 -133 -112h264c-10 68 -60 112 -131 112zM328 120c78 0 137 56 137 149s-59 149 -137 149s-138 -56 -138 -149s60 -149 138 -149z" />
    <glyph glyph-name="p" unicode="p" horiz-adv-x="690" 
d="M390 546c151 0 268 -108 268 -277s-117 -277 -268 -277c-67 0 -122 21 -162 65v-251h-156v732h149v-62c39 47 97 70 169 70zM363 120c78 0 137 56 137 149s-59 149 -137 149s-137 -56 -137 -149s59 -149 137 -149z" />
    <glyph glyph-name="thorn" unicode="&#xfe;" horiz-adv-x="690" 
d="M390 546c151 0 268 -108 268 -277s-117 -277 -268 -277c-67 0 -122 21 -162 65v-251h-156v936h156v-258c39 42 94 62 162 62zM363 120c78 0 137 56 137 149s-59 149 -137 149s-137 -56 -137 -149s59 -149 137 -149z" />
    <glyph glyph-name="q" unicode="q" horiz-adv-x="690" 
d="M469 538h149v-732h-156v251c-39 -44 -95 -65 -161 -65c-152 0 -269 108 -269 277s117 277 269 277c72 0 129 -23 168 -70v62zM328 120c77 0 137 56 137 149s-60 149 -137 149c-78 0 -138 -56 -138 -149s60 -149 138 -149z" />
    <glyph glyph-name="r" unicode="r" horiz-adv-x="431" 
d="M221 467c38 52 102 79 185 79v-144c-13 1 -23 2 -35 2c-86 0 -143 -47 -143 -150v-254h-156v538h149v-71z" />
    <glyph glyph-name="racute" unicode="&#x155;" horiz-adv-x="431" 
d="M451 751l-181 -144h-122l135 144h168zM221 467c38 52 102 79 185 79v-144c-13 1 -23 2 -35 2c-86 0 -143 -47 -143 -150v-254h-156v538h149v-71z" />
    <glyph glyph-name="rcaron" unicode="&#x159;" horiz-adv-x="431" 
d="M308 607h-138l-132 144h114l87 -75l87 75h114zM221 467c38 52 102 79 185 79v-144c-13 1 -23 2 -35 2c-86 0 -143 -47 -143 -150v-254h-156v538h149v-71z" />
    <glyph glyph-name="rcommaaccent" unicode="&#x157;" horiz-adv-x="431" 
d="M221 467c38 52 102 79 185 79v-144c-13 1 -23 2 -35 2c-86 0 -143 -47 -143 -150v-254h-156v538h149v-71zM150 -73c43 0 69 -25 69 -60c0 -16 -3 -37 -18 -65l-35 -68h-73l25 80c-24 8 -37 27 -37 53c0 35 26 60 69 60z" />
    <glyph glyph-name="uni0211" unicode="&#x211;" horiz-adv-x="431" 
d="M195 607h-114l-104 144h146zM397 607h-114l-104 144h146zM221 467c38 52 102 79 185 79v-144c-13 1 -23 2 -35 2c-86 0 -143 -47 -143 -150v-254h-156v538h149v-71z" />
    <glyph glyph-name="uni1E5B" unicode="&#x1e5b;" horiz-adv-x="431" 
d="M221 467c38 52 102 79 185 79v-144c-13 1 -23 2 -35 2c-86 0 -143 -47 -143 -150v-254h-156v538h149v-71zM150 -73c39 0 69 -29 69 -70s-30 -67 -69 -67s-69 26 -69 67s30 70 69 70z" />
    <glyph glyph-name="uni0213" unicode="&#x213;" horiz-adv-x="431" 
d="M239 678c-47 0 -84 -27 -86 -71h-98c4 94 80 152 184 152s180 -58 184 -152h-98c-2 44 -39 71 -86 71zM221 467c38 52 102 79 185 79v-144c-13 1 -23 2 -35 2c-86 0 -143 -47 -143 -150v-254h-156v538h149v-71z" />
    <glyph glyph-name="uni1E5F" unicode="&#x1e5f;" horiz-adv-x="431" 
d="M221 467c38 52 102 79 185 79v-144c-13 1 -23 2 -35 2c-86 0 -143 -47 -143 -150v-254h-156v538h149v-71zM-35 -182v87h370v-87h-370z" />
    <glyph glyph-name="s" unicode="s" horiz-adv-x="531" 
d="M253 -8c-91 0 -183 25 -233 58l52 112c48 -31 121 -52 187 -52c72 0 99 19 99 49c0 88 -325 -2 -325 213c0 102 92 174 249 174c74 0 156 -17 207 -47l-52 -111c-53 30 -106 40 -155 40c-70 0 -100 -22 -100 -50c0 -92 325 -3 325 -215c0 -100 -93 -171 -254 -171z" />
    <glyph glyph-name="sacute" unicode="&#x15b;" horiz-adv-x="531" 
d="M170 607l135 144h168l-181 -144h-122zM253 -8c-91 0 -183 25 -233 58l52 112c48 -31 121 -52 187 -52c72 0 99 19 99 49c0 88 -325 -2 -325 213c0 102 92 174 249 174c74 0 156 -17 207 -47l-52 -111c-53 30 -106 40 -155 40c-70 0 -100 -22 -100 -50
c0 -92 325 -3 325 -215c0 -100 -93 -171 -254 -171z" />
    <glyph glyph-name="uni1E65" unicode="&#x1e65;" horiz-adv-x="531" 
d="M261 772c-39 0 -69 27 -69 68s30 69 69 69s69 -28 69 -69s-30 -68 -69 -68zM175 607l111 121h159l-157 -121h-113zM253 -8c-91 0 -183 25 -233 58l52 112c48 -31 121 -52 187 -52c72 0 99 19 99 49c0 88 -325 -2 -325 213c0 102 92 174 249 174c74 0 156 -17 207 -47
l-52 -111c-53 30 -106 40 -155 40c-70 0 -100 -22 -100 -50c0 -92 325 -3 325 -215c0 -100 -93 -171 -254 -171z" />
    <glyph glyph-name="uniA78C" unicode="&#xa78c;" horiz-adv-x="292" 
d="M68 297l1 383h154l-20 -383h-135z" />
    <glyph glyph-name="scaron" unicode="&#x161;" horiz-adv-x="531" 
d="M330 607h-138l-132 144h114l87 -75l87 75h114zM182 378c0 -92 325 -3 325 -215c0 -100 -93 -171 -254 -171c-91 0 -183 25 -233 58l52 112c48 -31 121 -52 187 -52c72 0 99 19 99 49c0 88 -325 -2 -325 213c0 102 92 174 249 174c74 0 156 -17 207 -47l-52 -111
c-53 30 -106 40 -155 40c-70 0 -100 -22 -100 -50z" />
    <glyph glyph-name="uni1E67" unicode="&#x1e67;" horiz-adv-x="531" 
d="M261 749c-39 0 -69 27 -69 68s30 69 69 69s69 -28 69 -69s-30 -68 -69 -68zM329 607h-136l-133 114h115l86 -57l86 57h115zM182 378c0 -92 325 -3 325 -215c0 -100 -93 -171 -254 -171c-91 0 -183 25 -233 58l52 112c48 -31 121 -52 187 -52c72 0 99 19 99 49
c0 88 -325 -2 -325 213c0 102 92 174 249 174c74 0 156 -17 207 -47l-52 -111c-53 30 -106 40 -155 40c-70 0 -100 -22 -100 -50z" />
    <glyph glyph-name="scedilla" unicode="&#x15f;" horiz-adv-x="531" 
d="M507 163c0 -90 -76 -157 -208 -169l-11 -44c61 -7 87 -42 87 -83c0 -61 -58 -99 -147 -99c-35 0 -70 8 -93 21l24 67c19 -9 41 -15 65 -15c37 0 52 13 52 32c0 17 -14 29 -49 29h-34l22 91c-78 6 -152 29 -195 57l52 112c48 -31 121 -52 187 -52c72 0 99 19 99 49
c0 88 -325 -2 -325 213c0 102 92 174 249 174c74 0 156 -17 207 -47l-52 -111c-53 30 -106 40 -155 40c-70 0 -100 -22 -100 -50c0 -92 325 -3 325 -215z" />
    <glyph glyph-name="scircumflex" unicode="&#x15d;" horiz-adv-x="531" 
d="M261 683l-87 -76h-114l132 144h138l132 -144h-114zM182 378c0 -92 325 -3 325 -215c0 -100 -93 -171 -254 -171c-91 0 -183 25 -233 58l52 112c48 -31 121 -52 187 -52c72 0 99 19 99 49c0 88 -325 -2 -325 213c0 102 92 174 249 174c74 0 156 -17 207 -47l-52 -111
c-53 30 -106 40 -155 40c-70 0 -100 -22 -100 -50z" />
    <glyph glyph-name="scommaaccent" unicode="&#x219;" horiz-adv-x="531" 
d="M182 378c0 -92 325 -3 325 -215c0 -100 -93 -171 -254 -171c-91 0 -183 25 -233 58l52 112c48 -31 121 -52 187 -52c72 0 99 19 99 49c0 88 -325 -2 -325 213c0 102 92 174 249 174c74 0 156 -17 207 -47l-52 -111c-53 30 -106 40 -155 40c-70 0 -100 -22 -100 -50z
M261 -73c43 0 69 -25 69 -60c0 -16 -3 -37 -18 -65l-35 -68h-73l25 80c-24 8 -37 27 -37 53c0 35 26 60 69 60z" />
    <glyph glyph-name="uni1E61" unicode="&#x1e61;" horiz-adv-x="531" 
d="M261 612c-49 0 -84 36 -84 85c0 48 35 84 84 84s84 -36 84 -84c0 -49 -35 -85 -84 -85zM253 -8c-91 0 -183 25 -233 58l52 112c48 -31 121 -52 187 -52c72 0 99 19 99 49c0 88 -325 -2 -325 213c0 102 92 174 249 174c74 0 156 -17 207 -47l-52 -111
c-53 30 -106 40 -155 40c-70 0 -100 -22 -100 -50c0 -92 325 -3 325 -215c0 -100 -93 -171 -254 -171z" />
    <glyph glyph-name="uni1E63" unicode="&#x1e63;" horiz-adv-x="531" 
d="M253 -8c-91 0 -183 25 -233 58l52 112c48 -31 121 -52 187 -52c72 0 99 19 99 49c0 88 -325 -2 -325 213c0 102 92 174 249 174c74 0 156 -17 207 -47l-52 -111c-53 30 -106 40 -155 40c-70 0 -100 -22 -100 -50c0 -92 325 -3 325 -215c0 -100 -93 -171 -254 -171z
M261 -210c-39 0 -69 26 -69 67s30 70 69 70s69 -29 69 -70s-30 -67 -69 -67z" />
    <glyph glyph-name="uni1E69" unicode="&#x1e69;" horiz-adv-x="531" 
d="M261 612c-49 0 -84 36 -84 85c0 48 35 84 84 84s84 -36 84 -84c0 -49 -35 -85 -84 -85zM253 -8c-91 0 -183 25 -233 58l52 112c48 -31 121 -52 187 -52c72 0 99 19 99 49c0 88 -325 -2 -325 213c0 102 92 174 249 174c74 0 156 -17 207 -47l-52 -111
c-53 30 -106 40 -155 40c-70 0 -100 -22 -100 -50c0 -92 325 -3 325 -215c0 -100 -93 -171 -254 -171zM261 -210c-39 0 -69 26 -69 67s30 70 69 70s69 -29 69 -70s-30 -67 -69 -67z" />
    <glyph glyph-name="germandbls" unicode="&#xdf;" horiz-adv-x="693" 
d="M524 392c84 -28 137 -91 137 -185c0 -136 -103 -215 -252 -215c-40 0 -88 6 -118 16l18 124c25 -8 49 -12 84 -12c67 0 110 32 110 91s-46 91 -121 91h-54v123c75 2 122 43 122 105c0 56 -39 93 -105 93c-72 0 -117 -42 -117 -121v-502h-156v483c0 177 121 267 273 267
c161 0 255 -91 255 -209c0 -64 -31 -115 -76 -149z" />
    <glyph glyph-name="longs" unicode="&#x17f;" horiz-adv-x="333" 
d="M310 750c45 0 90 -9 119 -29l-41 -113c-17 12 -39 19 -63 19c-44 0 -67 -25 -67 -78v-549h-156v406h-83v120h83v24c0 121 75 200 208 200z" />
    <glyph glyph-name="t" unicode="t" horiz-adv-x="435" 
d="M377 136l42 -110c-32 -23 -79 -34 -127 -34c-127 0 -201 65 -201 193v221h-83v120h83v131h156v-131h134v-120h-134v-219c0 -46 25 -71 67 -71c23 0 46 7 63 20z" />
    <glyph glyph-name="tbar" unicode="&#x167;" horiz-adv-x="445" 
d="M382 136l42 -110c-32 -23 -79 -34 -127 -34c-127 0 -201 65 -201 193v45h-71v90h71v86h-83v120h83v131h156v-131h134v-120h-134v-86h122v-90h-122v-43c0 -46 25 -71 67 -71c23 0 46 7 63 20z" />
    <glyph glyph-name="tcaron" unicode="&#x165;" horiz-adv-x="435" 
d="M426 768l-16 -186h-95v186h111zM314 116c23 0 46 7 63 20l42 -110c-32 -23 -79 -34 -127 -34c-127 0 -201 65 -201 193v221h-83v120h83v131h156v-131h134v-120h-134v-219c0 -46 25 -71 67 -71z" />
    <glyph glyph-name="uni0163" unicode="&#x163;" horiz-adv-x="435" 
d="M290 -50c61 -7 87 -42 87 -83c0 -61 -58 -99 -147 -99c-35 0 -70 8 -93 21l24 67c19 -9 41 -15 65 -15c37 0 52 13 52 32c0 17 -14 29 -49 29h-34l24 99c-82 21 -128 83 -128 184v221h-83v120h83v131h156v-131h134v-120h-134v-219c0 -46 25 -71 67 -71c23 0 46 7 63 20
l42 -110c-30 -22 -74 -33 -119 -34z" />
    <glyph glyph-name="uni021B" unicode="&#x21b;" horiz-adv-x="435" 
d="M419 26c-32 -23 -79 -34 -127 -34c-127 0 -201 65 -201 193v221h-83v120h83v131h156v-131h134v-120h-134v-219c0 -46 25 -71 67 -71c23 0 46 7 63 20zM263 -73c43 0 69 -25 69 -60c0 -16 -3 -37 -18 -65l-35 -68h-73l25 80c-24 8 -37 27 -37 53c0 35 26 60 69 60z" />
    <glyph glyph-name="uni1E97" unicode="&#x1e97;" horiz-adv-x="435" 
d="M68 731c-39 0 -70 28 -70 69s31 69 70 69s69 -28 69 -69s-30 -69 -69 -69zM270 731c-39 0 -69 28 -69 69s30 69 69 69s70 -28 70 -69s-31 -69 -70 -69zM377 136l42 -110c-32 -23 -79 -34 -127 -34c-127 0 -201 65 -201 193v221h-83v120h83v131h156v-131h134v-120h-134
v-219c0 -46 25 -71 67 -71c23 0 46 7 63 20z" />
    <glyph glyph-name="uni1E6D" unicode="&#x1e6d;" horiz-adv-x="435" 
d="M419 26c-32 -23 -79 -34 -127 -34c-127 0 -201 65 -201 193v221h-83v120h83v131h156v-131h134v-120h-134v-219c0 -46 25 -71 67 -71c23 0 46 7 63 20zM263 -73c39 0 69 -29 69 -70s-30 -67 -69 -67s-69 26 -69 67s30 70 69 70z" />
    <glyph glyph-name="uni1E6F" unicode="&#x1e6f;" horiz-adv-x="435" 
d="M91 185v221h-83v120h83v131h156v-131h134v-120h-134v-219c0 -46 25 -71 67 -71c23 0 46 7 63 20l42 -110c-32 -23 -79 -34 -127 -34c-127 0 -201 65 -201 193zM78 -95h370v-87h-370v87z" />
    <glyph glyph-name="u" unicode="u" horiz-adv-x="687" 
d="M458 538h156v-538h-148v64c-41 -47 -101 -72 -167 -72c-135 0 -230 76 -230 242v304h156v-281c0 -90 40 -130 109 -130c72 0 124 46 124 145v266z" />
    <glyph glyph-name="uacute" unicode="&#xfa;" horiz-adv-x="687" 
d="M553 751l-181 -144h-122l135 144h168zM458 538h156v-538h-148v64c-41 -47 -101 -72 -167 -72c-135 0 -230 76 -230 242v304h156v-281c0 -90 40 -130 109 -130c72 0 124 46 124 145v266z" />
    <glyph glyph-name="ubreve" unicode="&#x16d;" horiz-adv-x="687" 
d="M341 599c-104 0 -180 58 -184 152h98c2 -43 39 -71 86 -71s84 28 86 71h98c-4 -94 -80 -152 -184 -152zM458 538h156v-538h-148v64c-41 -47 -101 -72 -167 -72c-135 0 -230 76 -230 242v304h156v-281c0 -90 40 -130 109 -130c72 0 124 46 124 145v266z" />
    <glyph glyph-name="uni01D4" unicode="&#x1d4;" horiz-adv-x="687" 
d="M410 607h-138l-132 144h114l87 -75l87 75h114zM458 538h156v-538h-148v64c-41 -47 -101 -72 -167 -72c-135 0 -230 76 -230 242v304h156v-281c0 -90 40 -130 109 -130c72 0 124 46 124 145v266z" />
    <glyph glyph-name="ucircumflex" unicode="&#xfb;" horiz-adv-x="687" 
d="M341 683l-87 -76h-114l132 144h138l132 -144h-114zM458 538h156v-538h-148v64c-41 -47 -101 -72 -167 -72c-135 0 -230 76 -230 242v304h156v-281c0 -90 40 -130 109 -130c72 0 124 46 124 145v266z" />
    <glyph glyph-name="uni0215" unicode="&#x215;" horiz-adv-x="687" 
d="M297 607h-114l-104 144h146zM499 607h-114l-104 144h146zM458 538h156v-538h-148v64c-41 -47 -101 -72 -167 -72c-135 0 -230 76 -230 242v304h156v-281c0 -90 40 -130 109 -130c72 0 124 46 124 145v266z" />
    <glyph glyph-name="udieresis" unicode="&#xfc;" horiz-adv-x="687" 
d="M240 612c-39 0 -70 28 -70 69s31 69 70 69s69 -28 69 -69s-30 -69 -69 -69zM442 612c-39 0 -69 28 -69 69s30 69 69 69s70 -28 70 -69s-31 -69 -70 -69zM458 538h156v-538h-148v64c-41 -47 -101 -72 -167 -72c-135 0 -230 76 -230 242v304h156v-281
c0 -90 40 -130 109 -130c72 0 124 46 124 145v266z" />
    <glyph glyph-name="uni1EE5" unicode="&#x1ee5;" horiz-adv-x="687" 
d="M458 538h156v-538h-148v64c-41 -47 -101 -72 -167 -72c-135 0 -230 76 -230 242v304h156v-281c0 -90 40 -130 109 -130c72 0 124 46 124 145v266zM341 -73c39 0 69 -29 69 -70s-30 -67 -69 -67s-69 26 -69 67s30 70 69 70z" />
    <glyph glyph-name="ugrave" unicode="&#xf9;" horiz-adv-x="687" 
d="M432 607h-122l-181 144h168zM458 538h156v-538h-148v64c-41 -47 -101 -72 -167 -72c-135 0 -230 76 -230 242v304h156v-281c0 -90 40 -130 109 -130c72 0 124 46 124 145v266z" />
    <glyph glyph-name="uni1EE7" unicode="&#x1ee7;" horiz-adv-x="687" 
d="M326 752c-20 0 -39 -6 -59 -19l-32 63c29 23 68 34 108 34c71 0 120 -43 120 -107c0 -57 -31 -98 -92 -126l-49 52c39 18 51 38 51 61c0 25 -19 42 -47 42zM458 538h156v-538h-148v64c-41 -47 -101 -72 -167 -72c-135 0 -230 76 -230 242v304h156v-281
c0 -90 40 -130 109 -130c72 0 124 46 124 145v266z" />
    <glyph glyph-name="uhorn" unicode="&#x1b0;" horiz-adv-x="701" 
d="M705 595c0 -72 -33 -124 -91 -147v-448h-148v64c-41 -47 -101 -72 -167 -72c-135 0 -230 76 -230 242v304h156v-281c0 -90 40 -130 109 -130c72 0 124 46 124 145v266h83c36 0 60 26 60 63c0 24 -8 45 -20 60l92 34c20 -26 32 -60 32 -100z" />
    <glyph glyph-name="uni1EE9" unicode="&#x1ee9;" horiz-adv-x="701" 
d="M553 751l-181 -144h-122l135 144h168zM705 595c0 -72 -33 -124 -91 -147v-448h-148v64c-41 -47 -101 -72 -167 -72c-135 0 -230 76 -230 242v304h156v-281c0 -90 40 -130 109 -130c72 0 124 46 124 145v266h83c36 0 60 26 60 63c0 24 -8 45 -20 60l92 34
c20 -26 32 -60 32 -100z" />
    <glyph glyph-name="uni1EF1" unicode="&#x1ef1;" horiz-adv-x="701" 
d="M705 595c0 -72 -33 -124 -91 -147v-448h-148v64c-41 -47 -101 -72 -167 -72c-135 0 -230 76 -230 242v304h156v-281c0 -90 40 -130 109 -130c72 0 124 46 124 145v266h83c36 0 60 26 60 63c0 24 -8 45 -20 60l92 34c20 -26 32 -60 32 -100zM341 -73c39 0 69 -29 69 -70
s-30 -67 -69 -67s-69 26 -69 67s30 70 69 70z" />
    <glyph glyph-name="uni1EEB" unicode="&#x1eeb;" horiz-adv-x="701" 
d="M432 607h-122l-181 144h168zM705 595c0 -72 -33 -124 -91 -147v-448h-148v64c-41 -47 -101 -72 -167 -72c-135 0 -230 76 -230 242v304h156v-281c0 -90 40 -130 109 -130c72 0 124 46 124 145v266h83c36 0 60 26 60 63c0 24 -8 45 -20 60l92 34c20 -26 32 -60 32 -100z
" />
    <glyph glyph-name="uni1EED" unicode="&#x1eed;" horiz-adv-x="701" 
d="M326 752c-20 0 -39 -6 -59 -19l-32 63c29 23 68 34 108 34c71 0 120 -43 120 -107c0 -57 -31 -98 -92 -126l-49 52c39 18 51 38 51 61c0 25 -19 42 -47 42zM705 595c0 -72 -33 -124 -91 -147v-448h-148v64c-41 -47 -101 -72 -167 -72c-135 0 -230 76 -230 242v304h156
v-281c0 -90 40 -130 109 -130c72 0 124 46 124 145v266h83c36 0 60 26 60 63c0 24 -8 45 -20 60l92 34c20 -26 32 -60 32 -100z" />
    <glyph glyph-name="uni1EEF" unicode="&#x1eef;" horiz-adv-x="701" 
d="M276 667c-27 0 -46 -20 -48 -56h-79c2 89 47 146 117 146c69 0 104 -64 140 -64c27 0 46 21 48 54h79c-2 -86 -47 -143 -117 -143c-69 0 -104 63 -140 63zM705 595c0 -72 -33 -124 -91 -147v-448h-148v64c-41 -47 -101 -72 -167 -72c-135 0 -230 76 -230 242v304h156
v-281c0 -90 40 -130 109 -130c72 0 124 46 124 145v266h83c36 0 60 26 60 63c0 24 -8 45 -20 60l92 34c20 -26 32 -60 32 -100z" />
    <glyph glyph-name="uhungarumlaut" unicode="&#x171;" horiz-adv-x="687" 
d="M401 751l-104 -144h-114l72 144h146zM499 607h-114l72 144h146zM458 538h156v-538h-148v64c-41 -47 -101 -72 -167 -72c-135 0 -230 76 -230 242v304h156v-281c0 -90 40 -130 109 -130c72 0 124 46 124 145v266z" />
    <glyph glyph-name="uni0217" unicode="&#x217;" horiz-adv-x="687" 
d="M341 678c-47 0 -84 -27 -86 -71h-98c4 94 80 152 184 152s180 -58 184 -152h-98c-2 44 -39 71 -86 71zM458 538h156v-538h-148v64c-41 -47 -101 -72 -167 -72c-135 0 -230 76 -230 242v304h156v-281c0 -90 40 -130 109 -130c72 0 124 46 124 145v266z" />
    <glyph glyph-name="umacron" unicode="&#x16b;" horiz-adv-x="687" 
d="M526 723v-88h-370v88h370zM458 538h156v-538h-148v64c-41 -47 -101 -72 -167 -72c-135 0 -230 76 -230 242v304h156v-281c0 -90 40 -130 109 -130c72 0 124 46 124 145v266z" />
    <glyph glyph-name="uni1E7B" unicode="&#x1e7b;" horiz-adv-x="687" 
d="M243 773c-37 0 -66 27 -66 66c0 38 29 66 66 66c38 0 67 -28 67 -66c0 -39 -29 -66 -67 -66zM439 773c-36 0 -66 27 -66 66c0 38 30 66 66 66c37 0 66 -28 66 -66c0 -39 -29 -66 -66 -66zM526 706v-83h-370v83h370zM458 538h156v-538h-148v64c-41 -47 -101 -72 -167 -72
c-135 0 -230 76 -230 242v304h156v-281c0 -90 40 -130 109 -130c72 0 124 46 124 145v266z" />
    <glyph glyph-name="uogonek" unicode="&#x173;" horiz-adv-x="687" 
d="M615 -138l22 -71c-24 -13 -63 -23 -101 -23c-87 0 -138 45 -138 112c0 44 23 85 73 120h-5v64c-41 -47 -101 -72 -167 -72c-135 0 -230 76 -230 242v304h156v-281c0 -90 40 -130 109 -130c72 0 124 46 124 145v266h156v-538c-86 -38 -117 -70 -117 -107
c0 -28 22 -46 57 -46c22 0 45 6 61 15z" />
    <glyph glyph-name="uring" unicode="&#x16f;" horiz-adv-x="687" 
d="M340 592c-70 0 -123 53 -123 121c0 67 53 121 123 121c71 0 125 -54 125 -121c0 -68 -54 -121 -125 -121zM340 774c-33 0 -60 -26 -60 -61s26 -61 60 -61c35 0 61 26 61 61s-26 61 -61 61zM458 538h156v-538h-148v64c-41 -47 -101 -72 -167 -72c-135 0 -230 76 -230 242
v304h156v-281c0 -90 40 -130 109 -130c72 0 124 46 124 145v266z" />
    <glyph glyph-name="utilde" unicode="&#x169;" horiz-adv-x="687" 
d="M276 667c-27 0 -46 -20 -48 -56h-79c2 89 47 146 117 146c69 0 104 -64 140 -64c27 0 46 21 48 54h79c-2 -86 -47 -143 -117 -143c-69 0 -104 63 -140 63zM458 538h156v-538h-148v64c-41 -47 -101 -72 -167 -72c-135 0 -230 76 -230 242v304h156v-281
c0 -90 40 -130 109 -130c72 0 124 46 124 145v266z" />
    <glyph glyph-name="uni1E79" unicode="&#x1e79;" horiz-adv-x="687" 
d="M525 889l-157 -121h-113l111 121h159zM277 657c-27 0 -42 -17 -44 -46h-80c1 80 45 125 116 125c67 0 103 -52 138 -52c27 0 42 19 44 45h78c-1 -77 -43 -124 -114 -124c-69 0 -105 52 -138 52zM458 538h156v-538h-148v64c-41 -47 -101 -72 -167 -72
c-135 0 -230 76 -230 242v304h156v-281c0 -90 40 -130 109 -130c72 0 124 46 124 145v266z" />
    <glyph glyph-name="v" unicode="v" horiz-adv-x="598" 
d="M456 538h150l-227 -538h-161l-226 538h161l149 -366z" />
    <glyph glyph-name="w" unicode="w" horiz-adv-x="937" 
d="M798 538h138l-195 -538h-150l-121 334l-125 -334h-150l-194 538h147l127 -364l132 364h132l128 -364z" />
    <glyph glyph-name="wacute" unicode="&#x1e83;" horiz-adv-x="937" 
d="M679 750l-181 -144h-122l135 144h168zM798 538h138l-195 -538h-150l-121 334l-125 -334h-150l-194 538h147l127 -364l132 364h132l128 -364z" />
    <glyph glyph-name="wcircumflex" unicode="&#x175;" horiz-adv-x="937" 
d="M467 682l-87 -76h-114l132 144h138l132 -144h-114zM798 538h138l-195 -538h-150l-121 334l-125 -334h-150l-194 538h147l127 -364l132 364h132l128 -364z" />
    <glyph glyph-name="wdieresis" unicode="&#x1e85;" horiz-adv-x="937" 
d="M366 611c-39 0 -70 28 -70 69s31 69 70 69s69 -28 69 -69s-30 -69 -69 -69zM568 611c-39 0 -69 28 -69 69s30 69 69 69s70 -28 70 -69s-31 -69 -70 -69zM798 538h138l-195 -538h-150l-121 334l-125 -334h-150l-194 538h147l127 -364l132 364h132l128 -364z" />
    <glyph glyph-name="wgrave" unicode="&#x1e81;" horiz-adv-x="937" 
d="M558 606h-122l-181 144h168zM798 538h138l-195 -538h-150l-121 334l-125 -334h-150l-194 538h147l127 -364l132 364h132l128 -364z" />
    <glyph glyph-name="x" unicode="x" horiz-adv-x="595" 
d="M591 0h-177l-118 165l-122 -165h-170l207 271l-200 267h175l114 -157l117 157h166l-200 -263z" />
    <glyph glyph-name="y" unicode="y" horiz-adv-x="598" 
d="M456 538h150l-243 -571c-52 -130 -126 -169 -223 -169c-55 0 -115 18 -150 49l57 111c24 -21 57 -34 88 -34c43 0 67 19 88 67l2 5l-233 542h161l151 -365z" />
    <glyph glyph-name="yacute" unicode="&#xfd;" horiz-adv-x="598" 
d="M500 751l-181 -144h-122l135 144h168zM456 538h150l-243 -571c-52 -130 -126 -169 -223 -169c-55 0 -115 18 -150 49l57 111c24 -21 57 -34 88 -34c43 0 67 19 88 67l2 5l-233 542h161l151 -365z" />
    <glyph glyph-name="ycircumflex" unicode="&#x177;" horiz-adv-x="598" 
d="M288 683l-87 -76h-114l132 144h138l132 -144h-114zM456 538h150l-243 -571c-52 -130 -126 -169 -223 -169c-55 0 -115 18 -150 49l57 111c24 -21 57 -34 88 -34c43 0 67 19 88 67l2 5l-233 542h161l151 -365z" />
    <glyph glyph-name="ydieresis" unicode="&#xff;" horiz-adv-x="598" 
d="M187 612c-39 0 -70 28 -70 69s31 69 70 69s69 -28 69 -69s-30 -69 -69 -69zM389 612c-39 0 -69 28 -69 69s30 69 69 69s70 -28 70 -69s-31 -69 -70 -69zM456 538h150l-243 -571c-52 -130 -126 -169 -223 -169c-55 0 -115 18 -150 49l57 111c24 -21 57 -34 88 -34
c43 0 67 19 88 67l2 5l-233 542h161l151 -365z" />
    <glyph glyph-name="uni1E8F" unicode="&#x1e8f;" horiz-adv-x="598" 
d="M288 612c-49 0 -84 36 -84 85c0 48 35 84 84 84s84 -36 84 -84c0 -49 -35 -85 -84 -85zM456 538h150l-243 -571c-52 -130 -126 -169 -223 -169c-55 0 -115 18 -150 49l57 111c24 -21 57 -34 88 -34c43 0 67 19 88 67l2 5l-233 542h161l151 -365z" />
    <glyph glyph-name="uni1EF5" unicode="&#x1ef5;" horiz-adv-x="598" 
d="M456 538h150l-243 -571c-52 -130 -126 -169 -223 -169c-55 0 -115 18 -150 49l57 111c24 -21 57 -34 88 -34c43 0 67 19 88 67l2 5l-233 542h161l151 -365zM464 -73c39 0 69 -29 69 -70s-30 -67 -69 -67s-69 26 -69 67s30 70 69 70z" />
    <glyph glyph-name="ygrave" unicode="&#x1ef3;" horiz-adv-x="598" 
d="M379 607h-122l-181 144h168zM456 538h150l-243 -571c-52 -130 -126 -169 -223 -169c-55 0 -115 18 -150 49l57 111c24 -21 57 -34 88 -34c43 0 67 19 88 67l2 5l-233 542h161l151 -365z" />
    <glyph glyph-name="uni1EF7" unicode="&#x1ef7;" horiz-adv-x="598" 
d="M273 752c-20 0 -39 -6 -59 -19l-32 63c29 23 68 34 108 34c71 0 120 -43 120 -107c0 -57 -31 -98 -92 -126l-49 52c39 18 51 38 51 61c0 25 -19 42 -47 42zM456 538h150l-243 -571c-52 -130 -126 -169 -223 -169c-55 0 -115 18 -150 49l57 111c24 -21 57 -34 88 -34
c43 0 67 19 88 67l2 5l-233 542h161l151 -365z" />
    <glyph glyph-name="uni0233" unicode="&#x233;" horiz-adv-x="598" 
d="M473 723v-88h-370v88h370zM456 538h150l-243 -571c-52 -130 -126 -169 -223 -169c-55 0 -115 18 -150 49l57 111c24 -21 57 -34 88 -34c43 0 67 19 88 67l2 5l-233 542h161l151 -365z" />
    <glyph glyph-name="uni1EF9" unicode="&#x1ef9;" horiz-adv-x="598" 
d="M223 667c-27 0 -46 -20 -48 -56h-79c2 89 47 146 117 146c69 0 104 -64 140 -64c27 0 46 21 48 54h79c-2 -86 -47 -143 -117 -143c-69 0 -104 63 -140 63zM456 538h150l-243 -571c-52 -130 -126 -169 -223 -169c-55 0 -115 18 -150 49l57 111c24 -21 57 -34 88 -34
c43 0 67 19 88 67l2 5l-233 542h161l151 -365z" />
    <glyph glyph-name="z" unicode="z" horiz-adv-x="543" 
d="M232 120h283v-120h-480v94l274 324h-267v120h464v-94z" />
    <glyph glyph-name="zacute" unicode="&#x17a;" horiz-adv-x="543" 
d="M487 751l-181 -144h-122l135 144h168zM232 120h283v-120h-480v94l274 324h-267v120h464v-94z" />
    <glyph glyph-name="zcaron" unicode="&#x17e;" horiz-adv-x="543" 
d="M344 607h-138l-132 144h114l87 -75l87 75h114zM232 120h283v-120h-480v94l274 324h-267v120h464v-94z" />
    <glyph glyph-name="zdotaccent" unicode="&#x17c;" horiz-adv-x="543" 
d="M275 612c-49 0 -84 36 -84 85c0 48 35 84 84 84s84 -36 84 -84c0 -49 -35 -85 -84 -85zM232 120h283v-120h-480v94l274 324h-267v120h464v-94z" />
    <glyph glyph-name="uni1E93" unicode="&#x1e93;" horiz-adv-x="543" 
d="M232 120h283v-120h-480v94l274 324h-267v120h464v-94zM278 -73c39 0 69 -29 69 -70s-30 -67 -69 -67s-69 26 -69 67s30 70 69 70z" />
    <glyph glyph-name="iacute_j.loclNLD" horiz-adv-x="606" 
d="M65 607l135 144h156l-181 -144h-110zM371 607l135 144h156l-182 -144h-109zM72 0v538h155v-538h-155zM335 -202c-49 0 -96 10 -127 30l40 113c17 -12 40 -19 64 -19c40 0 66 25 66 78v538h156v-540c0 -121 -73 -200 -199 -200z" />
    <glyph glyph-name="a.ss01" horiz-adv-x="690" 
d="M462 538h156v-538h-149v62c-39 -47 -96 -70 -168 -70c-152 0 -269 108 -269 277s117 277 269 277c66 0 122 -21 161 -65v57zM328 120c77 0 137 56 137 149s-60 149 -137 149c-78 0 -138 -56 -138 -149s60 -149 138 -149z" />
    <glyph glyph-name="aacute.ss01" horiz-adv-x="690" 
d="M561 751l-181 -144h-122l135 144h168zM462 538h156v-538h-149v62c-39 -47 -96 -70 -168 -70c-152 0 -269 108 -269 277s117 277 269 277c66 0 122 -21 161 -65v57zM328 120c77 0 137 56 137 149s-60 149 -137 149c-78 0 -138 -56 -138 -149s60 -149 138 -149z" />
    <glyph glyph-name="abreve.ss01" horiz-adv-x="690" 
d="M349 599c-104 0 -180 58 -184 152h98c2 -43 39 -71 86 -71s84 28 86 71h98c-4 -94 -80 -152 -184 -152zM462 538h156v-538h-149v62c-39 -47 -96 -70 -168 -70c-152 0 -269 108 -269 277s117 277 269 277c66 0 122 -21 161 -65v57zM328 120c77 0 137 56 137 149
s-60 149 -137 149c-78 0 -138 -56 -138 -149s60 -149 138 -149z" />
    <glyph glyph-name="uni1EAF.ss01" horiz-adv-x="690" 
d="M533 872l-157 -121h-113l111 121h159zM349 599c-103 0 -177 47 -184 122h94c4 -28 40 -47 90 -47s86 19 90 47h94c-7 -75 -81 -122 -184 -122zM462 538h156v-538h-149v62c-39 -47 -96 -70 -168 -70c-152 0 -269 108 -269 277s117 277 269 277c66 0 122 -21 161 -65v57z
M328 120c77 0 137 56 137 149s-60 149 -137 149c-78 0 -138 -56 -138 -149s60 -149 138 -149z" />
    </font>
</defs>
</svg>
